<?xml version="1.0" encoding="UTF-8"?>
<svg id="Calque_2" data-name="Calque 2" xmlns="http://www.w3.org/2000/svg" viewBox="0 0 68.01 80.8">
  <defs>
    <style>
      .cls-1 {
        fill: #fef8f4;
      }

      .cls-2 {
        fill: #e1736c;
      }

      .cls-3 {
        fill: #de726b;
      }

      .cls-4 {
        fill: #db6866;
      }

      .cls-5 {
        fill: #de666b;
      }
    </style>
  </defs>
  <g id="Calque_1-2" data-name="Calque 1">
    <g>
      <path class="cls-2" d="M22.63,37.64c-.07.07-.13.15-.17.23-.34.61.26,6.59.71,7.12.06.07.14.14.22.19.81,3.46,2.61,6.91,4.9,9.61-4.05,5.02-5.9,11.62-6.15,18.01,0,.18-.12.35-.13.44-1.73.39-3.45,1.05-4.91,2.14-.04.04-.08.08-.13.13-1.08,1.06-3.01,3.56-.97,4.68,1.46.8,4.4.36,6.06.35,1.73,0,3.91.3,5.53.12,1.07-.12,2.31-.95,2.34-2.12l.17-.12c-.36-.62-.38-1.66-.29-2.4l.19-.54c-.82-5.98.07-12.62,4.67-16.7,1.55.44,2.97.77,4.7.75,1.6-.02,3.45-.15,4.9-.74-.26,5.29,1.24,10.73,3.28,15.47-.06.11.25.14.25.12.04-.34-2.71.77-2.89,1.01-.38-.23-1.2.31-1.13.76-.84.62-1.51,1.4-1.86,2.38-.22.06-.28.15-.16.26-.07.96.51,1.48,1.38,1.71,1.71.44,8.65.35,10.62.16.92-.09,2.79-.56,2.97-1.62,0-.04,0-.08,0-.13.15-1.85-2.29-6.56-3.02-8.62-1.35-3.77-2.83-8.97-3.02-12.96-.06-1.23-.18-1.76.94-2.45,1.46,3.08,4.39,6.87,8.28,5.5,1.78-.62,3.52-2.78,2.1-4.56-.42-.52-.9-.67-1.38-1.07,6-1.38,9.49-7.96,5.99-13.48-1.96-3.09-5.23-4.38-8.44-5.78-1.13-10.83-10.46-19.53-21.68-17.02-8.69,1.94-13.6,10.73-13.86,19.16"/>
      <path class="cls-3" d="M16.46,37.39c-2.35-1.35-3.06-4.05-2.9-6.61.12-1.94,1.83-6.35-.9-7.14-2.1-.61-3.39,1.37-3.94,3.06-.41,1.25-.73,2.73-.94,4.03-.17.03-.16.03-.26-.08-.86-.91-1.43-1.74-2.83-1.92-5.17-.68-5.22,5.52-4.11,9.02.55,1.73,1.1,2.38,2.83,2.96,1.47.49,4.36.74,5.5,1.29.23.11.58.61.83.81,1.21.97,2.5,1.72,3.96,2.27,1.02.28,2.06.53,3.12.74.41-.27-.57-.83-.83-.87.42-1.49.45-3.05.1-4.67.38-.94.52-1.67.55-2.67l-.18-.21Z"/>
      <path class="cls-2" d="M49.59.05c-.53-.11-1.08-.02-1.6.11-2.73.67-10.99,7.18-12.34,9.68-.72,1.33-.86,2.46.65,3.25,2.8,1.47,7.6-1.06,10.17-2.36,1.48,2.47,4.41,7.85,7.89,7.25,2.11-.36,1.1-4.05.79-5.51-.54-2.47-1.45-5.22-2.36-7.58-.55-1.43-1.54-4.5-3.2-4.85"/>
      <path class="cls-4" d="M16.46,37.39c-.26.45-.07,1.03-.16,1.54-.07.39-.41.8-.45,1.06-.12.89.37,2.36.23,3.38-.05.37-.15.59-.2,1.08-.02.17-.2.39-.17.53.06.27.9.35.99.7-.86-.05-1.65-.38-2.45-.63-.17-.05-.46-.24-.57,0,3.01,1.13,6.75,1.76,9.69.13-.53-2.29-.83-5.22-.76-7.55-1.93.94-4.31.82-6.16-.25"/>
      <path class="cls-5" d="M17.09,75.38c1.57-.89,3.2-1.81,5.03-2.02.02-.09-.13-.11-.13-.12-1.66.19-3.68.99-4.91,2.14"/>
      <path class="cls-1" d="M40.52,29.62c-8.2-.85-9.98,15.48-1.82,17.67,10.11,2.7,11.26-16.69,1.82-17.67"/>
      <path class="cls-1" d="M55.21,49.59c.47-.11.94-.16,1.41-.29,1.82-.49,5.48-2.55,3.55-4.73-.28-.32-2.31-1.67-2.57-1.46-.34,1.23-.68,2.47-1.13,3.66-.37.97-.83,1.89-1.26,2.83"/>
      <path class="cls-5" d="M47.54,74.25c-.61.1-1.29.34-1.85.61-.36.18-.54.37-.8.52.96-.32,1.85-.94,2.89-1.01l-.25-.12Z"/>
    </g>
  </g>
</svg>