<?xml version="1.0" encoding="UTF-8"?>
<svg id="Calque_2" data-name="Calque 2" xmlns="http://www.w3.org/2000/svg" xmlns:xlink="http://www.w3.org/1999/xlink" viewBox="0 0 60.6 117.61">
  <defs>
    <style>
      .cls-1 {
        clip-path: url(#clippath-1);
      }

      .cls-2 {
        clip-path: url(#clippath-3);
      }

      .cls-3 {
        clip-path: url(#clippath-4);
      }

      .cls-4 {
        clip-path: url(#clippath-2);
      }

      .cls-5 {
        fill: #f08bab;
      }

      .cls-6 {
        clip-path: url(#clippath);
      }
    </style>
    <clipPath id="clippath">
      <path class="cls-5" d="M13.34,78.22c-.59.46-1.24.87-1.81,1.35-.59.51-1.22.97-1.82,1.46-.41.33-.8.68-1.15,1.08-.6.68-1.05,1.47-1.64,2.16-.57.68-1.02,1.55-1.28,2.4-.03.1-.06.21-.09.31-.05.19-.08.39-.1.58v.74c.07.73.34,1.43.71,2.12.18.33.38.66.62.95.87,1.03,2.23,1.72,3.45,2.24,1.29.56,2.65.94,4.02,1.22,1.48.3,2.97.5,4.46.71,1.46.21,2.9.44,4.37.5.22,0,.45.02.65.11.49.21.3.62.31,1.04.04,2.65-.13,5.6,1.56,7.77,1.05,1.32,1.85,1.81,3.42.93.46-.25.99-.49,1.09-1.09.16-.01.12.1.16.16-.33,3.08-1.97,6.75-1.33,9.8.45,1.68,3.4,1.92,4.85,2.15,1.87.3,4.16.58,6.38.66h2.42c.77-.03,1.5-.1,2.18-.21,1.68-.28,3.12-1.43,2.46-3.31-.64-1.81-4.99-3.49-6.74-4.14-.51-.19-2.32-.56-2.55-.79-.48-.47-.03-1.42.08-1.97.18-.86.34-1.73.49-2.6.32-1.82.48-3.66.79-5.48.32-1.88.62-3.79.82-5.69.54-4.14.96-8.3,1.15-12.47,0-.17-.06-1.23.05-1.31-2.85,2.04-5.57,3.25-8.09,3.85-.09,1.4-.05,2.85-.15,4.23-.4,2.32-.32,5.15-.78,7.46-.01.06-.25.22-.31.31-.14-1.8.31-5.18-1.09-6.22-.05-.05-.1-.11-.16-.16-.7-.98-3.27-.94-5.35-.9-.89.02-1.68.03-2.2-.03-1.17-.07-2.34-.17-3.5-.28l-2.11-.14c-.32-.02-.64-.08-.94-.17-.16-.05-.33-.04-.49-.04-.24,0-.49.01-.7-.13-.22-.15-.3-.44-.25-.7.08-.41.39-.7.7-.96.29-.25.59-.5.86-.78.33-.36.7-.68,1.1-.96.38-.26.74-.53,1.12-.79.65-.44,1.36-1,2.12-1.22.08-.03.23-.03.42-.02-2.93-1.54-5.06-3.69-6.17-5.33-.75.41-1.36,1.04-2.02,1.55"/>
    </clipPath>
    <clipPath id="clippath-1">
      <path class="cls-5" d="M49.59,55.79s.02-.02.04-.02c-.01,0-.02.02-.04.02M49.64,55.76s0,0,.01,0c0,0,0,0-.01,0M49.65,55.75s0,0,.01,0c0,0,0,0-.01,0M49.68,55.73s.01-.01.02-.01c0,0-.01,0-.02.01M49.71,55.71s.01,0,.02-.01c0,0-.01.01-.02.01M49.75,55.68s.01,0,.02-.01c0,0-.01,0-.02.01M49.79,55.66s.01,0,.02-.01c0,0-.01,0-.02.01M49.82,55.63s.01,0,.02-.01c0,0-.01,0-.02.01M49.86,55.61s.01,0,.02-.01c0,0-.01,0-.02.01M49.9,55.58s.01,0,.02-.01c0,0-.01,0-.02.01M49.93,55.56s.01,0,.02-.01c0,0-.01,0-.02.01M49.97,55.53s.01,0,.02-.01c0,0-.01,0-.02.01M50.01,55.51s.01,0,.02-.01c0,0-.01,0-.02.01M50.04,55.49s.01,0,.02-.01c0,0-.01,0-.02.01M50.08,55.46s.01-.01.02-.02c0,0-.02.01-.02.02M50.11,55.44s.02-.01.03-.02c0,0-.02.01-.03.02M50.15,55.41s.02-.01.03-.02c0,0-.02.01-.03.02M50.19,55.39s.02-.01.03-.02c0,0-.02.01-.03.02M50.24,55.35s.01-.01.02-.01c0,0-.01.01-.02.01M50.27,55.33s.01-.01.02-.01c0,0-.01,0-.02.01M50.31,55.3s.01,0,.02-.01c0,0-.01.01-.02.01M50.35,55.28s.01,0,.02-.01c0,0-.01,0-.02.01M50.38,55.25s.01,0,.02-.01c0,0-.01,0-.02.01M50.42,55.23s.01,0,.02-.01c0,0-.01,0-.02.01M50.45,55.2s.01,0,.02-.01c0,0-.01,0-.02.01M50.49,55.18s.01,0,.02-.01c0,0-.01,0-.02.01M50.52,55.15s.01,0,.02-.01c0,0-.01,0-.02.01M50.56,55.13s0,0,0,0c0,0,0,0,0,0M50.57,55.12s0,0,0,0c0,0,0,0,0,0M50.59,55.1s0,0,.01,0c0,0,0,0-.01,0M50.63,55.08s0,0,0,0c0,0,0,0,0,0M50.64,55.07s0,0,0,0c0,0,0,0,0,0M50.66,55.05s0,0,.01,0c0,0,0,0-.01,0M50.7,55.03s0,0,0,0c0,0,0,0,0,0M50.97,54.83s0,0,0,0c0,0,0,0,0,0M45.78,46.65s.03-.02.04-.02c-.01,0-.03.01-.04.02M45.82,46.62s.02-.01.04-.02c-.01,0-.02.01-.04.02M45.86,46.59s.02-.01.04-.02c-.01,0-.02.01-.04.02M45.9,46.57s.02-.01.04-.02c-.01,0-.02.01-.04.02M45.94,46.54s.02-.01.04-.02c-.01,0-.02.01-.04.02M45.98,46.52s.02-.01.03-.02c-.01,0-.02.01-.03.02M46.02,46.49s.02-.02.04-.02c-.01,0-.02.02-.04.02M46.06,46.47s.01,0,.02-.01c0,0-.01,0-.02.01M46.08,46.46s.01,0,.02-.01c0,0-.01,0-.02.01M46.1,46.44s.05-.03.08-.05c-.02.02-.05.03-.08.05M46.18,46.39s.02-.02.04-.02c-.01,0-.03.02-.04.02M46.22,46.36s.02-.02.04-.02c-.01,0-.02.02-.04.02M46.26,46.34s.02-.02.04-.02c-.01,0-.02.02-.04.02M46.3,46.31s.02-.02.04-.02c-.01,0-.02.02-.04.02M46.33,46.29s.02-.02.04-.03c-.01,0-.02.02-.04.03M46.37,46.26c.22-.15.42-.3.63-.45-.2.15-.41.31-.63.45M47,45.81s.02-.02.03-.02c-.01,0-.02.02-.03.02M47.03,45.78c.24-.18.47-.37.69-.57-.22.19-.45.38-.69.57M47.72,45.22h0,0M47.72,45.22s.08-.07.12-.11c-.04.04-.08.07-.12.11M47.84,45.11s0,0,0,0c0,0,0,0,0,0M47.85,45.1s.05-.05.08-.07c-.03.02-.05.05-.08.07M47.93,45.03s.05-.04.07-.07c-.02.02-.05.04-.07.07M48,44.96s.04-.04.06-.05c-.02.02-.04.04-.06.05M48.06,44.91s.03-.03.05-.04c-.02.01-.03.03-.05.04M48.11,44.86c.06-.06.12-.12.19-.18-.06.06-.12.12-.19.18M48.29,44.68s.03-.03.05-.05c-.02.02-.03.03-.05.05M48.34,44.63c.06-.06.13-.13.19-.19-.06.07-.13.13-.19.19M48.53,44.44s.09-.09.13-.14c-.04.05-.09.09-.13.14M51.66,38.18c-.34,2.22-1.33,4.33-3,6.12,1.67-1.8,2.66-3.91,3-6.12"/>
    </clipPath>
    <clipPath id="clippath-2">
      <path class="cls-5" d="M46.37,46.26s-.02.02-.04.03c0,0,0,0,0,0-.01,0-.02.02-.04.02,0,0,0,0,0,0-.01,0-.02.02-.04.02,0,0,0,0,0,0-.01,0-.02.02-.04.02,0,0,0,0,0,0-.01,0-.03.02-.04.02,0,0,0,0,0,0-.02.02-.05.03-.08.05,0,0,0,0,0,0-.01,0-.02.02-.04.02,0,0,0,0,0,0-.01,0-.02.02-.04.02,0,0,0,0,0,0-.01,0-.02.01-.03.02,0,0,0,0,0,0-.01,0-.02.01-.04.02,0,0,0,0,0,0-.01,0-.02.01-.04.02,0,0,0,0,0,0-.01,0-.02.01-.04.02,0,0,0,0,0,0-.01,0-.02.01-.04.02,0,0,0,0,0,0-.01,0-.03.02-.04.02,0,0,1.61,1.23,3.81,9.14.01,0,.02-.02.04-.02,0,0,0,0,.01,0,0,0,.02-.01.03-.02,0,0,0,0,.01,0,0,0,.01-.01.02-.01,0,0,.01,0,.01-.01,0,0,.01,0,.02-.01,0,0,.01,0,.02,0,0,0,.01,0,.02-.01,0,0,.01,0,.02-.01,0,0,.01,0,.02-.01,0,0,.01,0,.02-.01,0,0,.01,0,.02-.01,0,0,.01,0,.01-.01,0,0,.01,0,.02-.01,0,0,.01,0,.02-.01,0,0,.01,0,.02-.01,0,0,.01,0,.02-.01,0,0,.01,0,.02-.01,0,0,.01,0,.02-.01,0,0,.01,0,.02-.01,0,0,0,0,.01,0,0,0,.01,0,.02-.01,0,0,.01,0,.02-.01,0,0,.01,0,.02-.01,0,0,.01,0,.02-.01,0,0,.01-.01.02-.02,0,0,0,0,.01,0,0,0,.02-.01.03-.02,0,0,0,0,0,0,0,0,.02-.01.03-.02,0,0,0,0,.01-.01.01,0,.02-.01.03-.02,0,0,.01,0,.01,0,0,0,.01-.01.02-.01,0,0,0,0,.01-.01,0,0,.01,0,.02-.01,0,0,.01,0,.01-.01,0,0,.01,0,.02-.01,0,0,.01,0,.02-.01,0,0,.01,0,.02-.01,0,0,.01,0,.02-.01,0,0,.01,0,.02-.01,0,0,.01,0,.02-.01,0,0,.01,0,.02-.01,0,0,.01,0,.02-.01,0,0,.01,0,.02-.01,0,0,.01,0,.02-.01,0,0,.01,0,.02-.01,0,0,.01,0,.02-.01,0,0,.01,0,.02-.01,0,0,.01-.01.02-.01,0,0,.01,0,.01-.01,0,0,.01,0,.02-.01,0,0,0,0,.01,0,0,0,.01-.01.02-.02,0,0,0,0,.01,0,0,0,.01-.01.02-.02,0,0,0,0,.01,0,0,0,.02-.01.02-.02,0,0,0,0,0,0,.09-.06.17-.13.26-.19,0,0,0,0,0,0,.04-.03.09-.07.13-.1,5.18-3.89,8.36-9.3,9.24-14.96-2.76-.51-5.82-1.07-8.69-1.6-.47,3.09-2.21,5.97-5.29,8.08"/>
    </clipPath>
    <clipPath id="clippath-3">
      <path class="cls-5" d="M15.35,47.69s-.02-.01-.03-.02c.01,0,.02.01.03.02M15.31,47.67s-.02-.01-.03-.02c.01,0,.02.01.03.02M15.27,47.64s-.02-.01-.03-.02c.01,0,.02.01.03.02M15.23,47.62s-.01,0-.02,0c0,0,.01,0,.02,0M15.22,47.61s-.01,0-.01,0c0,0,0,0,.01,0M15.2,47.6s-.02-.01-.03-.02c.01,0,.02.01.03.02M15.16,47.58s-.02-.01-.03-.02c.01,0,.02.01.03.02M15.12,47.55s-.01,0-.01,0c0,0,0,0,.01,0M15.1,47.55s-.01,0-.02,0c0,0,0,0,.02,0M15.08,47.53s-.02-.01-.03-.02c0,0,.02.01.03.02M15.04,47.51s-.02-.01-.03-.02c.01,0,.02.01.03.02M15,47.49s-.02-.01-.03-.02c0,0,.02.01.03.02M14.96,47.46s-.02-.01-.03-.02c0,0,.02.01.03.02M14.93,47.44s0,0-.01,0c0,0,0,0,.01,0M14.91,47.43s0,0-.01,0c0,0,0,0,.01,0M14.89,47.42s-.02-.01-.03-.02c0,0,.02.01.03.02M14.85,47.4s-.02-.01-.03-.02c0,0,.02.01.03.02M14.81,47.37s-.01,0-.02-.01c0,0,.01,0,.02.01M14.78,47.35s-.01,0-.02-.01c0,0,.01,0,.02.01M14.74,47.33s-.02-.01-.03-.02c0,0,.02.01.03.02M14.7,47.3s-.02-.01-.03-.02c0,0,.02.01.03.02M14.66,47.28s-.01,0-.02-.01c0,0,.01,0,.02.01M14.63,47.25s-.01,0-.02-.01c0,0,.01,0,.02.01M14.59,47.23s-.02-.01-.03-.02c0,0,.02.01.03.02M14.56,47.21s-.01-.01-.02-.01c0,0,.01,0,.02.01M14.52,47.18s-.01,0-.02-.01c0,0,.01,0,.02.01M14.48,47.16s-.01,0-.02-.01c0,0,.01,0,.02.01M14.45,47.14s-.01-.01-.02-.02c0,0,.01.01.02.02M14.41,47.11s-.01,0-.02-.01c0,0,.01,0,.02.01M14.37,47.09s0,0-.01,0c0,0,0,0,.01,0M14.33,47.06s0,0,0,0c0,0,0,0,0,0M14.33,47.06s0,0,0,0h0M14.3,47.04s-.01,0-.02-.01c0,0,.01,0,.02.01M14.27,47.01s-.01,0-.01,0c0,0,0,0,.01,0M14.23,46.99s0,0-.01,0c0,0,0,0,.01,0M14.19,46.96s0,0-.01,0c0,0,0,0,.01,0M14.16,46.94s-.01,0-.02-.01c0,0,.01,0,.02.01M14.12,46.92s0,0-.01,0c0,0,0,0,.01,0M14.09,46.89s0,0-.01,0c0,0,0,0,.01,0M14.05,46.86s0,0,0,0c0,0,0,0,0,0M14.02,46.84s0,0-.01,0c0,0,0,0,.01,0M13.99,46.82s0,0-.01,0c0,0,0,0,.01,0M13.95,46.79s0,0,0,0c0,0,0,0,0,0M13.9,46.76s0,0,0,0c0,0,0,0,0,0M13.88,46.74s0,0,0,0c0,0,0,0,0,0M13.88,46.74s0,0,0,0c0,0,0,0,0,0M13.85,46.71s0,0,0,0c0,0,0,0,0,0M13.81,46.69s0,0,0,0c0,0,0,0,0,0M13.78,46.67s0,0,0,0c0,0,0,0,0,0M13.78,46.66s0,0,0,0c0,0,0,0,0,0M13.75,46.64s0,0,0,0c0,0,0,0,0,0M13.74,46.64s0,0,0,0c0,0,0,0,0,0M13.71,46.61s0,0,0,0c0,0,0,0,0,0M13.68,46.58s0,0,0,0c0,0,0,0,0,0M13.65,46.56s0,0,0,0c0,0,0,0,0,0M13.61,46.54s0,0,0,0c0,0,0,0,0,0M13.58,46.51s0,0,0,0c0,0,0,0,0,0M13.54,46.48s0,0,0,0c0,0,0,0,0,0M13.54,46.48s0,0,0,0c0,0,0,0,0,0M13.52,46.46s0,0,0,0c0,0,0,0,0,0M13.48,46.43s0,0,0,0c0,0,0,0,0,0M13.45,46.4s0,0-.01,0c0,0,0,0,.01,0M13.41,46.38s0,0-.01,0c0,0,0,0,.01,0M13.39,46.35s0,0-.01,0c0,0,0,0,.01,0M13.35,46.33s0,0-.01,0c0,0,0,0,.01,0M13.32,46.3s0,0-.01,0c0,0,0,0,.01,0M13.29,46.28s-.01-.01-.02-.02c0,0,.01.01.02.02M13.26,46.25s0,0-.01-.01c0,0,0,0,.01.01M13.23,46.22s0,0-.01-.01c0,0,0,0,.01.01M13.19,46.19s0,0-.01-.01c0,0,0,0,.01.01M13.17,46.17s-.01-.01-.02-.02c0,0,.01.01.02.02M13.13,46.14s0,0-.01-.01c0,0,.01,0,.01.01M13.1,46.11s0,0-.01-.01c0,0,0,0,.01.01M13.07,46.09s-.01-.01-.02-.02c0,0,.01.01.02.02M13.04,46.06s-.01-.01-.02-.02c0,0,.01.01.02.02M13.01,46.03s-.01-.01-.02-.01c0,0,.01,0,.02.01M12.98,46.01s-.01-.01-.02-.01c0,0,.01,0,.02.01M12.95,45.98s-.01-.01-.02-.02c0,0,.01.01.02.02M12.92,45.95s-.01-.01-.02-.02c0,0,.01.01.02.02M12.89,45.93s-.01-.01-.02-.02c0,0,.01.01.02.02M12.86,45.9s-.01-.01-.02-.02c0,0,.01.01.02.02M12.83,45.87s-.02-.01-.02-.02c0,0,.02.01.02.02M12.8,45.84s-.02-.01-.02-.02c0,0,.02.01.02.02M12.77,45.82s-.02-.01-.02-.02c0,0,.01.01.02.02M12.74,45.79s-.02-.02-.03-.02c0,0,.02.02.03.02M12.71,45.76s-.02-.02-.03-.02c0,0,.02.01.03.02M12.68,45.73s-.02-.02-.03-.02c0,0,.02.02.03.02M12.65,45.71s-.02-.02-.03-.02c0,0,.02.02.03.02M12.62,45.68s-.02-.02-.03-.03c0,0,.02.02.03.03M12.59,45.65s-.02-.02-.03-.03c0,0,.02.02.03.03M12.56,45.62s-.04-.04-.06-.05c.02.02.04.04.06.05M12.51,45.57s-.02-.02-.03-.03c0,0,.02.02.03.03M12.48,45.54s-.02-.02-.03-.03c0,.01.02.02.03.03M12.45,45.51s-.06-.06-.1-.1c.03.03.06.06.1.1M12.36,45.41s-.09-.09-.14-.14c.04.05.09.1.14.14M12.22,45.27c-1.17-1.24-2.03-2.65-2.56-4.16.53,1.51,1.38,2.92,2.56,4.16M11.08,30.45c-2.16,3.32-2.63,7.22-1.42,10.66-1.21-3.44-.74-7.34,1.42-10.66h0Z"/>
    </clipPath>
    <clipPath id="clippath-4">
      <path class="cls-5" d="M2.38,28.47C.89,31.27.14,34.05.02,36.74v1.63c.33,7.14,5.04,13.47,11.93,17.42,0,0,.79-3.81,3.4-8.1-.01,0-.02-.01-.03-.02h0s-.02-.01-.03-.02c0,0,0,0,0,0-.01,0-.02-.01-.03-.02,0,0,0,0,0,0-.01,0-.02-.01-.03-.02,0,0,0,0,0,0-.01,0-.02-.01-.03-.02,0,0,0,0,0,0-.01,0-.02-.01-.03-.02,0,0,0,0,0,0-.01,0-.02-.01-.03-.02,0,0,0,0,0,0,0,0-.02-.01-.03-.02,0,0,0,0,0,0,0,0-.02-.01-.03-.02,0,0,0,0-.01,0-.01,0-.02-.01-.03-.02,0,0,0,0-.01,0,0,0-.02-.01-.03-.02,0,0,0,0-.01,0,0,0-.01,0-.02-.01,0,0,0,0-.01,0,0,0-.02-.01-.03-.02,0,0,0,0-.01,0,0,0-.02-.01-.03-.02,0,0,0,0-.01,0,0,0-.01,0-.02-.01,0,0-.01,0-.02-.01,0,0-.01,0-.02-.01,0,0,0,0-.01,0,0,0-.02-.01-.03-.02,0,0,0,0-.01,0,0,0-.02-.01-.03-.02,0,0,0,0-.01,0,0,0-.01,0-.02-.01,0,0-.01,0-.02-.01,0,0-.01,0-.02-.01,0,0,0,0-.01,0,0,0-.02-.01-.03-.02,0,0,0,0-.01,0,0,0-.01-.01-.02-.01,0,0-.01,0-.02-.01,0,0-.01,0-.02-.01,0,0-.01,0-.02-.01,0,0-.01,0-.02-.01,0,0-.01,0-.02,0,0,0-.01-.01-.02-.02,0,0,0,0-.01-.01,0,0-.01,0-.02-.01,0,0-.01-.01-.02-.02,0,0,0,0-.01,0,0,0-.02-.01-.02-.02,0,0,0,0-.01-.01,0,0-.01,0-.02-.01,0,0-.01,0-.02-.01,0,0-.01,0-.02-.01,0,0-.01,0-.01,0,0,0-.02-.01-.02-.02,0,0,0,0-.01,0,0,0-.02-.01-.02-.02,0,0,0,0-.01,0,0,0-.01,0-.02-.01,0,0-.01,0-.02-.01,0,0-.01-.01-.02-.01,0,0,0,0-.01,0,0,0-.02-.01-.03-.02,0,0,0,0-.01,0,0,0-.02-.01-.03-.02,0,0,0,0,0,0,0,0-.01,0-.02-.01,0,0,0,0-.01,0,0,0-.02-.01-.03-.02,0,0,0,0-.01,0,0,0-.02-.01-.03-.02,0,0,0,0,0,0-.01,0-.02-.02-.03-.02,0,0,0,0,0,0,0,0-.01,0-.02-.01,0,0,0,0,0,0,0,0-.02-.01-.03-.02,0,0,0,0,0,0,0,0-.02-.01-.03-.02,0,0,0,0,0,0,0,0-.01,0-.02-.01,0,0-.01,0-.02-.01,0,0-.01-.01-.02-.01,0,0,0,0,0,0,0,0-.02-.01-.03-.02,0,0,0,0,0,0,0,0-.02-.01-.03-.02,0,0,0,0,0,0,0,0-.01,0-.02-.01,0,0,0,0,0,0-.01,0-.02-.02-.03-.02,0,0,0,0,0,0,0,0-.02-.01-.03-.02,0,0,0,0,0,0,0,0-.02-.01-.03-.02,0,0,0,0,0,0,0,0-.01,0-.02-.01,0,0,0,0,0,0,0,0-.02-.01-.03-.02,0,0,0,0,0,0,0,0-.02-.01-.02-.02,0,0,0,0-.01,0,0,0-.01-.01-.02-.02,0,0,0,0-.01,0,0,0-.01,0-.02-.01,0,0,0,0-.01,0,0,0-.02-.01-.02-.02,0,0,0,0-.01,0,0,0-.01-.01-.02-.02,0,0,0,0-.01,0,0,0,0,0-.01-.01,0,0-.01-.01-.02-.02,0,0,0,0-.01-.01s0,0-.01-.01c0,0-.01-.01-.02-.02,0,0,0,0-.01-.01,0,0-.01-.01-.02-.02,0,0,0,0-.01-.01,0,0,0,0-.01-.01,0,0-.01-.01-.02-.02,0,0,0,0-.01-.01,0,0,0,0-.01-.01,0,0-.01,0-.02-.02,0,0,0,0-.01-.01,0,0,0,0-.01-.01,0,0-.01-.01-.02-.02,0,0,0,0-.01,0,0,0-.01-.01-.02-.02,0,0,0,0-.01,0,0,0-.01-.01-.02-.01,0,0-.01,0-.02-.01,0,0-.01-.01-.02-.01,0,0,0,0-.01,0,0,0-.01-.01-.02-.02,0,0,0,0,0,0,0,0-.01-.01-.02-.02,0,0,0,0,0,0,0,0-.01-.01-.02-.02,0,0,0,0-.01,0,0,0-.01-.01-.02-.02,0,0,0,0,0,0,0,0-.02-.01-.02-.02,0,0,0,0,0,0,0,0-.02-.01-.02-.02,0,0,0,0,0,0,0,0-.02-.01-.02-.02,0,0,0,0,0,0,0,0-.02-.02-.03-.02,0,0,0,0,0,0,0,0-.02-.02-.03-.02,0,0,0,0,0,0,0,0-.02-.02-.03-.02,0,0,0,0,0,0,0,0-.02-.02-.03-.02,0,0,0,0,0,0,0,0-.02-.02-.03-.03,0,0,0,0,0,0,0,0-.02-.02-.03-.03,0,0,0,0,0,0-.02-.02-.04-.04-.06-.05h0s-.02-.02-.03-.03c0,0,0,0,0,0,0,0-.02-.02-.03-.03-4.07-4.06-4.53-10.19-1.37-15.06l-8.38-2.57c-.11.19-.22.39-.32.59"/>
    </clipPath>
  </defs>
  <g id="Calque_1-2" data-name="Calque 1">
    <g>
      <g>
        <path class="cls-5" d="M45.78,46.65c-6.28-8.28-19.12-9.88-26.84-2.71-.57.51-3.33,3.82-3.58,3.75-7.65-4.28-8.39-13.81-2.17-19.77,4.11-4.12,9.84-7.25,14.31-11.34.77-.56,3.36-4.09,4.13-3.2,4.71,5.25,11.79,8.54,16.4,13.76,5.57,6.31,5.1,14.95-2.24,19.5M30.97,71.06c-9.67,1.28-9.18-18.05-.57-19.23,10.11-1.38,8.51,18.18.57,19.23M16.65,87.6c-.16-.04-.32-.04-.49-.04-.24,0-.49.01-.7-.13-.22-.15-.3-.44-.25-.7.08-.41.39-.7.7-.96.29-.25.59-.5.86-.78.33-.36.7-.68,1.1-.96.38-.26.74-.53,1.12-.79.65-.44,1.36-1,2.12-1.22.74-.22,6.19,1.01,7.57,1.16,1.48.15,3.08.27,4.57.17-.1,1.43-.06,2.93-.16,4.35-.4,2.32-.32,5.15-.78,7.46-.01.06-.25.22-.31.31-.14-1.8.31-5.18-1.09-6.22-.05-.05-.1-.11-.16-.16-.7-.98-3.27-.94-5.34-.9-.89.02-1.68.03-2.2-.03-1.17-.07-2.34-.17-3.5-.28l-2.11-.14c-.32-.02-.64-.08-.94-.17M52.68,20.15c-5.06-4.5-15.75-9.01-18.2-15.39-.59-1.53-.54-3.25-2.12-4.25-3.36-2.14-4.41,3.01-5.47,5.06C21.75,15.54,8.28,17.31,2.37,28.47c-5.79,10.93-.38,21.61,9.58,27.32-1.58,6.95-1.15,15.1,3.41,20.88-.75.41-1.36,1.04-2.02,1.55-.59.46-1.24.87-1.81,1.35-.59.51-1.22.97-1.82,1.46-.41.33-.8.68-1.15,1.08-.6.68-1.05,1.47-1.64,2.16-.57.68-1.02,1.55-1.28,2.4-.03.1-.06.21-.09.31-.3,1.23.02,2.35.61,3.43.18.33.38.66.63.95.87,1.03,2.23,1.72,3.45,2.24,1.29.56,2.65.94,4.02,1.22,1.48.3,2.97.5,4.46.71,1.46.21,2.9.44,4.37.5.22,0,.45.02.65.1.49.21.3.62.31,1.04.04,2.65-.13,5.6,1.55,7.77,1.05,1.32,1.85,1.81,3.42.93.46-.26.99-.49,1.09-1.09.16-.01.12.1.16.16-.33,3.08-1.97,6.75-1.33,9.8.45,1.68,3.4,1.92,4.85,2.15,3.25.52,7.76.99,10.98.45,1.68-.28,3.12-1.43,2.46-3.31-.64-1.81-4.99-3.49-6.74-4.14-.51-.19-2.32-.56-2.55-.79-.48-.47-.03-1.42.08-1.96.18-.86.34-1.73.49-2.6.32-1.82.48-3.67.79-5.48.32-1.88.62-3.79.82-5.69.54-4.14.96-8.3,1.15-12.47,0-.17-.06-1.23.05-1.3,7.59-5.03,9.34-15.37,8.26-23.84,12.9-8.35,15.15-25.51,3.09-35.64"/>
        <path class="cls-5" d="M33.87,22.33c-1.3-1.26-3.59-1.53-4.73.09-1.63,1.94-4.01,6.8-5.09,9.21-.62,1.39-2.25,4.17-.65,5.37,2.23,1.67,6.54-2.17,8.54-3.08.88.21,1.75.5,2.59.81,1.23.45,3.39,1.76,4.54,1.67,5.7-1.27-3.09-12.31-5.2-14.08"/>
      </g>
      <g>
        <path class="cls-5" d="M13.34,78.22c-.59.46-1.24.87-1.81,1.35-.59.51-1.22.97-1.82,1.46-.41.33-.8.68-1.15,1.08-.6.68-1.05,1.47-1.64,2.16-.57.68-1.02,1.55-1.28,2.4-.03.1-.06.21-.09.31-.05.19-.08.39-.1.58v.74c.07.73.34,1.43.71,2.12.18.33.38.66.62.95.87,1.03,2.23,1.72,3.45,2.24,1.29.56,2.65.94,4.02,1.22,1.48.3,2.97.5,4.46.71,1.46.21,2.9.44,4.37.5.22,0,.45.02.65.11.49.21.3.62.31,1.04.04,2.65-.13,5.6,1.56,7.77,1.05,1.32,1.85,1.81,3.42.93.46-.25.99-.49,1.09-1.09.16-.01.12.1.16.16-.33,3.08-1.97,6.75-1.33,9.8.45,1.68,3.4,1.92,4.85,2.15,1.87.3,4.16.58,6.38.66h2.42c.77-.03,1.5-.1,2.18-.21,1.68-.28,3.12-1.43,2.46-3.31-.64-1.81-4.99-3.49-6.74-4.14-.51-.19-2.32-.56-2.55-.79-.48-.47-.03-1.42.08-1.97.18-.86.34-1.73.49-2.6.32-1.82.48-3.66.79-5.48.32-1.88.62-3.79.82-5.69.54-4.14.96-8.3,1.15-12.47,0-.17-.06-1.23.05-1.31-2.85,2.04-5.57,3.25-8.09,3.85-.09,1.4-.05,2.85-.15,4.23-.4,2.32-.32,5.15-.78,7.46-.01.06-.25.22-.31.31-.14-1.8.31-5.18-1.09-6.22-.05-.05-.1-.11-.16-.16-.7-.98-3.27-.94-5.35-.9-.89.02-1.68.03-2.2-.03-1.17-.07-2.34-.17-3.5-.28l-2.11-.14c-.32-.02-.64-.08-.94-.17-.16-.05-.33-.04-.49-.04-.24,0-.49.01-.7-.13-.22-.15-.3-.44-.25-.7.08-.41.39-.7.7-.96.29-.25.59-.5.86-.78.33-.36.7-.68,1.1-.96.38-.26.74-.53,1.12-.79.65-.44,1.36-1,2.12-1.22.08-.03.23-.03.42-.02-2.93-1.54-5.06-3.69-6.17-5.33-.75.41-1.36,1.04-2.02,1.55"/>
        <g class="cls-6">
          <rect class="cls-5" x="2.62" y="72.45" width="48.14" height="49.36" transform="translate(-73.72 105.14) rotate(-79.2)"/>
        </g>
      </g>
      <path class="cls-5" d="M23.39,37c2.23,1.67,6.54-2.17,8.54-3.08.88.21,1.75.5,2.59.81,1.23.45,3.39,1.76,4.54,1.68,5.7-1.27-3.09-12.31-5.2-14.08-1.3-1.26-3.59-1.53-4.73.09-1.63,1.94-4.01,6.8-5.09,9.21-.62,1.39-2.25,4.17-.65,5.37"/>
      <g>
        <path class="cls-5" d="M49.59,55.79s.02-.02.04-.02c-.01,0-.02.02-.04.02M49.64,55.76s0,0,.01,0c0,0,0,0-.01,0M49.65,55.75s0,0,.01,0c0,0,0,0-.01,0M49.68,55.73s.01-.01.02-.01c0,0-.01,0-.02.01M49.71,55.71s.01,0,.02-.01c0,0-.01.01-.02.01M49.75,55.68s.01,0,.02-.01c0,0-.01,0-.02.01M49.79,55.66s.01,0,.02-.01c0,0-.01,0-.02.01M49.82,55.63s.01,0,.02-.01c0,0-.01,0-.02.01M49.86,55.61s.01,0,.02-.01c0,0-.01,0-.02.01M49.9,55.58s.01,0,.02-.01c0,0-.01,0-.02.01M49.93,55.56s.01,0,.02-.01c0,0-.01,0-.02.01M49.97,55.53s.01,0,.02-.01c0,0-.01,0-.02.01M50.01,55.51s.01,0,.02-.01c0,0-.01,0-.02.01M50.04,55.49s.01,0,.02-.01c0,0-.01,0-.02.01M50.08,55.46s.01-.01.02-.02c0,0-.02.01-.02.02M50.11,55.44s.02-.01.03-.02c0,0-.02.01-.03.02M50.15,55.41s.02-.01.03-.02c0,0-.02.01-.03.02M50.19,55.39s.02-.01.03-.02c0,0-.02.01-.03.02M50.24,55.35s.01-.01.02-.01c0,0-.01.01-.02.01M50.27,55.33s.01-.01.02-.01c0,0-.01,0-.02.01M50.31,55.3s.01,0,.02-.01c0,0-.01.01-.02.01M50.35,55.28s.01,0,.02-.01c0,0-.01,0-.02.01M50.38,55.25s.01,0,.02-.01c0,0-.01,0-.02.01M50.42,55.23s.01,0,.02-.01c0,0-.01,0-.02.01M50.45,55.2s.01,0,.02-.01c0,0-.01,0-.02.01M50.49,55.18s.01,0,.02-.01c0,0-.01,0-.02.01M50.52,55.15s.01,0,.02-.01c0,0-.01,0-.02.01M50.56,55.13s0,0,0,0c0,0,0,0,0,0M50.57,55.12s0,0,0,0c0,0,0,0,0,0M50.59,55.1s0,0,.01,0c0,0,0,0-.01,0M50.63,55.08s0,0,0,0c0,0,0,0,0,0M50.64,55.07s0,0,0,0c0,0,0,0,0,0M50.66,55.05s0,0,.01,0c0,0,0,0-.01,0M50.7,55.03s0,0,0,0c0,0,0,0,0,0M50.97,54.83s0,0,0,0c0,0,0,0,0,0M45.78,46.65s.03-.02.04-.02c-.01,0-.03.01-.04.02M45.82,46.62s.02-.01.04-.02c-.01,0-.02.01-.04.02M45.86,46.59s.02-.01.04-.02c-.01,0-.02.01-.04.02M45.9,46.57s.02-.01.04-.02c-.01,0-.02.01-.04.02M45.94,46.54s.02-.01.04-.02c-.01,0-.02.01-.04.02M45.98,46.52s.02-.01.03-.02c-.01,0-.02.01-.03.02M46.02,46.49s.02-.02.04-.02c-.01,0-.02.02-.04.02M46.06,46.47s.01,0,.02-.01c0,0-.01,0-.02.01M46.08,46.46s.01,0,.02-.01c0,0-.01,0-.02.01M46.1,46.44s.05-.03.08-.05c-.02.02-.05.03-.08.05M46.18,46.39s.02-.02.04-.02c-.01,0-.03.02-.04.02M46.22,46.36s.02-.02.04-.02c-.01,0-.02.02-.04.02M46.26,46.34s.02-.02.04-.02c-.01,0-.02.02-.04.02M46.3,46.31s.02-.02.04-.02c-.01,0-.02.02-.04.02M46.33,46.29s.02-.02.04-.03c-.01,0-.02.02-.04.03M46.37,46.26c.22-.15.42-.3.63-.45-.2.15-.41.31-.63.45M47,45.81s.02-.02.03-.02c-.01,0-.02.02-.03.02M47.03,45.78c.24-.18.47-.37.69-.57-.22.19-.45.38-.69.57M47.72,45.22h0,0M47.72,45.22s.08-.07.12-.11c-.04.04-.08.07-.12.11M47.84,45.11s0,0,0,0c0,0,0,0,0,0M47.85,45.1s.05-.05.08-.07c-.03.02-.05.05-.08.07M47.93,45.03s.05-.04.07-.07c-.02.02-.05.04-.07.07M48,44.96s.04-.04.06-.05c-.02.02-.04.04-.06.05M48.06,44.91s.03-.03.05-.04c-.02.01-.03.03-.05.04M48.11,44.86c.06-.06.12-.12.19-.18-.06.06-.12.12-.19.18M48.29,44.68s.03-.03.05-.05c-.02.02-.03.03-.05.05M48.34,44.63c.06-.06.13-.13.19-.19-.06.07-.13.13-.19.19M48.53,44.44s.09-.09.13-.14c-.04.05-.09.09-.13.14M51.66,38.18c-.34,2.22-1.33,4.33-3,6.12,1.67-1.8,2.66-3.91,3-6.12"/>
        <g class="cls-1">
          <rect class="cls-5" x="40.42" y="38.68" width="16.61" height="16.61" transform="translate(-18.95 48.21) rotate(-45)"/>
        </g>
      </g>
      <g>
        <path class="cls-5" d="M46.37,46.26s-.02.02-.04.03c0,0,0,0,0,0-.01,0-.02.02-.04.02,0,0,0,0,0,0-.01,0-.02.02-.04.02,0,0,0,0,0,0-.01,0-.02.02-.04.02,0,0,0,0,0,0-.01,0-.03.02-.04.02,0,0,0,0,0,0-.02.02-.05.03-.08.05,0,0,0,0,0,0-.01,0-.02.02-.04.02,0,0,0,0,0,0-.01,0-.02.02-.04.02,0,0,0,0,0,0-.01,0-.02.01-.03.02,0,0,0,0,0,0-.01,0-.02.01-.04.02,0,0,0,0,0,0-.01,0-.02.01-.04.02,0,0,0,0,0,0-.01,0-.02.01-.04.02,0,0,0,0,0,0-.01,0-.02.01-.04.02,0,0,0,0,0,0-.01,0-.03.02-.04.02,0,0,1.61,1.23,3.81,9.14.01,0,.02-.02.04-.02,0,0,0,0,.01,0,0,0,.02-.01.03-.02,0,0,0,0,.01,0,0,0,.01-.01.02-.01,0,0,.01,0,.01-.01,0,0,.01,0,.02-.01,0,0,.01,0,.02,0,0,0,.01,0,.02-.01,0,0,.01,0,.02-.01,0,0,.01,0,.02-.01,0,0,.01,0,.02-.01,0,0,.01,0,.02-.01,0,0,.01,0,.01-.01,0,0,.01,0,.02-.01,0,0,.01,0,.02-.01,0,0,.01,0,.02-.01,0,0,.01,0,.02-.01,0,0,.01,0,.02-.01,0,0,.01,0,.02-.01,0,0,.01,0,.02-.01,0,0,0,0,.01,0,0,0,.01,0,.02-.01,0,0,.01,0,.02-.01,0,0,.01,0,.02-.01,0,0,.01,0,.02-.01,0,0,.01-.01.02-.02,0,0,0,0,.01,0,0,0,.02-.01.03-.02,0,0,0,0,0,0,0,0,.02-.01.03-.02,0,0,0,0,.01-.01.01,0,.02-.01.03-.02,0,0,.01,0,.01,0,0,0,.01-.01.02-.01,0,0,0,0,.01-.01,0,0,.01,0,.02-.01,0,0,.01,0,.01-.01,0,0,.01,0,.02-.01,0,0,.01,0,.02-.01,0,0,.01,0,.02-.01,0,0,.01,0,.02-.01,0,0,.01,0,.02-.01,0,0,.01,0,.02-.01,0,0,.01,0,.02-.01,0,0,.01,0,.02-.01,0,0,.01,0,.02-.01,0,0,.01,0,.02-.01,0,0,.01,0,.02-.01,0,0,.01,0,.02-.01,0,0,.01,0,.02-.01,0,0,.01-.01.02-.01,0,0,.01,0,.01-.01,0,0,.01,0,.02-.01,0,0,0,0,.01,0,0,0,.01-.01.02-.02,0,0,0,0,.01,0,0,0,.01-.01.02-.02,0,0,0,0,.01,0,0,0,.02-.01.02-.02,0,0,0,0,0,0,.09-.06.17-.13.26-.19,0,0,0,0,0,0,.04-.03.09-.07.13-.1,5.18-3.89,8.36-9.3,9.24-14.96-2.76-.51-5.82-1.07-8.69-1.6-.47,3.09-2.21,5.97-5.29,8.08"/>
        <g class="cls-4">
          <rect class="cls-5" x="41.69" y="35.6" width="22.75" height="22.75" transform="translate(-17.68 51.28) rotate(-45)"/>
        </g>
      </g>
      <g>
        <path class="cls-5" d="M15.35,47.69s-.02-.01-.03-.02c.01,0,.02.01.03.02M15.31,47.67s-.02-.01-.03-.02c.01,0,.02.01.03.02M15.27,47.64s-.02-.01-.03-.02c.01,0,.02.01.03.02M15.23,47.62s-.01,0-.02,0c0,0,.01,0,.02,0M15.22,47.61s-.01,0-.01,0c0,0,0,0,.01,0M15.2,47.6s-.02-.01-.03-.02c.01,0,.02.01.03.02M15.16,47.58s-.02-.01-.03-.02c.01,0,.02.01.03.02M15.12,47.55s-.01,0-.01,0c0,0,0,0,.01,0M15.1,47.55s-.01,0-.02,0c0,0,0,0,.02,0M15.08,47.53s-.02-.01-.03-.02c0,0,.02.01.03.02M15.04,47.51s-.02-.01-.03-.02c.01,0,.02.01.03.02M15,47.49s-.02-.01-.03-.02c0,0,.02.01.03.02M14.96,47.46s-.02-.01-.03-.02c0,0,.02.01.03.02M14.93,47.44s0,0-.01,0c0,0,0,0,.01,0M14.91,47.43s0,0-.01,0c0,0,0,0,.01,0M14.89,47.42s-.02-.01-.03-.02c0,0,.02.01.03.02M14.85,47.4s-.02-.01-.03-.02c0,0,.02.01.03.02M14.81,47.37s-.01,0-.02-.01c0,0,.01,0,.02.01M14.78,47.35s-.01,0-.02-.01c0,0,.01,0,.02.01M14.74,47.33s-.02-.01-.03-.02c0,0,.02.01.03.02M14.7,47.3s-.02-.01-.03-.02c0,0,.02.01.03.02M14.66,47.28s-.01,0-.02-.01c0,0,.01,0,.02.01M14.63,47.25s-.01,0-.02-.01c0,0,.01,0,.02.01M14.59,47.23s-.02-.01-.03-.02c0,0,.02.01.03.02M14.56,47.21s-.01-.01-.02-.01c0,0,.01,0,.02.01M14.52,47.18s-.01,0-.02-.01c0,0,.01,0,.02.01M14.48,47.16s-.01,0-.02-.01c0,0,.01,0,.02.01M14.45,47.14s-.01-.01-.02-.02c0,0,.01.01.02.02M14.41,47.11s-.01,0-.02-.01c0,0,.01,0,.02.01M14.37,47.09s0,0-.01,0c0,0,0,0,.01,0M14.33,47.06s0,0,0,0c0,0,0,0,0,0M14.33,47.06s0,0,0,0h0M14.3,47.04s-.01,0-.02-.01c0,0,.01,0,.02.01M14.27,47.01s-.01,0-.01,0c0,0,0,0,.01,0M14.23,46.99s0,0-.01,0c0,0,0,0,.01,0M14.19,46.96s0,0-.01,0c0,0,0,0,.01,0M14.16,46.94s-.01,0-.02-.01c0,0,.01,0,.02.01M14.12,46.92s0,0-.01,0c0,0,0,0,.01,0M14.09,46.89s0,0-.01,0c0,0,0,0,.01,0M14.05,46.86s0,0,0,0c0,0,0,0,0,0M14.02,46.84s0,0-.01,0c0,0,0,0,.01,0M13.99,46.82s0,0-.01,0c0,0,0,0,.01,0M13.95,46.79s0,0,0,0c0,0,0,0,0,0M13.9,46.76s0,0,0,0c0,0,0,0,0,0M13.88,46.74s0,0,0,0c0,0,0,0,0,0M13.88,46.74s0,0,0,0c0,0,0,0,0,0M13.85,46.71s0,0,0,0c0,0,0,0,0,0M13.81,46.69s0,0,0,0c0,0,0,0,0,0M13.78,46.67s0,0,0,0c0,0,0,0,0,0M13.78,46.66s0,0,0,0c0,0,0,0,0,0M13.75,46.64s0,0,0,0c0,0,0,0,0,0M13.74,46.64s0,0,0,0c0,0,0,0,0,0M13.71,46.61s0,0,0,0c0,0,0,0,0,0M13.68,46.58s0,0,0,0c0,0,0,0,0,0M13.65,46.56s0,0,0,0c0,0,0,0,0,0M13.61,46.54s0,0,0,0c0,0,0,0,0,0M13.58,46.51s0,0,0,0c0,0,0,0,0,0M13.54,46.48s0,0,0,0c0,0,0,0,0,0M13.54,46.48s0,0,0,0c0,0,0,0,0,0M13.52,46.46s0,0,0,0c0,0,0,0,0,0M13.48,46.43s0,0,0,0c0,0,0,0,0,0M13.45,46.4s0,0-.01,0c0,0,0,0,.01,0M13.41,46.38s0,0-.01,0c0,0,0,0,.01,0M13.39,46.35s0,0-.01,0c0,0,0,0,.01,0M13.35,46.33s0,0-.01,0c0,0,0,0,.01,0M13.32,46.3s0,0-.01,0c0,0,0,0,.01,0M13.29,46.28s-.01-.01-.02-.02c0,0,.01.01.02.02M13.26,46.25s0,0-.01-.01c0,0,0,0,.01.01M13.23,46.22s0,0-.01-.01c0,0,0,0,.01.01M13.19,46.19s0,0-.01-.01c0,0,0,0,.01.01M13.17,46.17s-.01-.01-.02-.02c0,0,.01.01.02.02M13.13,46.14s0,0-.01-.01c0,0,.01,0,.01.01M13.1,46.11s0,0-.01-.01c0,0,0,0,.01.01M13.07,46.09s-.01-.01-.02-.02c0,0,.01.01.02.02M13.04,46.06s-.01-.01-.02-.02c0,0,.01.01.02.02M13.01,46.03s-.01-.01-.02-.01c0,0,.01,0,.02.01M12.98,46.01s-.01-.01-.02-.01c0,0,.01,0,.02.01M12.95,45.98s-.01-.01-.02-.02c0,0,.01.01.02.02M12.92,45.95s-.01-.01-.02-.02c0,0,.01.01.02.02M12.89,45.93s-.01-.01-.02-.02c0,0,.01.01.02.02M12.86,45.9s-.01-.01-.02-.02c0,0,.01.01.02.02M12.83,45.87s-.02-.01-.02-.02c0,0,.02.01.02.02M12.8,45.84s-.02-.01-.02-.02c0,0,.02.01.02.02M12.77,45.82s-.02-.01-.02-.02c0,0,.01.01.02.02M12.74,45.79s-.02-.02-.03-.02c0,0,.02.02.03.02M12.71,45.76s-.02-.02-.03-.02c0,0,.02.01.03.02M12.68,45.73s-.02-.02-.03-.02c0,0,.02.02.03.02M12.65,45.71s-.02-.02-.03-.02c0,0,.02.02.03.02M12.62,45.68s-.02-.02-.03-.03c0,0,.02.02.03.03M12.59,45.65s-.02-.02-.03-.03c0,0,.02.02.03.03M12.56,45.62s-.04-.04-.06-.05c.02.02.04.04.06.05M12.51,45.57s-.02-.02-.03-.03c0,0,.02.02.03.03M12.48,45.54s-.02-.02-.03-.03c0,.01.02.02.03.03M12.45,45.51s-.06-.06-.1-.1c.03.03.06.06.1.1M12.36,45.41s-.09-.09-.14-.14c.04.05.09.1.14.14M12.22,45.27c-1.17-1.24-2.03-2.65-2.56-4.16.53,1.51,1.38,2.92,2.56,4.16M11.08,30.45c-2.16,3.32-2.63,7.22-1.42,10.66-1.21-3.44-.74-7.34,1.42-10.66h0Z"/>
        <g class="cls-2">
          <rect class="cls-5" x="3.81" y="30.19" width="16.18" height="17.76" transform="translate(-21.86 16.08) rotate(-38.8)"/>
        </g>
      </g>
      <g>
        <path class="cls-5" d="M2.38,28.47C.89,31.27.14,34.05.02,36.74v1.63c.33,7.14,5.04,13.47,11.93,17.42,0,0,.79-3.81,3.4-8.1-.01,0-.02-.01-.03-.02h0s-.02-.01-.03-.02c0,0,0,0,0,0-.01,0-.02-.01-.03-.02,0,0,0,0,0,0-.01,0-.02-.01-.03-.02,0,0,0,0,0,0-.01,0-.02-.01-.03-.02,0,0,0,0,0,0-.01,0-.02-.01-.03-.02,0,0,0,0,0,0-.01,0-.02-.01-.03-.02,0,0,0,0,0,0,0,0-.02-.01-.03-.02,0,0,0,0,0,0,0,0-.02-.01-.03-.02,0,0,0,0-.01,0-.01,0-.02-.01-.03-.02,0,0,0,0-.01,0,0,0-.02-.01-.03-.02,0,0,0,0-.01,0,0,0-.01,0-.02-.01,0,0,0,0-.01,0,0,0-.02-.01-.03-.02,0,0,0,0-.01,0,0,0-.02-.01-.03-.02,0,0,0,0-.01,0,0,0-.01,0-.02-.01,0,0-.01,0-.02-.01,0,0-.01,0-.02-.01,0,0,0,0-.01,0,0,0-.02-.01-.03-.02,0,0,0,0-.01,0,0,0-.02-.01-.03-.02,0,0,0,0-.01,0,0,0-.01,0-.02-.01,0,0-.01,0-.02-.01,0,0-.01,0-.02-.01,0,0,0,0-.01,0,0,0-.02-.01-.03-.02,0,0,0,0-.01,0,0,0-.01-.01-.02-.01,0,0-.01,0-.02-.01,0,0-.01,0-.02-.01,0,0-.01,0-.02-.01,0,0-.01,0-.02-.01,0,0-.01,0-.02,0,0,0-.01-.01-.02-.02,0,0,0,0-.01-.01,0,0-.01,0-.02-.01,0,0-.01-.01-.02-.02,0,0,0,0-.01,0,0,0-.02-.01-.02-.02,0,0,0,0-.01-.01,0,0-.01,0-.02-.01,0,0-.01,0-.02-.01,0,0-.01,0-.02-.01,0,0-.01,0-.01,0,0,0-.02-.01-.02-.02,0,0,0,0-.01,0,0,0-.02-.01-.02-.02,0,0,0,0-.01,0,0,0-.01,0-.02-.01,0,0-.01,0-.02-.01,0,0-.01-.01-.02-.01,0,0,0,0-.01,0,0,0-.02-.01-.03-.02,0,0,0,0-.01,0,0,0-.02-.01-.03-.02,0,0,0,0,0,0,0,0-.01,0-.02-.01,0,0,0,0-.01,0,0,0-.02-.01-.03-.02,0,0,0,0-.01,0,0,0-.02-.01-.03-.02,0,0,0,0,0,0-.01,0-.02-.02-.03-.02,0,0,0,0,0,0,0,0-.01,0-.02-.01,0,0,0,0,0,0,0,0-.02-.01-.03-.02,0,0,0,0,0,0,0,0-.02-.01-.03-.02,0,0,0,0,0,0,0,0-.01,0-.02-.01,0,0-.01,0-.02-.01,0,0-.01-.01-.02-.01,0,0,0,0,0,0,0,0-.02-.01-.03-.02,0,0,0,0,0,0,0,0-.02-.01-.03-.02,0,0,0,0,0,0,0,0-.01,0-.02-.01,0,0,0,0,0,0-.01,0-.02-.02-.03-.02,0,0,0,0,0,0,0,0-.02-.01-.03-.02,0,0,0,0,0,0,0,0-.02-.01-.03-.02,0,0,0,0,0,0,0,0-.01,0-.02-.01,0,0,0,0,0,0,0,0-.02-.01-.03-.02,0,0,0,0,0,0,0,0-.02-.01-.02-.02,0,0,0,0-.01,0,0,0-.01-.01-.02-.02,0,0,0,0-.01,0,0,0-.01,0-.02-.01,0,0,0,0-.01,0,0,0-.02-.01-.02-.02,0,0,0,0-.01,0,0,0-.01-.01-.02-.02,0,0,0,0-.01,0,0,0,0,0-.01-.01,0,0-.01-.01-.02-.02,0,0,0,0-.01-.01s0,0-.01-.01c0,0-.01-.01-.02-.02,0,0,0,0-.01-.01,0,0-.01-.01-.02-.02,0,0,0,0-.01-.01,0,0,0,0-.01-.01,0,0-.01-.01-.02-.02,0,0,0,0-.01-.01,0,0,0,0-.01-.01,0,0-.01,0-.02-.02,0,0,0,0-.01-.01,0,0,0,0-.01-.01,0,0-.01-.01-.02-.02,0,0,0,0-.01,0,0,0-.01-.01-.02-.02,0,0,0,0-.01,0,0,0-.01-.01-.02-.01,0,0-.01,0-.02-.01,0,0-.01-.01-.02-.01,0,0,0,0-.01,0,0,0-.01-.01-.02-.02,0,0,0,0,0,0,0,0-.01-.01-.02-.02,0,0,0,0,0,0,0,0-.01-.01-.02-.02,0,0,0,0-.01,0,0,0-.01-.01-.02-.02,0,0,0,0,0,0,0,0-.02-.01-.02-.02,0,0,0,0,0,0,0,0-.02-.01-.02-.02,0,0,0,0,0,0,0,0-.02-.01-.02-.02,0,0,0,0,0,0,0,0-.02-.02-.03-.02,0,0,0,0,0,0,0,0-.02-.02-.03-.02,0,0,0,0,0,0,0,0-.02-.02-.03-.02,0,0,0,0,0,0,0,0-.02-.02-.03-.02,0,0,0,0,0,0,0,0-.02-.02-.03-.03,0,0,0,0,0,0,0,0-.02-.02-.03-.03,0,0,0,0,0,0-.02-.02-.04-.04-.06-.05h0s-.02-.02-.03-.03c0,0,0,0,0,0,0,0-.02-.02-.03-.03-4.07-4.06-4.53-10.19-1.37-15.06l-8.38-2.57c-.11.19-.22.39-.32.59"/>
        <g class="cls-3">
          <rect class="cls-5" x="-7.03" y="26.15" width="29.44" height="31.36" transform="translate(-24.52 14.05) rotate(-38.8)"/>
        </g>
      </g>
    </g>
  </g>
</svg>