<?xml version="1.0" encoding="UTF-8"?>
<svg id="Calque_2" data-name="Calque 2" xmlns="http://www.w3.org/2000/svg" xmlns:xlink="http://www.w3.org/1999/xlink" viewBox="0 0 50.87 64.98">
  <defs>
    <style>
      .cls-1 {
        clip-path: url(#clippath-1);
      }

      .cls-2 {
        clip-path: url(#clippath-3);
      }

      .cls-3 {
        clip-path: url(#clippath-4);
      }

      .cls-4 {
        clip-path: url(#clippath-2);
      }

      .cls-5 {
        clip-path: url(#clippath-7);
      }

      .cls-6 {
        clip-path: url(#clippath-6);
      }

      .cls-7 {
        clip-path: url(#clippath-9);
      }

      .cls-8 {
        clip-path: url(#clippath-8);
      }

      .cls-9 {
        clip-path: url(#clippath-5);
      }

      .cls-10 {
        fill: #ed6f64;
      }

      .cls-11 {
        clip-path: url(#clippath);
      }
    </style>
    <clipPath id="clippath">
      <path class="cls-10" d="M20.54,0c-.52,0-1.04.1-1.48.39-.5.32-.88.89-1.02,1.46-1.4,5.74-1.23,4.07-2.27,9.63-.12.66-.14,1.19-.06,1.59.04.2.11.39.22.57.14.22.35.37.63.44.28.07.58.07.89,0,.45-.09.86-.3,1.24-.63.75-.68,1.41-1.62,1.98-2.83s1.16-2.69,1.76-4.43c.71.86,1.47,1.6,2.27,2.21,1.69,1.33,3.3,1.97,4.84,1.93.23,0,.42-.01.55-.04.4-.08.75-.24,1.04-.48.29-.24.46-.56.52-.96.03-.21.02-.43-.03-.65-.11-.53-.39-1.06-.85-1.61-.88-1.05-1.73-2.1-2.74-3.04-1.12-1.04-2.35-1.93-3.72-2.57-.84-.39-1.73-.69-2.68-.87-.33-.06-.68-.1-1.03-.11h-.06Z"/>
    </clipPath>
    <clipPath id="clippath-1">
      <path class="cls-10" d="M1,25.31c-.3.12-.54.38-.69.67-.15.29-.22.61-.26.94-.25,1.92.42,3.96,1.21,5.68.53,1.16,1.2,2.26,2,3.26.82,1.02,1.78,1.94,2.88,2.65,1.69,1.09,3.56,1.45,5.53,1.69.25.03.5.05.75.07-.52-2-.86-4.12-1.02-6.35,0-.15,0-.3-.02-.45-.36-.11-.72-.24-1.07-.41-1.06-.52-2-1.29-2.74-2.21-.78-.98-1.42-2.04-2.25-2.98-.79-.89-1.67-1.72-2.72-2.29-.35-.18-.74-.34-1.13-.34-.16,0-.32.03-.47.09"/>
    </clipPath>
    <clipPath id="clippath-2">
      <path class="cls-10" d="M45.64,11.17c-1.46,1.94-1.91,4.7-1.97,7.07-.02.73.01,1.45-.05,2.18,0,.1-.04.18-.06.28.51,1.22.97,2.52,1.32,3.94.31,1.39.52,2.85.66,4.35.48-.41.95-.84,1.38-1.3,1.95-2.1,3.29-4.74,3.75-7.58.5-3.05.23-7.43-2.44-9.48-.34-.26-.69-.38-1.02-.38-.59,0-1.14.37-1.57.93"/>
    </clipPath>
    <clipPath id="clippath-3">
      <path class="cls-10" d="M19.05,55.58c-2.44,2.24-6.26,3.47-7.12,7.08-.59,2.49,2.73,2.41,4.33,2.25.36-.04.71-.11,1.05-.22,3.95-1.29,7.15-4.14,8.83-7.95.19-.44.36-.9.52-1.37-2.24-.39-4.22-1.1-5.93-2.15-.43.87-.96,1.7-1.68,2.36"/>
    </clipPath>
    <clipPath id="clippath-4">
      <path class="cls-10" d="M39.79,51.41c-.41.48-.86.87-1.31,1.27-.1.39-.23.77-.34,1.16-.66,2.19-1.03,4.66-.67,6.95.09.57.23,1.17.51,1.68.22.39.57.72,1.01.82.3.07.61.02.9-.07,1.48-.44,2.77-1.76,3.51-3.07,2.4-4.23,2.53-9.28.42-13.65-.15-.31-.37-.6-.54-.91-.91,2.19-2.05,4.16-3.49,5.83"/>
    </clipPath>
    <clipPath id="clippath-5">
      <path class="cls-10" d="M11.4,33.9c.16,2.24.5,4.35,1.02,6.35.71.07,1.42.12,2.13.03.42-.05.82-.17,1.21-.31-.6-1.94-1-4.01-1.15-6.24,0-.09,0-.18,0-.28-.2.06-.39.13-.59.17-.83.18-1.7.11-2.52-.13-.04-.01-.07-.03-.11-.04,0,.15,0,.3.02.45"/>
    </clipPath>
    <clipPath id="clippath-6">
      <path class="cls-10" d="M42.87,22.74c-.2.35-.42.68-.65,1.01-.23.33-.52.62-.84.88.16.51.32,1.01.46,1.56.3,1.35.51,2.76.61,4.23.01.19,0,.39.02.58.01,0,.02,0,.04-.01,1.09-.53,2.1-1.22,3.03-2.01-.14-1.5-.34-2.95-.66-4.35-.35-1.42-.81-2.72-1.32-3.94-.1.73-.32,1.4-.69,2.05"/>
    </clipPath>
    <clipPath id="clippath-7">
      <path class="cls-10" d="M21.23,52.17c-.13.37-.33.7-.5,1.04,1.71,1.05,3.69,1.76,5.93,2.15.44-1.3.74-2.7.81-4.09-2.11-.31-3.95-.96-5.5-1.95-.28.94-.43,1.92-.75,2.85"/>
    </clipPath>
    <clipPath id="clippath-8">
      <path class="cls-10" d="M37.74,47.93c.77,1.34,1.04,2.74.85,4.28-.02.16-.07.31-.11.47.45-.4.9-.79,1.31-1.27,1.44-1.67,2.58-3.63,3.49-5.83-.66-1.16-1.44-2.24-2.39-3.17-.77,2.12-1.82,3.96-3.16,5.52"/>
    </clipPath>
    <clipPath id="clippath-9">
      <path class="cls-10" d="M25.2,38.57c-.9-1.1-1.35-2.32-1.36-3.66.03-.82.33-1.97.89-3.43.57-1.47,1.3-2.76,2.19-3.88.89-1.12,1.81-1.71,2.76-1.78.99-.07,1.89.47,2.7,1.63.53.74.84,1.82.94,3.24.1,1.37-.04,2.78-.42,4.2-.37,1.43-.96,2.64-1.75,3.62-.8.98-1.71,1.51-2.74,1.58-.09,0-.18,0-.27,0-1.13,0-2.12-.51-2.94-1.54M27.95,14.41c-1.92.13-3.77.69-5.55,1.65-1.78.97-3.33,2.31-4.65,4.04-1.32,1.73-2.25,3.75-2.79,6.07-.42,2.27-.53,4.7-.37,7.28,0,.09,0,.18,0,.28.16,2.23.55,4.3,1.15,6.24.68,2.2,1.62,4.24,2.87,6.08.92,1.34,2.04,2.43,3.36,3.28,1.55,1,3.39,1.64,5.5,1.95.71.11,1.45.19,2.23.21.25.02.63,0,1.16-.03,2.73-.19,5.01-1.35,6.85-3.48.01-.01.02-.03.03-.05,1.33-1.56,2.38-3.4,3.16-5.52.28-.77.53-1.56.73-2.4.73-2.99,1-6,.85-9.02,0-.19,0-.39-.02-.58-.1-1.47-.31-2.88-.61-4.23-.14-.54-.3-1.05-.46-1.56-.67-2.07-1.56-3.85-2.71-5.31-1.43-1.82-3.08-3.13-4.94-3.93-1.59-.68-3.22-1.02-4.9-1.02-.29,0-.59.01-.89.03"/>
    </clipPath>
  </defs>
  <g id="Calque_1-2" data-name="Calque 1">
    <g>
      <g>
        <path class="cls-10" d="M20.54,0c-.52,0-1.04.1-1.48.39-.5.32-.88.89-1.02,1.46-1.4,5.74-1.23,4.07-2.27,9.63-.12.66-.14,1.19-.06,1.59.04.2.11.39.22.57.14.22.35.37.63.44.28.07.58.07.89,0,.45-.09.86-.3,1.24-.63.75-.68,1.41-1.62,1.98-2.83s1.16-2.69,1.76-4.43c.71.86,1.47,1.6,2.27,2.21,1.69,1.33,3.3,1.97,4.84,1.93.23,0,.42-.01.55-.04.4-.08.75-.24,1.04-.48.29-.24.46-.56.52-.96.03-.21.02-.43-.03-.65-.11-.53-.39-1.06-.85-1.61-.88-1.05-1.73-2.1-2.74-3.04-1.12-1.04-2.35-1.93-3.72-2.57-.84-.39-1.73-.69-2.68-.87-.33-.06-.68-.1-1.03-.11h-.06Z"/>
        <g class="cls-11">
          <rect class="cls-10" x="14.55" y="-1.24" width="18.19" height="16.62" transform="translate(-.85 4.04) rotate(-9.6)"/>
        </g>
      </g>
      <g>
        <path class="cls-10" d="M1,25.31c-.3.12-.54.38-.69.67-.15.29-.22.61-.26.94-.25,1.92.42,3.96,1.21,5.68.53,1.16,1.2,2.26,2,3.26.82,1.02,1.78,1.94,2.88,2.65,1.69,1.09,3.56,1.45,5.53,1.69.25.03.5.05.75.07-.52-2-.86-4.12-1.02-6.35,0-.15,0-.3-.02-.45-.36-.11-.72-.24-1.07-.41-1.06-.52-2-1.29-2.74-2.21-.78-.98-1.42-2.04-2.25-2.98-.79-.89-1.67-1.72-2.72-2.29-.35-.18-.74-.34-1.13-.34-.16,0-.32.03-.47.09"/>
        <g class="cls-1">
          <rect class="cls-10" x="-1.36" y="24.27" width="14.94" height="16.93" transform="translate(-5.37 1.48) rotate(-9.6)"/>
        </g>
      </g>
      <g>
        <path class="cls-10" d="M45.64,11.17c-1.46,1.94-1.91,4.7-1.97,7.07-.02.73.01,1.45-.05,2.18,0,.1-.04.18-.06.28.51,1.22.97,2.52,1.32,3.94.31,1.39.52,2.85.66,4.35.48-.41.95-.84,1.38-1.3,1.95-2.1,3.29-4.74,3.75-7.58.5-3.05.23-7.43-2.44-9.48-.34-.26-.69-.38-1.02-.38-.59,0-1.14.37-1.57.93"/>
        <g class="cls-4">
          <rect class="cls-10" x="42.05" y="9.73" width="10.62" height="19.74" transform="translate(-2.61 8.17) rotate(-9.6)"/>
        </g>
      </g>
      <g>
        <path class="cls-10" d="M19.05,55.58c-2.44,2.24-6.26,3.47-7.12,7.08-.59,2.49,2.73,2.41,4.33,2.25.36-.04.71-.11,1.05-.22,3.95-1.29,7.15-4.14,8.83-7.95.19-.44.36-.9.52-1.37-2.24-.39-4.22-1.1-5.93-2.15-.43.87-.96,1.7-1.68,2.36"/>
        <g class="cls-2">
          <rect class="cls-10" x="10.45" y="52.02" width="17.1" height="14.32" transform="translate(-9.6 4) rotate(-9.6)"/>
        </g>
      </g>
      <g>
        <path class="cls-10" d="M39.79,51.41c-.41.48-.86.87-1.31,1.27-.1.39-.23.77-.34,1.16-.66,2.19-1.03,4.66-.67,6.95.09.57.23,1.17.51,1.68.22.39.57.72,1.01.82.3.07.61.02.9-.07,1.48-.44,2.77-1.76,3.51-3.07,2.4-4.23,2.53-9.28.42-13.65-.15-.31-.37-.6-.54-.91-.91,2.19-2.05,4.16-3.49,5.83"/>
        <g class="cls-3">
          <rect class="cls-10" x="35.69" y="44.97" width="11.67" height="18.99" transform="translate(-8.5 7.69) rotate(-9.6)"/>
        </g>
      </g>
      <g>
        <path class="cls-10" d="M11.4,33.9c.16,2.24.5,4.35,1.02,6.35.71.07,1.42.12,2.13.03.42-.05.82-.17,1.21-.31-.6-1.94-1-4.01-1.15-6.24,0-.09,0-.18,0-.28-.2.06-.39.13-.59.17-.83.18-1.7.11-2.52-.13-.04-.01-.07-.03-.11-.04,0,.15,0,.3.02.45"/>
        <g class="cls-9">
          <rect class="cls-10" x="10.83" y="33.13" width="5.46" height="7.56" transform="translate(-5.91 2.74) rotate(-9.5)"/>
        </g>
      </g>
      <path class="cls-10" d="M15.75,39.97c-.6-1.94-1-4.01-1.15-6.24,0-.1,0-.18,0-.28-.2.06-.39.13-.59.17-.83.17-1.7.1-2.52-.13-.04-.01-.07-.03-.11-.04,0,.15,0,.3.02.45.16,2.24.5,4.35,1.02,6.35.71.07,1.42.12,2.13.03.42-.05.81-.17,1.2-.31"/>
      <g>
        <path class="cls-10" d="M42.87,22.74c-.2.35-.42.68-.65,1.01-.23.33-.52.62-.84.88.16.51.32,1.01.46,1.56.3,1.35.51,2.76.61,4.23.01.19,0,.39.02.58.01,0,.02,0,.04-.01,1.09-.53,2.1-1.22,3.03-2.01-.14-1.5-.34-2.95-.66-4.35-.35-1.42-.81-2.72-1.32-3.94-.1.73-.32,1.4-.69,2.05"/>
        <g class="cls-6">
          <rect class="cls-10" x="40.56" y="20.42" width="5.79" height="10.85" transform="translate(-3.67 7.53) rotate(-9.5)"/>
        </g>
      </g>
      <path class="cls-10" d="M43.56,20.69c-.1.73-.32,1.4-.69,2.05-.19.35-.42.68-.65,1.01-.23.33-.52.62-.84.88.16.51.32,1.01.46,1.56.3,1.35.51,2.76.61,4.23.01.19,0,.39.02.58.01,0,.02,0,.04-.01,1.09-.53,2.1-1.22,3.03-2.01-.14-1.5-.34-2.95-.66-4.35-.35-1.42-.81-2.72-1.32-3.94"/>
      <g>
        <path class="cls-10" d="M21.23,52.17c-.13.37-.33.7-.5,1.04,1.71,1.05,3.69,1.76,5.93,2.15.44-1.3.74-2.7.81-4.09-2.11-.31-3.95-.96-5.5-1.95-.28.94-.43,1.92-.75,2.85"/>
        <g class="cls-5">
          <rect class="cls-10" x="20.28" y="48.81" width="7.65" height="7.07" transform="translate(-8.31 4.7) rotate(-9.5)"/>
        </g>
      </g>
      <path class="cls-10" d="M21.98,49.32c-.28.94-.43,1.92-.75,2.85-.13.37-.33.7-.5,1.04,1.71,1.05,3.69,1.76,5.93,2.15.44-1.3.74-2.7.81-4.09-2.11-.31-3.95-.96-5.5-1.95"/>
      <g>
        <path class="cls-10" d="M37.74,47.93c.77,1.34,1.04,2.74.85,4.28-.02.16-.07.31-.11.47.45-.4.9-.79,1.31-1.27,1.44-1.67,2.58-3.63,3.49-5.83-.66-1.16-1.44-2.24-2.39-3.17-.77,2.12-1.82,3.96-3.16,5.52"/>
        <g class="cls-8">
          <rect class="cls-10" x="36.93" y="42.03" width="7.16" height="11.04" transform="translate(-7.29 7.34) rotate(-9.5)"/>
        </g>
      </g>
      <path class="cls-10" d="M37.74,47.93c.77,1.34,1.04,2.74.85,4.28-.02.16-.07.31-.11.47.45-.4.9-.79,1.31-1.27,1.44-1.67,2.58-3.63,3.49-5.83-.66-1.16-1.44-2.24-2.39-3.17-.77,2.12-1.82,3.96-3.16,5.52"/>
      <g>
        <path class="cls-10" d="M25.2,38.57c-.9-1.1-1.35-2.32-1.36-3.66.03-.82.33-1.97.89-3.43.57-1.47,1.3-2.76,2.19-3.88.89-1.12,1.81-1.71,2.76-1.78.99-.07,1.89.47,2.7,1.63.53.74.84,1.82.94,3.24.1,1.37-.04,2.78-.42,4.2-.37,1.43-.96,2.64-1.75,3.62-.8.98-1.71,1.51-2.74,1.58-.09,0-.18,0-.27,0-1.13,0-2.12-.51-2.94-1.54M27.95,14.41c-1.92.13-3.77.69-5.55,1.65-1.78.97-3.33,2.31-4.65,4.04-1.32,1.73-2.25,3.75-2.79,6.07-.42,2.27-.53,4.7-.37,7.28,0,.09,0,.18,0,.28.16,2.23.55,4.3,1.15,6.24.68,2.2,1.62,4.24,2.87,6.08.92,1.34,2.04,2.43,3.36,3.28,1.55,1,3.39,1.64,5.5,1.95.71.11,1.45.19,2.23.21.25.02.63,0,1.16-.03,2.73-.19,5.01-1.35,6.85-3.48.01-.01.02-.03.03-.05,1.33-1.56,2.38-3.4,3.16-5.52.28-.77.53-1.56.73-2.4.73-2.99,1-6,.85-9.02,0-.19,0-.39-.02-.58-.1-1.47-.31-2.88-.61-4.23-.14-.54-.3-1.05-.46-1.56-.67-2.07-1.56-3.85-2.71-5.31-1.43-1.82-3.08-3.13-4.94-3.93-1.59-.68-3.22-1.02-4.9-1.02-.29,0-.59.01-.89.03"/>
        <g class="cls-7">
          <rect class="cls-10" x="11.54" y="12.28" width="33.99" height="41.31" transform="translate(-5.09 5.22) rotate(-9.6)"/>
        </g>
      </g>
    </g>
  </g>
</svg>