<?xml version="1.0" encoding="UTF-8"?>
<svg id="Calque_2" data-name="Calque 2" xmlns="http://www.w3.org/2000/svg" viewBox="0 0 110.28 86.75">
  <defs>
    <style>
      .cls-1 {
        fill: #ffcc03;
      }

      .cls-2 {
        fill: #fcbd0c;
      }
    </style>
  </defs>
  <g id="Calque_1-2" data-name="Calque 1">
    <path class="cls-1" d="M97.47,38.88c.79-2.76,1.52-5.54,2.32-8.3.37-1.28,1.67-4.57,1.71-5.61.02-.5-.36-1.85-.67-2.22-.38-.47-1.86-.8-2.46-1.04-.21-.08-.43-.03-.36-.37,2.12.72,3.54.97,3.77,3.62,2.03.11,4.61.8,6.17,2.15.12.1.17.17.27.27,2.37,2.35,2.46,5.26,1.48,8.32-.62,1.91-1.48,3.26-3.22,4.3-1.96,1.17-3.23,1.1-5.37.54-.79-.21-1.53-.57-2.35-.67-.07-.03-.07-.07-.07-.13,0-.02.11-.08.14-.13-.44-.11-1.39-.14-1.34-.72"/>
    <path class="cls-2" d="M25.24,19.73L29.67,2.14c.17-.03.39.04.54,0,.53-.13.99-.46,1.62-.21l41.88,12.77c1.71-.47,2.66-.28,4.3.19,1.77.5,3.6,1.19,5.37,1.75.58.18,1.17.35,1.75.54,1.35.43,2.69.91,4.03,1.34,2.94.96,5.93,1.82,8.86,2.82-.07.33.16.28.36.37.61.24,2.08.57,2.46,1.04.3.37.68,1.72.67,2.22-.03,1.04-1.34,4.33-1.71,5.61-.8,2.76-1.53,5.54-2.32,8.3-.05.58.9.61,1.34.72-.02.06-.13.11-.14.13-.29,0-1.29-.52-1.46-.39-.03.02-.1.37-.22.52-.21.26-.46.49-.73.68-1.02.7-1.92.61-3.09.4-2.38-.43-4.83-1.52-7.17-2.14-.47,1-.74,2.16-1.15,3.21-.26-.12-.06-.43,0-.61.12-.41.95-2.57.8-2.74l-7.17-2.15-.21.33-.4,1.41c.07-.28.37-1.73.26-1.87-2.01-.59-4.02-1.17-6.03-1.76.07-.33-.16-.28-.36-.37-.49-.2-1.01-.31-1.51-.44-.04-3.66-3.25-10.93-5.64-13.76-3.89-4.6-11.35-7.55-17.18-5.37-6.01,2.24-8.63,6.21-9.94,12.28l.25-1.87-10.99-3.3c-1.04-.03-1.45-1.61-1.89-1.87-.46-.27-1.92-.33-2.54-.48.41-.4,2.79.43,2.95.27"/>
    <path class="cls-1" d="M0,3.62c2.32.28,5.2,1.75,7.55,2.45,1.09.35,2.2.68,3.3.99.42.12.75.45.87.87.03.11.06.2.09.25,1.68,1.71,3.87-1.15,1.61-2.15-.91-.59-1.45,1-2.42.48-3.25-.69-6.82-2.53-10.06-3.37-1.96-.16.12-.99.93-1.13C6.51,1.18,11.34.83,15.91.13c4.84-.51,9.68.55,14.3,2.01-.94-.99-4.67,17.55-4.97,17.59C14.19,19.19,8.53,11.19.62,4.91c-.39-.31-.62-.79-.62-1.29Z"/>
    <path class="cls-1" d="M70.85,44.2c.2.04.42.08.7.09.83-.22,1.67-.13,2.52-.36.72-.19,1.14-.43,1.64-.98.95-1.06,1.81-3.31,2.15-4.7l.4-1.41.21-.33,7.17,2.15c.15.17-.68,2.34-.8,2.74-.05.18-.25.49,0,.61-1.58,4.05-3.44,6.87-7.65,8.46-3.02,1.14-5.9.99-9,.27-.11-.03-.31-.09-.54-.16,1.27-1.23,2.56-3.21,3.19-6.38"/>
    <path class="cls-1" d="M70.12,44.06c.27.04.48.1.73.15-.63,3.17-1.92,5.15-3.19,6.38-.7-.22-1.73-.56-1.92-.5,0,0-.02.02-.03.03,1.01-1.7,2.38-4.02,3.54-6.14.23.32.59.04.87.08"/>
    <path class="cls-1" d="M27.25,59.87c.15-3.01,1.01-6.37,2.48-9,.16-.28.78-1.41,1.01-1.47.15-.47.5-.75.81-1.07.04-.05.09-.09.13-.13.11-.37.42-.54.67-.81.04-.05.09-.09.13-.13.25-.26.47-.55.74-.81.25-.25.68-.66,1.01-.8.76-.68,1.57-1.34,2.43-1.92.47,1.63,1.41,3.51,3.19,5.47-1.99,1.25-3.49,3.05-4.15,5.45-.32,1.16-.51,2.01-.13,3.22.74,1.32,2.52,3.99,2.01,5.5-.3.9-1.27,1.14-2.15,1.07,0,.04,0,.09,0,.13,0,.04,0,.09,0,.13-.05,1.27.11,1.53-.54,2.69-1.03,1.84-3.06,2.34-4.83,1.07-1.84-1.32-2.65-3.72-2.82-5.91-.06-.8-.04-1.88,0-2.69"/>
    <path class="cls-1" d="M38.8,42.55c-.03-.07-.05-.15-.08-.22.96,1.73,2.13,3.81,3.29,5.78-.76.3-1.48.66-2.15,1.08-1.78-1.95-2.72-3.84-3.19-5.47.68-.45,1.39-.85,2.13-1.17"/>
    <path class="cls-1" d="M65.46,54.53c5.36,7.23,9.34,15.32,12.55,23.73.94-.44,1.83-1,2.82-1.34.18-.06.67-.26.81-.27.04,0,.09,0,.13,0,1.1-.29,2.25-.38,3.36-.07.77.21,1.53.8,1.74,1.55.48,1.72-.99,2.98-2.22,4.02-2.23,1.88-5.17,3.22-7.85,4.3-.61.24-1.93.04-2.28-.14-1.42-.82-1.59-2.23-2.15-3.63-1.08-2.73-2.09-5.48-3.22-8.19-.74-1.77-1.47-3.5-2.28-5.24-.91-1.94-1.9-3.84-2.82-5.77-1.1-1.9-2.26-3.76-3.46-5.59,1.92-.26,3.94-1.11,4.88-3.37"/>
    <path class="cls-1" d="M65.46,54.53c-.94,2.26-2.96,3.11-4.88,3.37-.63-.95-1.27-1.9-1.93-2.83,2.26-.43,4.86-3.05,4.86-3.05.67.83,1.32,1.67,1.95,2.52"/>
    <path class="cls-1" d="M46.99,34.43c0,.25.28.88.13,1.27.02.05.1.14.13.27.08.27.17.54.27.81,1.05,2.91,2.72,5.91,6.01,6.68.24.06.5,0,.72.02l.48.02h.07c.12,0,.24-.01.36-.04.99-.24,1.37-.13,2.35-.91,2.96-2.31,3.12-6.92,2.05-10.23-1.68-5.15-7.37-10.1-11.51-4-.22.64-.53,1.25-.71,1.91-.08.31-.36,1.42-.36,1.65v2.55ZM37.46,26.98c1.3-6.07,3.93-10.04,9.94-12.28,5.83-2.18,13.29.77,17.18,5.37,2.39,2.83,5.61,10.1,5.64,13.76.51.12,1.03.24,1.52.44.21.08.43.03.36.37-.53-.15-1.1-.44-1.62-.6-.43-.14-.13.69-.12.93.04,1.89-.09,3.71-.41,5.58-.09.51-.82,3.2-.74,3.35.02.03.03.06.05.09-1.16,2.11-2.53,4.44-3.54,6.14-.61.75-1.41,1.36-2.21,1.9,0,0-2.61,2.62-4.86,3.05-.24-.14-.86.07-1.18.11-1.27.14-2.47.17-3.76.13-.42-.01-1.04-.31-1.34,0,0,0-2.24-.2-5.64-2.15-.42-.58-1.64-1.51-2.22-2.15-.85-.94-1.65-1.93-2.41-2.94-.03.01-.06.02-.08.03-1.16-1.97-2.33-4.05-3.28-5.78-.93-2.64-1.65-5.43-1.8-8.24-.06-1.11-.06-2.52,0-3.63.04-.68.16-1.51.32-2.22.06-.25.1-.5.14-.75l.07-.52Z"/>
    <path class="cls-1" d="M32.15,77.99c.38-1.79,2.68-2.31,4.06-3.06,5.74-3.11,8.66-8.51,9.84-14.79.15-.78.27-1.56.36-2.35,1.34.88,3.27,1.26,5.96,0,0,.2,0,.4-.01.61-.35,8.39-4.53,16.62-11.68,21.15,1.44.98,3.01,2.19,3.49,3.96-.28.8.03,1.65-.74,2.28,0,0-.82,1.59-5,.68-.02,0-.05-.02-.07-.03-.74-.53-1.63-.86-2.37-1.4-1.86-1.34-4.36-4.64-3.85-7.04"/>
    <path class="cls-1" d="M46.41,57.79c.19-1.53.28-3.08.31-4.63,3.4,1.95,5.64,2.15,5.64,2.15-.02.82.02,1.66.01,2.48-2.69,1.26-4.62.88-5.96,0"/>
  </g>
</svg>