<?xml version="1.0" encoding="UTF-8"?>
<svg id="Calque_2" data-name="Calque 2" xmlns="http://www.w3.org/2000/svg" viewBox="0 0 79.06 99.95">
  <defs>
    <style>
      .cls-1 {
        fill: #2f5d9b;
      }
    </style>
  </defs>
  <g id="Calque_1-2" data-name="Calque 1">
    <g>
      <path class="cls-1" d="M21.23,59.48c-.95.38-2.07.62-3.35.54-4.65-.27-6.89-3.15-6.89-3.15,0,0-2.56-2.37-4.43,0-1.87,2.37-1.96,4.61.87,6.48,2.83,1.87,7.89,3.97,11.4,3.56,1.42-.17,2.71-.42,3.89-.78-1.48-1.66-1.6-4.67-1.5-6.65"/>
      <path class="cls-1" d="M79.06,39.58c-.05-2.87-.59-5.57-4.29-5.61-3.7-.05-2.56,5.88-2.56,5.88,0,0,0,4.88-4.33,8.26-1.87,1.46-3.98,2.18-5.77,2.54.83,1.25,2.05,3.56,2.25,6.5,5.13-1.21,8.48-3.89,11-6.66,3.24-3.56,3.74-8.03,3.69-10.9"/>
      <path class="cls-1" d="M56.36,75.36l.62.32c7.94,5.87,1.73,13.26,1.41,16.36-.32,3.1,6.84,4.61,8.9,4.79,2.05.18,4.2-.46,4.56-2.55.36-2.1-6.02-4.79-6.02-4.79,1.87-2.78,1.73-7.48,1.73-7.48-.08-5.49-3.85-9.21-6.92-11.33-.74,1.6-2.1,3.78-4.28,4.68"/>
      <path class="cls-1" d="M32.7,76.81c-3.01,6.81-8.94,10.04-8.94,10.04-1.73,2.6,1.5,9.58,2.56,11.77,1.05,2.19,5.38,1.55,5.98-.96.59-2.51-1.5-8.39-1.5-8.39,0,0,2.92-.91,6.52-6.52.77-1.2,1.38-2.49,1.87-3.79-2.82.18-5.04-1.01-6.48-2.14"/>
      <path class="cls-1" d="M33.36,19.87c-1.76.43-1.76,1.82-4.99,11.13,0,0-1.22,3.29,0,3.59,1.22.3,4.18.24,6.62-4.44,0,0,.44-1.28,1.9-.49,1.46.79,8.39,3.1,9.61,1.16,0,0,.85-1.22-.91-2.37-1.76-1.16-9.12-7.85-9.12-7.85,0,0-1.34-1.16-3.1-.73"/>
      <path class="cls-1" d="M20.42,10.69c.14,1.58,1.93,1.1,1.93,1.1,0,0,10.89-1.28,12.41-1.52,1.52-.24.97-1.28.97-1.28,0,0-.18-1.34-.31-2.56-.13-1.22-1.03-1.09-1.03-1.09,0,0-11.68,1.09-13.08,1.34-1.4.24-1.03,1.64-1.03,1.64l-.04.28s.04.51.18,2.1"/>
      <path class="cls-1" d="M16.58,20.73c1.41-1.41.21-1.79.21-1.79,0,0-1.01-.91-1.89-1.76-.88-.85-1.73-.04-1.73-.04,0,0-2.01,1.82-4.43,4.02,1.12,1.22,2.32,2.55,3.43,3.77,2.05-1.94,3.87-3.66,4.4-4.19"/>
      <path class="cls-1" d="M4.92,24.65c-2.08,1.91-3.87,3.55-4.33,4.03-1.29,1.31-.05,2.12-.05,2.12l.13.25s.36.37,1.48,1.5c1.12,1.14,2.65-.68,2.65-.68,0,0,1.63-1.52,3.68-3.45-1.18-1.25-2.43-2.58-3.55-3.77"/>
      <path class="cls-1" d="M12.65,32.81c1.41,1.41,1.79.21,1.79.21,0,0,.91-1.01,1.76-1.89.85-.88.04-1.72.04-1.72,0,0-1.84-2.04-4.06-4.48-1.23,1.16-2.54,2.39-3.71,3.5,1.93,2.05,3.65,3.86,4.18,4.39"/>
      <path class="cls-1" d="M4.7,16.81c-1.31-1.29-2.12-.05-2.12-.05l-.25.13s-.37.36-1.51,1.48c-1.13,1.12.68,2.65.68,2.65,0,0,1.5,1.6,3.41,3.63,1.24-1.14,2.59-2.36,3.83-3.49-1.91-2.09-3.56-3.88-4.04-4.35"/>
      <path class="cls-1" d="M12.18,24.93c-1.11-1.22-2.32-2.55-3.43-3.77-1.24,1.13-2.59,2.35-3.83,3.49,1.12,1.19,2.38,2.53,3.55,3.77,1.17-1.1,2.48-2.34,3.71-3.5"/>
      <path class="cls-1" d="M55.28,11.66s2.21.29,5,.64c.22-1.7.45-3.52.65-5.14-2.8-.4-5.2-.73-5.86-.78-1.83-.16-1.67,1.31-1.67,1.31l-.12.26s-.06.51-.22,2.1,2.21,1.61,2.21,1.61"/>
      <path class="cls-1" d="M71.38,13.68c1.99.19,1.51-.97,1.51-.97,0,0,.06-1.36.16-2.58.1-1.22-1.06-1.36-1.06-1.36,0,0-2.68-.4-5.92-.87-.23,1.64-.49,3.41-.73,5.05,2.8.35,5.29.66,6.04.73"/>
      <path class="cls-1" d="M59.55,18.32c-.19,1.99.97,1.51.97,1.51,0,0,1.36.06,2.58.16,1.22.1,1.36-1.06,1.36-1.06,0,0,.4-2.71.88-5.98-1.68-.21-3.46-.44-5.06-.64-.35,2.79-.66,5.27-.73,6.02"/>
      <path class="cls-1" d="M66.85,2.02c.16-1.83-1.31-1.67-1.31-1.67l-.26-.11s-.51-.06-2.1-.22-1.61,2.21-1.61,2.21c0,0-.28,2.18-.64,4.94,1.67.24,3.47.5,5.13.74.4-2.81.73-5.22.79-5.88"/>
      <path class="cls-1" d="M65.34,12.95c.24-1.64.49-3.41.73-5.05-1.66-.24-3.46-.5-5.13-.74-.21,1.62-.44,3.44-.65,5.14,1.6.2,3.38.43,5.06.64"/>
      <path class="cls-1" d="M24.61,57.01c-.55.65-1.69,1.79-3.38,2.47-.11,1.98.01,4.99,1.5,6.65,1.53-.46,2.88-1.07,4.1-1.86-1.08-2.08-1.87-4.49-2.22-7.26"/>
      <path class="cls-1" d="M59.27,50.97c.67,2.12,1.1,4.38,1.24,6.76,1.39-.1,2.67-.3,3.85-.58-.21-2.94-1.43-5.25-2.25-6.5-1.11.22-2.1.3-2.84.32"/>
      <path class="cls-1" d="M52.49,73.35l3.87,2.02c2.17-.9,3.54-3.09,4.28-4.68-1.2-.83-2.29-1.41-3.02-1.76-1.44,1.96-3.26,3.4-5.13,4.43"/>
      <path class="cls-1" d="M34.31,72.3c-.28.87-.61,1.86-1.01,3-.18.52-.38,1.02-.6,1.51,1.44,1.13,3.66,2.32,6.48,2.14.51-1.34.88-2.69,1.15-3.93-1.86-.54-3.97-1.42-6.03-2.73"/>
      <path class="cls-1" d="M46.25,63.9s-5.57,2.6-9.58-5.84c-4.01-8.44,2.87-11.59,2.87-11.59,0,0,5.38-1.55,8.99,5.11,4.9,9.06-2.28,12.32-2.28,12.32M60.53,58.24c0-.17-.02-.34-.03-.51-.14-2.38-.57-4.64-1.24-6.76-.15-.46-.3-.91-.47-1.35-3.34-8.89-10.94-14.77-18.43-14.28,0,0-15.83.69-15.97,18.11,0,.52,0,1.03.03,1.53.03.7.09,1.37.18,2.03.35,2.78,1.14,5.19,2.22,7.26.3.57.61,1.12.95,1.64,1.5,2.32,3.36,4.16,5.33,5.58.39.29.79.55,1.19.81,2.06,1.31,4.17,2.19,6.03,2.73,1.07.31,2.06.5,2.92.59.62.07,1.18.08,1.63.05,1.32-.1,3.11-.44,5.02-1.14.85-.32,1.72-.7,2.59-1.18,1.87-1.03,3.69-2.47,5.13-4.43.33-.46.65-.94.94-1.46,1.03-1.84,1.74-4.07,1.94-6.74.06-.78.07-1.61.04-2.47"/>
    </g>
  </g>
</svg>