<?xml version="1.0" encoding="UTF-8"?>
<svg id="Calque_2" data-name="Calque 2" xmlns="http://www.w3.org/2000/svg" viewBox="0 0 319.99 102.05">
  <defs>
    <style>
      .cls-1 {
        fill: #485aa4;
      }

      .cls-2 {
        fill: #ffcb00;
      }

      .cls-3 {
        fill: #ef8aac;
      }

      .cls-4 {
        fill: #89ceda;
      }

      .cls-5 {
        fill: #ec6d69;
      }
    </style>
  </defs>
  <g id="Calque_1-2" data-name="Calque 1">
    <g>
      <path class="cls-1" d="M88.86,41.63c-.29,0-.59.04-.9.13-1.61.46-2.92,1.6-3.94,3.42-1.02,1.82-1.75,3.94-2.2,6.35-.44,2.41-.67,4.82-.67,7.23,0,1.4.08,2.68.24,3.83.16,1.15.35,2.01.58,2.59.35.83.78,1.45,1.31,1.87.53.42,1.1.62,1.7.62.66,0,1.3-.25,1.92-.75.62-.5,1.11-1.22,1.48-2.15.38-.93.56-1.99.56-3.16.06-.35.09-.78.09-1.29l-.04-2.67c0-2.01.12-3.59.37-4.76.24-1.16.74-1.64,1.49-1.44.26.12.5.39.73.84.23.45.43.97.62,1.57.18.6.31,1.01.36,1.2.75,2.24,1.68,3.88,2.8,4.93,1.12,1.05,2.29,1.57,3.53,1.57,1.15,0,2.24-.39,3.29-1.16,1.04-.78,1.86-1.74,2.43-2.89.8-1.58,1.54-3.73,2.22-6.46.67-2.73,1.01-5.21,1.01-7.45,0-1.95-.31-3.5-.92-4.65-.62-1.15-1.63-1.72-3.03-1.72-1.26,0-2.22.38-2.86,1.14-.65.76-1.07,1.66-1.27,2.71-.2,1.05-.36,2.43-.47,4.15-.14,1.84-.33,3.18-.56,4.03-.23.85-.7,1.33-1.42,1.44-.49-.03-.93-.33-1.34-.9-.4-.57-.93-1.46-1.59-2.67-.92-1.78-1.78-3.14-2.58-4.09-.8-.95-1.78-1.42-2.93-1.42"/>
      <path class="cls-1" d="M111.98,52.32c.42,0,.84-.04,1.25-.13.01,0,.03,0,.04,0,.08,0,.15.05.18.12.04.08,0,.18-.07.23-4.03,2.82-6.08,6.04-6.08,9.57.22,1.8,1,3.17,2.3,4.03,1.32.88,3,1.32,5,1.32,1.78,0,3.59-.33,5.38-.98,1.79-.65,3.26-1.51,4.34-2.54,1.24-1.18,2.18-2.39,2.78-3.58.6-1.19.9-2.3.9-3.29s-.28-1.82-.85-2.45c-.57-.62-1.31-.92-2.27-.92-.45,0-.88.06-1.28.17-.8.22-1.79.73-2.93,1.52-1.17.81-2.55,1.83-4.1,3.05-.08.07-.2.05-.27-.03-.07-.08-.06-.2.02-.27,1.99-1.7,3.81-3.5,5.4-5.34,1.57-1.81,2.36-3.32,2.36-4.5,0-.6-.17-1.01-.52-1.26-.75-.53-2.1-.49-3.56-.08-.77.22-1.71.53-2.8.93-.23.08-.63.23-1.21.43-.1.04-.21-.02-.25-.11-.04-.1,0-.21.11-.25.93-.39,2.19-1.11,3.76-2.14,1.57-1.03,2.97-2.15,4.17-3.33,1.17-1.16,1.77-2.23,1.77-3.18,0-.32-.04-.49-.07-.57-.3-.88-1.04-1.3-2.28-1.3-1.4,0-3.14.51-5.18,1.53-2.06,1.02-3.97,2.31-5.68,3.83-1.71,1.51-2.81,2.95-3.28,4.29-.19.61-.29,1.25-.29,1.91,0,1.05.28,1.85.85,2.45.56.59,1.35.89,2.36.89"/>
      <path class="cls-1" d="M132.61,64.77c1.53,1.82,3.62,2.75,6.21,2.75l.73-.05c2.69-.19,5.01-1.17,6.88-2.89,1.87-1.73,3.3-3.98,4.23-6.68.93-2.7,1.41-5.61,1.41-8.65s-.5-6.19-1.49-8.93c-.33-.93-.83-1.65-1.48-2.13-1.24-.9-2.72-.92-3.92-.2-.57.34-1.01.81-1.3,1.4-.33.7-.57,1.44-.69,2.21-.13.79-.24,1.8-.32,2.97-.03.26-.04.84-.04,1.75-.09,3.34-.32,6.22-.69,8.58-.39,2.43-1.28,3.67-2.64,3.67-1.85,0-2.78-2.06-2.78-6.14,0-.73.03-1.48.09-2.21.05-.74.08-1.22.08-1.45.03-.62.11-1.43.22-2.39.2-1.52.3-2.8.3-3.81,0-1.72-.39-3.05-1.16-3.96-.71-.79-1.63-1.18-2.82-1.18-1.1,0-2.02.33-2.75.98-.82.71-1.39,2.31-1.68,4.74-.3,2.48-.45,4.77-.45,6.82-.03,2.68.26,5.37.86,8.03.59,2.64,1.68,4.92,3.23,6.76"/>
      <path class="cls-1" d="M163.11,44.54c.54-.66,1.18-1,1.9-1,.45,0,.84.16,1.15.47.31.31.47.74.47,1.28,0,.79-.37,1.69-1.12,2.74,0,0,0,0,0,0-.51.69-1.03,1.13-1.55,1.32-.13.02-.25.03-.35.03-.26,0-.46-.07-.61-.19-.44-.32-.67-.98-.67-1.96,0-1.13.27-2.03.8-2.68M161.88,61.86c0-.45-.01-.82-.04-1.05,0-.08.03-.15.09-.19.07-.04.15-.04.21,0,.39.27.78.61,1.19,1.04.39.41.77.84,1.13,1.28.84,1.04,1.63,1.84,2.33,2.38.68.51,1.54.78,2.55.78.76,0,1.43-.19,1.98-.57.56-.38,1.01-.88,1.34-1.48.41-.72.62-1.49.62-2.27,0-1.34-.63-2.6-1.87-3.73-1.27-1.16-2.86-2.15-4.72-2.93-.07-.03-.12-.1-.12-.18s.05-.15.12-.18c1.32-.56,2.49-1.36,3.49-2.39.99-1.02,1.74-2.26,2.21-3.69.34-1.01.51-2.1.51-3.25,0-1.27-.21-2.5-.61-3.66-.41-1.15-1-2.11-1.78-2.83-1.1-.99-2.41-1.5-3.87-1.5-1,0-1.96.21-2.85.63-.64.28-1.31.67-1.99,1.15-.04.03-.1.04-.15.03-.05-.01-.1-.04-.13-.09-.27-.43-.62-.77-1.05-1.01-.89-.5-1.92-.49-2.91.06-.52.29-1.02.74-1.49,1.35-1.04,1.35-1.82,3.33-2.33,5.9-.51,2.59-.77,5.43-.77,8.44,0,2.45.17,4.74.49,6.79.32,2.04.76,3.58,1.29,4.57.36.63.83,1.17,1.39,1.59.56.42,1.15.63,1.8.63.78,0,1.51-.27,2.15-.81.66-.55,1.13-1.24,1.4-2.07.25-.75.38-1.67.38-2.74"/>
      <path class="cls-1" d="M188.17,53.98c-.32.96-.78,1.76-1.38,2.4-.61.65-1.29.99-2.03.99-.9,0-1.65-.42-2.23-1.25-.57-.81-.83-1.69-.77-2.62.06-.57.31-1.33.77-2.31.45-.95,1.01-1.8,1.67-2.53.68-.74,1.37-1.12,2.06-1.12.73,0,1.36.44,1.89,1.3.33.54.5,1.32.5,2.3s-.16,1.89-.48,2.84M194.06,41.97c-1.04-1.53-2.29-2.68-3.74-3.42-2.83-1.46-6.13-1.47-9.13-.1-1.47.67-2.8,1.67-3.96,2.99-1.15,1.3-2.02,2.89-2.58,4.73-.48,1.85-.72,3.9-.72,6.1,0,3.85.86,7.28,2.56,10.19,1.68,2.89,4.57,4.56,8.59,4.98.2.03.51.04.93.04,2.17,0,4.08-.81,5.65-2.39,1.59-1.61,2.81-3.7,3.61-6.21.81-2.51,1.22-5.11,1.22-7.73,0-1.2-.09-2.36-.25-3.46-.39-2.25-1.12-4.17-2.16-5.71"/>
      <path class="cls-4" d="M213.94,50.42c-.74-.77-1.31-1.43-1.68-1.96-.36-.51-.54-1.04-.54-1.57,0-.76.45-1.51,1.34-2.21.32-.25.72-.46,1.18-.64l.58-.23c.16-.06.27-.11.33-.13.87-.27,1.57-.73,2.08-1.36.51-.63.77-1.34.77-2.1,0-.58-.16-1.13-.48-1.65-.32-.51-.8-.96-1.42-1.31-.57-.33-1.27-.5-2.08-.5-1.06,0-2.17.31-3.28.93-1.1.61-2.11,1.43-3,2.45-.89,1.01-1.53,2.12-1.91,3.29-.29.88-.44,1.73-.44,2.52,0,.94.19,1.78.56,2.5.37.7.91,1.49,1.59,2.35.66.86,1.16,1.61,1.49,2.23.33.63.54,1.35.62,2.13.03.66-.09,1.3-.35,1.9-.26.6-.62,1.1-1.09,1.48-.35.3-.78.54-1.26.72-.5.18-.79.29-.88.32-.84.29-1.53.6-2.03.9-.54.32-.96.82-1.26,1.48-.16.35-.23.77-.23,1.29,0,.62.14,1.23.4,1.8h0c.27.58.66,1.02,1.14,1.32,1.24.85,2.61,1.29,4.07,1.29,1.55,0,3.06-.44,4.49-1.32,1.42-.87,2.6-2.07,3.51-3.55.9-1.49,1.36-3.1,1.36-4.79,0-2.33-.9-4.56-2.67-6.62-.35-.44-.66-.77-.92-.96"/>
      <path class="cls-4" d="M235.49,53.46c-.45,0-.88.05-1.29.17-.8.22-1.79.73-2.93,1.52-1.17.81-2.55,1.84-4.1,3.05-.08.06-.2.05-.27-.03-.07-.08-.06-.2.02-.27,1.98-1.7,3.8-3.5,5.4-5.34,1.57-1.81,2.36-3.32,2.36-4.5,0-.6-.17-1.01-.52-1.26-.75-.53-2.1-.49-3.56-.08-.77.22-1.71.53-2.8.92-.23.08-.63.23-1.21.43-.1.04-.21-.02-.25-.11-.04-.1,0-.21.1-.25.93-.39,2.19-1.11,3.76-2.14,1.57-1.03,2.97-2.15,4.17-3.33,1.18-1.16,1.77-2.23,1.77-3.18,0-.32-.04-.49-.07-.58-.29-.87-1.04-1.29-2.27-1.29-1.4,0-3.14.51-5.18,1.53-2.05,1.02-3.97,2.31-5.68,3.83-1.71,1.51-2.81,2.95-3.28,4.29-.19.61-.29,1.25-.29,1.91,0,1.05.28,1.85.85,2.45.56.59,1.36.89,2.36.89.42,0,.84-.04,1.25-.13.01,0,.03,0,.04,0,.08,0,.15.05.18.12.04.08,0,.18-.07.24-4.03,2.82-6.08,6.04-6.08,9.57.22,1.8,1,3.17,2.3,4.03,1.32.88,3,1.32,5,1.32,1.77,0,3.58-.33,5.38-.98,1.8-.65,3.26-1.51,4.34-2.54,1.24-1.18,2.18-2.39,2.78-3.58.6-1.19.91-2.3.91-3.29s-.28-1.82-.86-2.45c-.57-.62-1.31-.92-2.27-.92"/>
      <path class="cls-4" d="M265.44,43.37c0-1.95-.31-3.5-.92-4.65-.62-1.14-1.63-1.72-3.03-1.72-1.26,0-2.22.38-2.86,1.14-.65.76-1.07,1.66-1.27,2.71-.2,1.05-.36,2.43-.47,4.15-.14,1.84-.33,3.18-.56,4.02-.23.85-.7,1.33-1.42,1.44-.49-.03-.93-.33-1.33-.9-.4-.57-.93-1.47-1.59-2.67-.92-1.78-1.78-3.14-2.58-4.09-.8-.95-1.78-1.42-2.93-1.42-.29,0-.59.04-.9.13-1.61.46-2.92,1.6-3.94,3.42-1.02,1.82-1.75,3.94-2.2,6.35-.27,1.49-.45,2.98-.56,4.47-.02.34-.05.67-.07,1.01,0,.06,0,.13,0,.19-.02.51-.04,1.02-.04,1.54v.02c0,1.4.08,2.68.24,3.83.16,1.15.35,2.01.58,2.59.35.83.78,1.45,1.31,1.87.53.42,1.1.62,1.7.62.66,0,1.3-.25,1.92-.75s1.11-1.22,1.48-2.15c.38-.93.56-1.99.56-3.16.06-.35.09-.78.09-1.29l-.05-2.67c0-2.01.12-3.59.37-4.76.24-1.16.74-1.64,1.48-1.44.26.12.5.39.73.84.23.44.43.97.62,1.57.19.6.31,1.01.36,1.21.75,2.24,1.68,3.88,2.8,4.93,1.12,1.05,2.3,1.57,3.53,1.57,1.15,0,2.24-.39,3.29-1.16,1.04-.78,1.86-1.74,2.43-2.89.8-1.58,1.54-3.73,2.22-6.46.67-2.73,1.01-5.21,1.01-7.45"/>
      <path class="cls-4" d="M273.95,44.69c.33-.25.72-.46,1.18-.64l.57-.23c.16-.06.28-.11.34-.14.87-.27,1.57-.73,2.08-1.36.51-.63.77-1.34.77-2.1,0-.58-.16-1.14-.48-1.65-.32-.52-.8-.96-1.42-1.31-.57-.33-1.27-.5-2.08-.5-1.06,0-2.17.31-3.28.93-1.1.61-2.11,1.43-3,2.45-.89,1.02-1.53,2.12-1.91,3.29-.29.88-.44,1.72-.44,2.52,0,.94.19,1.78.56,2.5.37.7.91,1.5,1.59,2.35.67.88,1.15,1.61,1.49,2.23.33.63.54,1.35.62,2.13.03.66-.09,1.3-.35,1.89-.26.6-.62,1.09-1.09,1.48-.36.3-.78.54-1.26.72-.5.18-.79.29-.88.32-.84.29-1.53.6-2.04.9-.54.32-.96.82-1.26,1.48-.15.35-.23.77-.23,1.28,0,.62.14,1.23.4,1.81h0c.27.58.66,1.02,1.14,1.32,1.23.85,2.6,1.29,4.07,1.29,1.55,0,3.06-.44,4.49-1.32,1.42-.87,2.6-2.07,3.51-3.55.9-1.49,1.36-3.1,1.36-4.79,0-2.33-.9-4.56-2.67-6.62-.35-.44-.67-.77-.92-.96-.75-.78-1.3-1.42-1.68-1.96-.36-.51-.54-1.04-.54-1.57,0-.76.45-1.51,1.34-2.21"/>
      <path class="cls-5" d="M317.86,49.71c-1.86-.78-4,.17-5.85,1.2-1.17.66-2.42,1.47-3.56,2.24-.65.44-2.57-.12-.99-1.8.72-.77,4.76-1.9,6.69-2.95,1.68-.92,2.95-1.8,3.88-2.68.65-.62,1.12-1.22,1.45-1.86.45-.88.61-1.82.46-2.7-.19-1.09-.86-1.95-1.83-2.36-1.64-.69-3.53.15-5.16,1.07-.49.28-1,.59-1.51.91.16-.83.27-1.57.33-2.23.09-1.09.05-1.98-.14-2.71-.42-1.63-1.49-2.22-2.09-2.42-.76-.26-1.96-.34-3.39.74-.66.5-1.35,1.24-2.04,2.18-.68.93-1.34,2.04-1.95,3.26-.81-.96-1.53-1.76-2.18-2.38-1.18-1.14-2.61-2.27-4.24-1.98-1.07.2-1.89.96-2.2,2.05-.24.84-.17,1.86.22,3.2.29.97.74,2.09,1.31,3.24,1.12,2.25,3.97,4.4,4.89,6.27.72,1.46.84,3.11-.45,1.75-1.25-1.33-2.24-2.53-3.19-3.43-1.01-.97-1.9-1.67-2.72-2.15-1.21-.71-2.31-.96-3.38-.77-1.45.25-2.56,1.3-3.05,2.87-.34,1.08-.22,2.26.35,3.49.35.76.87,1.54,1.6,2.41.83,1,6,6,6.9,6.83.63.59.49,5.47,3.1,8.68,2.11,2.6,4.33,2.04,4.85,1.9,5.06-1.38,2.17-7.71,3.07-8.07,1.91-.76,7.74-3.12,10.72-5.95.73-.7,1.27-1.38,1.64-2.1.51-.99.7-2.05.52-3.06-.21-1.23-.97-2.21-2.07-2.67"/>
      <path class="cls-3" d="M207.4,24.01c-.61-.14-1.25-.02-1.91.37-.32.19-.68.45-1.09.81-.66.58-1.37,1.33-2.13,2.12-.55.58-1.13,1.18-1.64,1.67-.02-.2-.03-.42-.05-.62-.05-.66-.1-1.35-.2-1.91-.06-.36-.13-.65-.23-.89-.2-.52-.53-.88-.99-1.09-.66-.31-1.44-.24-2.02.18-.4.28-.66.68-.8,1.23-.07.29-.12.62-.15,1.03-.04.67,0,1.52.09,2.53.19,1.93.6,4.17,1.08,5.83.25.86.51,1.57.78,2.09.18.35.37.63.57.85.48.52,1.01.68,1.37.72.21.02.46.03.73,0,.5-.06,1.1-.25,1.74-.71.5-.36.98-.86,1.48-1.51.8-1.05,1.47-2.32,1.96-3.25l.04-.08c.48-.9,1.19-2.5,1.8-4.08.3-.78.55-1.47.73-2.02.31-.98.34-1.36.28-1.68-.21-1.16-1.1-1.49-1.47-1.57"/>
      <path class="cls-2" d="M54.42,59.51c-.65,1.94-1.58,3.55-2.77,4.83-1.19,1.28-2.5,1.92-3.93,1.92-1.73,0-3.17-.81-4.29-2.42-1.14-1.61-1.65-3.33-1.52-5.18.12-1.14.64-2.69,1.57-4.65.92-1.97,2.06-3.68,3.4-5.15,1.34-1.46,2.66-2.19,3.98-2.19s2.56.84,3.57,2.5c.65,1.07.98,2.59.98,4.57s-.33,3.83-.98,5.77M67.39,34.47c-2.21-3.25-4.85-5.67-7.92-7.25-3.07-1.58-6.3-2.37-9.7-2.37s-6.49.71-9.62,2.15c-3.13,1.43-5.92,3.53-8.37,6.3-2.45,2.77-4.26,6.1-5.45,9.97-1.02,3.94-1.52,8.2-1.52,12.79,0,8.11,1.79,15.24,5.37,21.38,3.58,6.14,9.63,9.66,18.16,10.56.42.06,1.07.09,1.97.09,4.65,0,8.66-1.7,12.03-5.1,3.36-3.4,5.9-7.75,7.6-13.06,1.7-5.31,2.55-10.71,2.55-16.19,0-2.51-.18-4.92-.53-7.25-.84-4.77-2.36-8.78-4.57-12.03"/>
      <path class="cls-2" d="M25.9,28.24c.33-.28.55-.65.66-1.11.11-.46.06-.93-.14-1.42-.15-.35-.54-1-1.19-1.95-.65-.95-1.36-1.89-2.14-2.81-1.22-1.45-2.36-2.55-3.43-3.29-1.07-.74-1.92-.86-2.57-.35-.75.6-.82,1.64-.22,3.12.6,1.48,1.56,3,2.88,4.58.69.82,1.4,1.55,2.12,2.18.72.63,1.36,1.07,1.9,1.33.41.16.8.22,1.17.16.37-.05.69-.2.97-.43"/>
      <path class="cls-2" d="M75.79,28.24c.28.23.6.38.97.43.37.06.76,0,1.16-.16.54-.26,1.18-.7,1.9-1.33.72-.63,1.43-1.36,2.12-2.18,1.32-1.57,2.28-3.1,2.88-4.58.6-1.48.52-2.52-.23-3.12-.65-.51-1.5-.39-2.57.35-1.07.74-2.21,1.83-3.43,3.29-.78.93-1.49,1.87-2.14,2.81-.65.95-1.04,1.6-1.19,1.95-.2.49-.25.96-.15,1.42.1.46.32.83.66,1.11"/>
      <path class="cls-2" d="M10.04,51.08c.96.02,1.73-.05,2.31-.2.42-.14.75-.34,1-.62.25-.28.4-.6.47-.96.08-.43,0-.85-.21-1.27-.21-.42-.56-.75-1.02-.99-.34-.18-1.06-.42-2.17-.73-1.1-.31-2.25-.57-3.44-.78-1.87-.33-3.45-.43-4.74-.31-1.3.12-2.03.58-2.19,1.38-.19.94.42,1.78,1.83,2.53,1.41.75,3.13,1.3,5.15,1.65,1.06.19,2.06.29,3.02.31"/>
      <path class="cls-2" d="M17.11,72.35c-.43-.18-.91-.22-1.42-.1-.37.08-1.08.36-2.13.83-1.05.47-2.09,1.01-3.14,1.61-1.64.95-2.92,1.88-3.83,2.81-.92.92-1.18,1.75-.79,2.47.46.84,1.47,1.09,3.03.76,1.56-.33,3.23-1.01,5.01-2.04.93-.54,1.77-1.11,2.51-1.71.75-.6,1.29-1.15,1.64-1.64.23-.37.36-.75.36-1.12.01-.37-.08-.72-.26-1.03-.22-.38-.55-.66-.98-.84"/>
      <path class="cls-2" d="M78.32,72.35c.43-.18.91-.22,1.42-.1.37.08,1.08.36,2.13.83,1.05.47,2.09,1.01,3.14,1.61,1.64.95,2.92,1.88,3.83,2.81.92.92,1.18,1.75.79,2.47-.46.84-1.47,1.09-3.03.76-1.56-.33-3.23-1.01-5.01-2.04-.93-.54-1.77-1.11-2.51-1.71-.75-.6-1.29-1.15-1.64-1.64-.23-.37-.35-.75-.36-1.12,0-.37.08-.72.26-1.03.22-.38.54-.66.98-.84"/>
      <path class="cls-2" d="M37.59,89.38c-.23-.29-.52-.5-.86-.62-.41-.15-.84-.15-1.29-.01-.45.14-.84.42-1.16.84-.23.3-.6.97-1.1,2.01s-.95,2.12-1.37,3.25c-.65,1.78-1.03,3.32-1.13,4.61-.11,1.3.22,2.1.98,2.4.89.35,1.83-.11,2.81-1.36.98-1.26,1.82-2.85,2.52-4.78.37-1.01.64-1.98.83-2.92.19-.94.25-1.71.21-2.31-.06-.43-.21-.8-.44-1.09"/>
      <path class="cls-2" d="M64.43,91.07c-.46-.84-.91-1.47-1.33-1.9-.33-.29-.67-.48-1.04-.55-.36-.07-.72-.05-1.06.07-.41.15-.74.42-1,.82-.26.4-.37.86-.35,1.38.02.38.17,1.13.45,2.24.28,1.11.63,2.24,1.04,3.37.65,1.78,1.35,3.2,2.1,4.26.75,1.07,1.51,1.47,2.29,1.21.91-.31,1.33-1.26,1.28-2.85-.06-1.59-.44-3.36-1.14-5.29-.37-1.01-.78-1.93-1.25-2.77"/>
      <path class="cls-2" d="M41.16,20.88c.76,0,1.65-.38,2.68-1.15.89-.9,2.1-2.62,3.63-5.17,1.4-2.42,2.23-3.83,2.5-4.22-.13.26-.09,1.28.09,3.07.19,1.78.58,3.41,1.15,4.88.58,1.47,1.17,2.27,1.81,2.4.78.26,1.7.06,2.79-.58,1.08-.64,1.81-1.4,2.2-2.3.25-1.02.39-1.72.39-2.1,0-.9-.2-1.73-.58-2.49-.78-2.17-1.73-4.72-2.88-7.66-1.14-2.94-1.85-4.53-2.1-4.78-.51-.52-1.03-.77-1.53-.77-.39,0-.64.07-.76.19-1.54.26-3.49,2.3-5.85,6.13-2.37,3.83-4.26,7.47-5.66,10.92-.25,1.03-.16,1.89.3,2.59.44.7,1.04,1.05,1.82,1.05"/>
    </g>
  </g>
</svg>