<?xml version="1.0" encoding="UTF-8"?>
<svg id="Calque_2" data-name="Calque 2" xmlns="http://www.w3.org/2000/svg" viewBox="0 0 324 103.33">
  <defs>
    <style>
      .cls-1 {
        fill: #485aa4;
      }

      .cls-2 {
        fill: #ffcb00;
      }

      .cls-3 {
        fill: #ef8aac;
      }

      .cls-4 {
        fill: #89ceda;
      }

      .cls-5 {
        fill: #ec6d69;
      }
    </style>
  </defs>
  <g id="Calque_1-2" data-name="Calque 1">
    <g>
      <path class="cls-1" d="M89.97,37.24c-.29,0-.6.04-.91.13-1.63.46-2.96,1.62-3.99,3.46-1.03,1.84-1.77,3.99-2.22,6.43-.45,2.44-.67,4.89-.67,7.32,0,1.42.08,2.72.24,3.88.16,1.16.36,2.04.59,2.62.35.84.79,1.47,1.33,1.89.54.42,1.11.63,1.72.63.67,0,1.32-.25,1.94-.76.62-.51,1.13-1.23,1.5-2.18.38-.94.57-2.01.57-3.2.06-.35.09-.79.09-1.31l-.05-2.7c0-2.03.12-3.64.37-4.82.24-1.17.75-1.66,1.5-1.46.26.12.51.4.74.85.23.45.44.98.63,1.59.19.61.31,1.02.37,1.22.76,2.27,1.7,3.93,2.84,4.99,1.13,1.06,2.32,1.59,3.57,1.59,1.16,0,2.27-.39,3.33-1.17,1.06-.79,1.88-1.76,2.46-2.92.81-1.6,1.56-3.78,2.24-6.54.68-2.76,1.02-5.27,1.02-7.54,0-1.98-.31-3.54-.94-4.71-.62-1.16-1.65-1.74-3.07-1.74-1.28,0-2.24.38-2.9,1.15-.66.77-1.08,1.68-1.29,2.74-.2,1.06-.36,2.46-.48,4.21-.15,1.86-.33,3.22-.57,4.07-.23.86-.71,1.34-1.44,1.46-.5-.03-.94-.33-1.35-.91-.41-.58-.94-1.48-1.61-2.7-.93-1.8-1.8-3.18-2.61-4.14-.81-.96-1.8-1.44-2.97-1.44"/>
      <path class="cls-1" d="M113.38,48.07c.43,0,.85-.04,1.27-.13.01,0,.03,0,.04,0,.08,0,.15.05.18.12.04.08,0,.18-.07.24-4.08,2.85-6.15,6.11-6.15,9.69.22,1.83,1.01,3.21,2.33,4.08,1.34.89,3.04,1.34,5.06,1.34,1.8,0,3.63-.33,5.45-.99,1.82-.66,3.3-1.53,4.4-2.57,1.26-1.2,2.2-2.42,2.82-3.63.61-1.2.92-2.33.92-3.33s-.28-1.85-.87-2.48c-.58-.63-1.33-.94-2.29-.94-.45,0-.89.06-1.3.17-.81.22-1.81.74-2.97,1.54-1.18.82-2.58,1.85-4.15,3.08-.09.07-.21.05-.27-.03-.07-.08-.06-.2.02-.27,2.01-1.72,3.85-3.54,5.47-5.4,1.59-1.83,2.39-3.36,2.39-4.56,0-.61-.17-1.03-.53-1.28-.76-.54-2.12-.5-3.6-.08-.78.22-1.73.54-2.84.94-.23.08-.64.23-1.22.44-.1.04-.21-.02-.25-.11-.04-.1.01-.21.11-.25.94-.4,2.22-1.13,3.81-2.16,1.59-1.04,3.01-2.17,4.22-3.37,1.19-1.18,1.79-2.26,1.79-3.22,0-.33-.04-.5-.07-.58-.3-.89-1.05-1.31-2.3-1.31-1.42,0-3.18.52-5.25,1.55-2.08,1.03-4.02,2.34-5.75,3.87-1.73,1.52-2.84,2.98-3.32,4.34-.19.61-.29,1.27-.29,1.94,0,1.06.28,1.87.86,2.48.57.6,1.37.9,2.39.9"/>
      <path class="cls-1" d="M134.27,60.67c1.55,1.85,3.67,2.78,6.29,2.79l.73-.05c2.72-.2,5.07-1.18,6.96-2.93,1.9-1.75,3.34-4.03,4.28-6.77.95-2.74,1.43-5.68,1.43-8.76s-.51-6.26-1.51-9.04c-.33-.95-.84-1.67-1.5-2.15-1.25-.91-2.75-.93-3.97-.21-.58.34-1.02.82-1.32,1.42-.34.71-.58,1.46-.7,2.23-.13.81-.24,1.82-.33,3.01-.03.26-.04.85-.04,1.77-.09,3.38-.32,6.3-.7,8.68-.4,2.47-1.3,3.72-2.68,3.72-1.87,0-2.81-2.09-2.81-6.21,0-.74.03-1.49.09-2.23.06-.75.08-1.24.08-1.47.04-.63.11-1.44.22-2.42.2-1.54.3-2.84.3-3.86,0-1.74-.4-3.09-1.17-4.01-.72-.8-1.65-1.19-2.86-1.19-1.11,0-2.05.33-2.79,1-.83.72-1.4,2.33-1.7,4.8-.3,2.51-.46,4.84-.46,6.91-.03,2.71.27,5.44.87,8.13.6,2.67,1.7,4.98,3.27,6.85"/>
      <path class="cls-1" d="M165.15,40.18c.55-.67,1.19-1.01,1.92-1.01.46,0,.85.16,1.16.47.31.31.47.75.47,1.29,0,.8-.37,1.71-1.13,2.77,0,0,0,0,0,0-.51.69-1.04,1.14-1.57,1.33-.13.02-.25.03-.36.03-.26,0-.46-.07-.62-.2-.45-.32-.68-.99-.68-1.99,0-1.14.27-2.05.8-2.72M163.91,57.72c0-.46-.02-.83-.04-1.07,0-.08.03-.15.09-.19.07-.04.15-.04.21,0,.39.27.79.62,1.21,1.05.4.41.78.85,1.14,1.3.85,1.06,1.65,1.87,2.36,2.41.69.52,1.56.79,2.58.79.77,0,1.44-.19,2-.58.57-.39,1.02-.89,1.36-1.5.42-.73.63-1.5.63-2.3,0-1.36-.64-2.63-1.9-3.78-1.29-1.17-2.9-2.17-4.78-2.97-.07-.03-.12-.1-.12-.18s.05-.15.12-.18c1.34-.57,2.53-1.38,3.53-2.42,1-1.03,1.76-2.29,2.24-3.74.34-1.02.51-2.13.51-3.3,0-1.28-.21-2.53-.62-3.71-.41-1.17-1.02-2.13-1.8-2.86-1.12-1-2.43-1.51-3.92-1.51-1.01,0-1.98.21-2.88.63-.65.28-1.33.67-2.02,1.16-.04.03-.1.04-.15.03-.05-.01-.1-.04-.13-.09-.27-.44-.63-.78-1.06-1.02-.9-.51-1.94-.49-2.94.06-.53.29-1.03.75-1.51,1.36-1.05,1.36-1.84,3.38-2.36,5.98-.52,2.63-.78,5.5-.78,8.55,0,2.48.17,4.8.5,6.88.33,2.07.77,3.63,1.3,4.62.36.64.84,1.18,1.41,1.62.57.43,1.16.63,1.82.63.79,0,1.53-.28,2.18-.82.66-.55,1.14-1.26,1.42-2.09.25-.76.38-1.69.38-2.77"/>
      <path class="cls-1" d="M190.52,49.74c-.33.97-.79,1.78-1.39,2.43-.62.66-1.31,1-2.06,1-.91,0-1.67-.42-2.25-1.26-.58-.82-.84-1.71-.78-2.65.06-.58.32-1.34.78-2.34.45-.97,1.02-1.83,1.69-2.56.69-.75,1.39-1.13,2.08-1.13.74,0,1.38.44,1.91,1.32.34.55.51,1.33.51,2.33s-.16,1.91-.49,2.87M196.49,37.59c-1.05-1.55-2.32-2.71-3.78-3.47-2.87-1.48-6.21-1.49-9.24-.1-1.49.68-2.84,1.7-4.01,3.02-1.16,1.32-2.05,2.93-2.62,4.79-.49,1.87-.73,3.95-.73,6.17,0,3.9.87,7.37,2.59,10.32,1.7,2.92,4.63,4.62,8.7,5.05.2.03.51.04.94.04,2.2,0,4.13-.82,5.72-2.42,1.61-1.63,2.84-3.75,3.65-6.28.82-2.55,1.23-5.18,1.23-7.83,0-1.22-.09-2.39-.26-3.5-.4-2.28-1.14-4.23-2.19-5.78"/>
      <path class="cls-4" d="M216.62,46.14c-.75-.78-1.32-1.44-1.7-1.98-.37-.52-.55-1.05-.55-1.59,0-.77.46-1.53,1.36-2.24.33-.25.73-.47,1.2-.65l.59-.23c.16-.06.28-.11.33-.13.88-.27,1.58-.74,2.1-1.37.52-.64.78-1.36.78-2.13,0-.59-.16-1.15-.49-1.67-.32-.52-.81-.97-1.44-1.33-.58-.34-1.28-.51-2.1-.51-1.08,0-2.19.32-3.32.94-1.11.61-2.14,1.45-3.04,2.49-.9,1.03-1.55,2.15-1.93,3.33-.29.89-.45,1.75-.45,2.55,0,.95.19,1.81.57,2.53.38.71.92,1.51,1.61,2.38.66.87,1.17,1.63,1.51,2.26.34.64.55,1.37.63,2.16.03.67-.09,1.31-.35,1.92-.26.6-.63,1.11-1.1,1.5-.36.3-.79.55-1.27.73-.5.19-.8.29-.89.32-.85.3-1.55.6-2.06.91-.54.33-.97.83-1.28,1.5-.16.35-.24.78-.24,1.3,0,.63.14,1.25.41,1.83,0,0,0,0,0,0,.27.58.67,1.03,1.15,1.34,1.25.86,2.64,1.3,4.12,1.3,1.57,0,3.1-.45,4.55-1.34,1.44-.88,2.64-2.09,3.55-3.6.91-1.51,1.38-3.14,1.38-4.85,0-2.36-.91-4.62-2.7-6.7-.35-.44-.67-.77-.93-.98"/>
      <path class="cls-4" d="M238.43,49.22c-.45,0-.89.06-1.3.17-.81.22-1.81.74-2.97,1.54-1.19.82-2.58,1.86-4.15,3.09-.09.07-.2.05-.27-.03-.07-.08-.06-.2.02-.27,2.01-1.72,3.85-3.54,5.47-5.4,1.59-1.83,2.39-3.36,2.39-4.56,0-.61-.17-1.03-.53-1.28-.76-.54-2.12-.5-3.6-.08-.78.22-1.73.54-2.84.93-.23.08-.64.23-1.22.44-.11.04-.21-.01-.25-.11-.04-.1,0-.21.11-.25.94-.4,2.22-1.13,3.81-2.16,1.59-1.04,3.01-2.18,4.22-3.37,1.19-1.18,1.79-2.26,1.79-3.22,0-.33-.04-.5-.07-.58-.3-.89-1.05-1.31-2.3-1.31-1.42,0-3.18.52-5.25,1.55-2.08,1.03-4.02,2.34-5.75,3.87-1.73,1.52-2.85,2.98-3.33,4.34-.19.61-.29,1.27-.29,1.94,0,1.06.28,1.87.86,2.48.57.59,1.37.9,2.39.9.43,0,.85-.04,1.27-.13.01,0,.03,0,.04,0,.08,0,.15.05.18.12.04.09,0,.18-.07.24-4.08,2.85-6.15,6.11-6.15,9.69.22,1.83,1.01,3.21,2.33,4.08,1.34.89,3.04,1.34,5.06,1.34,1.8,0,3.63-.33,5.45-.99,1.82-.66,3.3-1.53,4.4-2.57,1.26-1.2,2.2-2.42,2.82-3.63.61-1.2.92-2.33.92-3.33s-.28-1.84-.87-2.48c-.58-.63-1.33-.93-2.29-.93"/>
      <path class="cls-4" d="M268.76,39c0-1.98-.31-3.54-.94-4.71-.62-1.16-1.65-1.74-3.07-1.74-1.28,0-2.24.38-2.9,1.15-.66.77-1.08,1.69-1.29,2.75-.2,1.06-.36,2.46-.48,4.21-.15,1.86-.33,3.22-.57,4.07-.23.86-.71,1.34-1.44,1.46-.5-.03-.94-.33-1.35-.91-.41-.58-.94-1.48-1.61-2.7-.93-1.8-1.8-3.18-2.61-4.14-.81-.96-1.8-1.44-2.96-1.44-.29,0-.6.04-.91.13-1.63.47-2.96,1.62-3.99,3.46-1.03,1.85-1.77,3.99-2.22,6.43-.28,1.51-.46,3.02-.57,4.53-.02.34-.05.68-.07,1.03,0,.06,0,.13,0,.19-.02.52-.03,1.04-.04,1.56v.02c0,1.42.08,2.72.24,3.88.16,1.16.36,2.04.59,2.62.35.84.79,1.47,1.33,1.89.54.42,1.11.63,1.72.63.67,0,1.32-.26,1.94-.76.62-.51,1.13-1.23,1.5-2.18.38-.94.57-2.01.57-3.2.06-.35.09-.79.09-1.31l-.05-2.7c0-2.03.12-3.64.37-4.82.24-1.17.75-1.66,1.5-1.46.26.12.51.4.74.85.23.45.44.98.63,1.59.19.61.31,1.02.37,1.22.76,2.27,1.7,3.93,2.83,4.99,1.13,1.06,2.32,1.59,3.58,1.59,1.16,0,2.27-.39,3.33-1.17,1.06-.79,1.88-1.76,2.46-2.92.81-1.6,1.56-3.78,2.24-6.54.68-2.76,1.02-5.27,1.02-7.54"/>
      <path class="cls-4" d="M277.38,40.33c.33-.25.73-.47,1.2-.65l.58-.23c.16-.06.28-.11.34-.14.88-.27,1.59-.74,2.1-1.37.52-.64.78-1.36.78-2.13,0-.59-.16-1.15-.49-1.67-.32-.52-.81-.97-1.44-1.33-.58-.34-1.28-.51-2.1-.51-1.08,0-2.19.32-3.32.94-1.11.61-2.14,1.45-3.04,2.49-.9,1.03-1.55,2.15-1.93,3.33-.3.89-.45,1.74-.45,2.55,0,.95.19,1.81.57,2.53.38.71.92,1.52,1.61,2.38.68.89,1.17,1.62,1.51,2.26.34.64.55,1.37.63,2.16.03.67-.09,1.31-.35,1.92-.26.6-.63,1.11-1.1,1.5-.36.31-.79.55-1.27.73-.5.19-.8.29-.89.32-.85.3-1.55.6-2.06.91-.54.33-.97.83-1.28,1.5-.16.35-.23.78-.23,1.3,0,.63.14,1.25.41,1.83h0c.28.58.67,1.03,1.15,1.34,1.25.86,2.64,1.3,4.12,1.3,1.57,0,3.1-.45,4.55-1.34,1.44-.88,2.64-2.09,3.55-3.59.91-1.51,1.38-3.14,1.38-4.85,0-2.36-.91-4.62-2.7-6.7-.36-.44-.67-.78-.93-.98-.76-.79-1.32-1.44-1.71-1.98-.37-.52-.55-1.05-.55-1.59,0-.77.46-1.53,1.36-2.24"/>
      <path class="cls-5" d="M321.84,58.81c-1.88-.79-4.05.17-5.92,1.21-1.19.66-2.45,1.49-3.6,2.27-.66.44-2.6-.12-1.01-1.82.73-.78,4.82-1.92,6.77-2.99,1.7-.93,2.99-1.82,3.93-2.72.66-.62,1.14-1.24,1.47-1.88.46-.89.62-1.84.46-2.74-.19-1.1-.87-1.97-1.86-2.39-1.66-.7-3.57.15-5.22,1.08-.5.28-1.02.59-1.53.92.16-.84.28-1.59.33-2.26.1-1.11.05-2-.14-2.74-.43-1.65-1.51-2.25-2.11-2.45-.77-.26-1.99-.35-3.43.75-.67.51-1.36,1.25-2.06,2.21-.68.94-1.35,2.06-1.98,3.3-.82-.98-1.55-1.78-2.2-2.41-1.2-1.16-2.65-2.3-4.29-2-1.08.2-1.91.97-2.23,2.07-.24.86-.17,1.88.22,3.24.29.98.75,2.12,1.33,3.28,1.14,2.28,4.02,4.45,4.95,6.35.72,1.48.85,3.15-.45,1.77-1.27-1.34-2.27-2.56-3.23-3.48-1.03-.98-1.93-1.69-2.75-2.18-1.22-.72-2.34-.97-3.42-.79-1.47.26-2.59,1.32-3.09,2.91-.34,1.1-.22,2.28.36,3.54.35.76.88,1.56,1.62,2.44.84,1.01,6.08,6.07,6.98,6.92.64.59.5,5.54,3.14,8.79,2.14,2.64,4.39,2.07,4.91,1.93,5.12-1.4,2.2-7.81,3.1-8.17,1.94-.77,7.83-3.15,10.86-6.02.74-.7,1.29-1.4,1.66-2.13.52-1.01.7-2.08.53-3.1-.22-1.25-.98-2.23-2.1-2.7"/>
      <path class="cls-3" d="M210,19.4c-.62-.14-1.27-.02-1.93.37-.33.19-.69.46-1.1.82-.66.59-1.39,1.35-2.15,2.15-.56.59-1.14,1.2-1.66,1.69-.02-.21-.03-.42-.05-.63-.05-.67-.11-1.36-.2-1.93-.06-.36-.14-.65-.23-.9-.2-.52-.54-.89-1-1.11-.67-.31-1.45-.24-2.05.18-.4.29-.67.69-.81,1.24-.08.29-.12.63-.15,1.05-.04.68,0,1.54.09,2.56.19,1.96.61,4.22,1.09,5.9.25.88.52,1.59.79,2.12.18.35.37.63.58.86.48.52,1.02.68,1.39.73.21.03.46.03.74,0,.51-.06,1.12-.26,1.76-.72.51-.37,1-.87,1.5-1.53.81-1.07,1.49-2.35,1.99-3.29l.04-.08c.49-.91,1.2-2.54,1.82-4.14.31-.79.56-1.49.74-2.04.32-.99.34-1.38.29-1.7-.21-1.18-1.11-1.51-1.49-1.59"/>
      <path class="cls-1" d="M88.24,86.39c2.75,0,4.27-1.63,4.81-2.41l-1.57-1.65c-.51.71-1.57,1.76-3.16,1.76-1.83,0-3.54-1.16-3.54-4.01,0-2.51,1.4-4.01,3.18-4.01s2.55,1.54,2.55,2.68l2.45-.37c0-1.98-1.33-4.61-5.04-4.61-3.39,0-5.82,2.45-5.82,6.31s2.47,6.31,6.14,6.31"/>
      <polygon class="cls-1" points="103.02 84.07 97.5 84.07 97.5 81.02 102.29 81.02 102.29 78.94 97.5 78.94 97.5 76.1 103.02 76.1 103.02 73.91 94.84 73.91 94.84 86.26 103.02 86.26 103.02 84.07"/>
      <path class="cls-1" d="M107.71,80.29c0-.99-.02-1.95-.09-2.23l.11-.06c.3.49.94,1.55,1.42,2.3l3.99,5.95h2.53v-12.35h-2.58l.02,6.23c0,1.03.06,1.96.11,2.3l-.11.06c-.21-.38-.77-1.38-1.4-2.34l-4.17-6.25h-2.36v12.35h2.56l-.02-5.97Z"/>
      <polygon class="cls-1" points="120.94 86.26 123.6 86.26 123.6 76.1 127.36 76.1 127.36 73.91 117.18 73.91 117.18 76.1 120.94 76.1 120.94 86.26"/>
      <path class="cls-1" d="M131.55,80.16v-4.15h1.38c1.57,0,2.47.71,2.47,2.1s-1.09,2.06-2.68,2.06h-1.18ZM137.63,86.39c.88,0,1.37-.13,1.37-.13l-.17-2.04q-.17.04-.37.04c-1.55,0-1.59-2.08-2.92-2.7,1.57-.6,2.49-1.76,2.49-3.48,0-2.9-1.72-4.17-4.94-4.17h-4.19v12.35h2.66v-4.23h.56c2.79,0,1.76,4.36,5.52,4.36"/>
      <polygon class="cls-1" points="148.78 84.07 143.26 84.07 143.26 81.02 148.05 81.02 148.05 78.94 143.26 78.94 143.26 76.1 148.78 76.1 148.78 73.91 140.6 73.91 140.6 86.26 148.78 86.26 148.78 84.07"/>
      <path class="cls-1" d="M157.39,84.14v-8.12h1.33c2.45,0,3.84,1.31,3.84,4.04,0,2.92-1.27,4.08-3.26,4.08h-1.91ZM165.25,80.06c0-3.72-2.19-6.16-6.21-6.16h-4.3v12.35h4.89c3.56,0,5.63-2.13,5.63-6.2"/>
      <polygon class="cls-1" points="175.44 84.07 169.92 84.07 169.92 81.02 174.71 81.02 174.71 78.94 169.92 78.94 169.92 76.1 175.44 76.1 175.44 73.91 167.26 73.91 167.26 86.26 175.44 86.26 175.44 84.07"/>
      <polygon class="cls-1" points="181.39 86.26 184.05 86.26 184.05 81.28 188.65 81.28 188.65 79.13 184.05 79.13 184.05 76.09 189.38 76.09 189.38 73.91 181.39 73.91 181.39 86.26"/>
      <path class="cls-1" d="M196.38,84.07c-1.93,0-3.33-1.48-3.33-4.01s1.4-3.99,3.33-3.99,3.31,1.48,3.31,3.99-1.39,4.01-3.31,4.01M196.38,73.77c-3.54,0-6.03,2.43-6.03,6.29s2.49,6.33,6.03,6.33,6.01-2.43,6.01-6.33-2.47-6.29-6.01-6.29"/>
      <path class="cls-1" d="M208.22,80.16h-1.18v-4.15h1.39c1.57,0,2.47.71,2.47,2.1s-1.09,2.06-2.68,2.06M213.95,84.26c-1.55,0-1.59-2.08-2.92-2.7,1.57-.6,2.49-1.76,2.49-3.48,0-2.9-1.72-4.17-4.94-4.17h-4.19v12.35h2.66v-4.23h.56c2.79,0,1.76,4.36,5.52,4.36.88,0,1.37-.13,1.37-.13l-.17-2.04q-.17.04-.37.04"/>
      <path class="cls-1" d="M223.73,80.44c-.35.8-.81,1.91-.86,2.19h-.07c-.08-.28-.51-1.39-.86-2.17l-3.01-6.55h-2.83v12.35h2.6l-.02-6.51c0-.54-.06-1.37-.09-1.48l.09-.02c.02.09.17.64.36,1.09l3.05,7h1.42l2.98-6.93c.15-.32.35-1.01.39-1.16l.08.02c-.02.11-.08.92-.08,1.48l-.02,6.51h2.62v-12.35h-2.77l-2.98,6.53Z"/>
      <path class="cls-1" d="M235.07,81.62l1.18-3.65c.13-.41.3-.95.38-1.42h.06c.09.47.24,1.01.37,1.4l1.2,3.67h-3.18ZM235.21,73.91l-4.38,12.35h2.72l.86-2.64h4.47l.86,2.64h2.7l-4.36-12.35h-2.86Z"/>
      <polygon class="cls-1" points="241.54 76.1 245.3 76.1 245.3 86.26 247.96 86.26 247.96 76.1 251.72 76.1 251.72 73.91 241.54 73.91 241.54 76.1"/>
      <rect class="cls-1" x="253.25" y="73.91" width="2.6" height="12.35"/>
      <path class="cls-1" d="M263.88,84.07c-1.93,0-3.33-1.48-3.33-4.01s1.4-3.99,3.33-3.99,3.31,1.48,3.31,3.99-1.39,4.01-3.31,4.01M263.88,73.77c-3.54,0-6.03,2.43-6.03,6.29s2.49,6.33,6.03,6.33,6.01-2.43,6.01-6.33-2.47-6.29-6.01-6.29"/>
      <path class="cls-1" d="M279.8,73.91l.02,6.23c0,1.03.06,1.97.11,2.3l-.11.06c-.2-.38-.77-1.39-1.4-2.34l-4.17-6.25h-2.36v12.35h2.56l-.02-5.97c0-.99-.02-1.94-.09-2.23l.11-.06c.3.49.94,1.55,1.42,2.3l3.99,5.95h2.53v-12.35h-2.58Z"/>
      <path class="cls-2" d="M55.1,60.26c-.66,1.97-1.6,3.6-2.81,4.9-1.21,1.3-2.54,1.95-3.98,1.95-1.75,0-3.21-.82-4.35-2.45-1.15-1.63-1.67-3.38-1.54-5.25.12-1.15.65-2.72,1.58-4.71.94-2,2.09-3.73,3.44-5.21,1.36-1.48,2.7-2.22,4.03-2.22s2.6.85,3.62,2.54c.66,1.08.99,2.62.99,4.62s-.33,3.88-.99,5.84M68.24,34.9c-2.23-3.3-4.91-5.74-8.02-7.34-3.11-1.6-6.38-2.39-9.83-2.39s-6.57.72-9.74,2.17c-3.17,1.44-5.99,3.57-8.47,6.38-2.48,2.81-4.31,6.18-5.52,10.1-1.03,3.99-1.54,8.3-1.54,12.95,0,8.21,1.81,15.43,5.43,21.65,3.63,6.22,9.75,9.78,18.39,10.69.42.06,1.08.09,1.99.09,4.71,0,8.77-1.72,12.18-5.16,3.41-3.44,5.98-7.85,7.7-13.22,1.73-5.37,2.58-10.84,2.58-16.39,0-2.54-.18-4.98-.54-7.34-.85-4.83-2.39-8.89-4.62-12.18"/>
      <path class="cls-2" d="M26.22,28.59c.34-.28.56-.66.66-1.12.11-.46.06-.95-.15-1.44-.15-.36-.55-1.02-1.2-1.98-.65-.96-1.37-1.91-2.16-2.85-1.23-1.47-2.39-2.58-3.47-3.33-1.08-.75-1.95-.87-2.6-.35-.76.61-.83,1.66-.23,3.16.61,1.5,1.58,3.04,2.92,4.63.7.83,1.41,1.57,2.15,2.21.73.64,1.37,1.09,1.92,1.35.41.17.81.22,1.18.16.37-.05.7-.2.99-.44"/>
      <path class="cls-2" d="M76.74,28.59c.28.24.61.39.98.44.37.06.77,0,1.18-.16.55-.26,1.19-.71,1.92-1.35.73-.64,1.45-1.37,2.15-2.21,1.34-1.59,2.31-3.14,2.92-4.63.6-1.5.53-2.55-.23-3.16-.65-.51-1.52-.4-2.6.35-1.08.75-2.24,1.86-3.47,3.33-.79.94-1.51,1.89-2.16,2.85-.65.96-1.06,1.62-1.2,1.98-.2.49-.25.97-.15,1.44.11.46.33.84.66,1.12"/>
      <path class="cls-2" d="M10.16,51.72c.97.02,1.75-.05,2.34-.2.42-.14.76-.35,1.01-.63.25-.28.41-.61.47-.97.08-.43,0-.86-.21-1.29-.22-.42-.56-.76-1.04-1.01-.34-.18-1.07-.42-2.19-.74-1.12-.32-2.28-.58-3.49-.79-1.89-.33-3.49-.44-4.8-.32-1.31.12-2.05.59-2.22,1.4-.19.95.43,1.81,1.85,2.56,1.43.76,3.16,1.31,5.21,1.67,1.07.19,2.09.29,3.06.31"/>
      <path class="cls-2" d="M17.32,73.26c-.44-.19-.92-.22-1.44-.11-.38.09-1.1.37-2.15.84-1.06.48-2.12,1.02-3.18,1.63-1.66.96-2.95,1.91-3.88,2.84-.93.93-1.19,1.77-.8,2.5.46.85,1.49,1.11,3.07.77,1.58-.34,3.27-1.03,5.07-2.07.94-.54,1.79-1.12,2.55-1.73.76-.61,1.31-1.16,1.66-1.66.23-.38.36-.76.36-1.13.01-.38-.08-.73-.26-1.05-.22-.38-.55-.66-.99-.85"/>
      <path class="cls-2" d="M38.06,90.5c-.23-.3-.53-.51-.88-.63-.41-.15-.85-.15-1.31-.01-.45.14-.85.42-1.17.85-.23.31-.6.98-1.11,2.03-.5,1.05-.97,2.14-1.39,3.3-.66,1.8-1.04,3.36-1.15,4.67-.11,1.31.22,2.12,1,2.43.9.35,1.85-.11,2.85-1.38.99-1.27,1.84-2.89,2.55-4.84.37-1.02.65-2.01.84-2.96.19-.95.26-1.73.21-2.34-.06-.44-.21-.81-.45-1.1"/>
      <path class="cls-2" d="M65.24,92.21c-.47-.85-.92-1.49-1.35-1.93-.33-.3-.68-.49-1.05-.56-.37-.07-.73-.05-1.08.08-.41.15-.75.43-1.01.83-.26.4-.38.87-.35,1.4.02.39.17,1.14.46,2.27.29,1.13.64,2.26,1.06,3.42.66,1.8,1.37,3.24,2.13,4.31.76,1.08,1.53,1.48,2.32,1.22.92-.31,1.35-1.27,1.29-2.89-.06-1.61-.44-3.4-1.15-5.35-.37-1.02-.79-1.96-1.26-2.81"/>
      <path class="cls-2" d="M41.67,21.14c.77,0,1.67-.39,2.71-1.16.9-.91,2.13-2.65,3.68-5.24,1.42-2.45,2.26-3.87,2.52-4.27-.13.26-.1,1.3.09,3.11.19,1.81.58,3.46,1.17,4.94.58,1.49,1.18,2.3,1.83,2.43.79.26,1.72.06,2.82-.58,1.09-.65,1.83-1.42,2.22-2.33.25-1.03.4-1.74.4-2.13,0-.91-.21-1.75-.58-2.53-.79-2.19-1.75-4.78-2.92-7.76-1.15-2.98-1.88-4.58-2.13-4.85-.52-.52-1.04-.78-1.55-.78-.39,0-.65.07-.77.2-1.56.26-3.54,2.33-5.92,6.2-2.4,3.88-4.31,7.57-5.73,11.05-.25,1.04-.16,1.91.3,2.62.44.71,1.06,1.07,1.85,1.07"/>
    </g>
  </g>
</svg>