<?xml version="1.0" encoding="UTF-8"?>
<svg id="Calque_2" data-name="Calque 2" xmlns="http://www.w3.org/2000/svg" viewBox="0 0 61.78 65.96">
  <defs>
    <style>
      .cls-1 {
        fill: #ef7d5b;
      }
    </style>
  </defs>
  <g id="Calque_1-2" data-name="Calque 1">
    <path class="cls-1" d="M19.01,27.03c-1.58-7.46-14.49-14.17-11.2-22.51C9.5.21,14.71-1.04,18.68.86c8.24,3.93,4.65,18.79,10.3,24.8.7.15,1.21-1.44,1.41-1.93,1.89-4.51,1.69-9.19,5-13.56,5.9-7.79,14.05-1.11,11.79,7.74-1.52,5.93-10.22,14.64-10.61,18.77-.17,1.8.98,4.2,3.11,3.78,4.16-.83,7.11-8.29,9.86-11.08,2.77-2.83,8.6-5.48,11.32-1.17,3.03,4.8-2.08,14.67-5.57,18.4-4.47,4.78-13.82,7.67-16.65,13.05-.73,1.39-2.08,8.72-4.94,5.49-1.08-1.22-1.56-7.94-2.03-10.12-.93-4.31-2.62-9.26-5.78-12.45-5.16-5.21-16.15-2.13-23.1-8.97-2.65-2.61-4.2-7.73-1.01-10.49,4.81-4.17,12.36,3.15,17.22,3.89"/>
  </g>
</svg>