<?xml version="1.0" encoding="UTF-8"?>
<svg id="Calque_2" data-name="Calque 2" xmlns="http://www.w3.org/2000/svg" viewBox="0 0 78.19 47.59">
  <defs>
    <style>
      .cls-1 {
        fill: #f5a207;
      }
    </style>
  </defs>
  <g id="Calque_1-2" data-name="Calque 1">
    <path class="cls-1" d="M44.42,34.55c-1.15,1.89-2.75,4.71-5.31,3.5-8.19-3.86-11.97-24.16-8.44-31.82,4.58-9.95,15.3-7.18,17.66,2.61,1.65,6.86-.23,19.68-3.91,25.7"/>
    <path class="cls-1" d="M72.6,36.92c-2.06,3.11-7.03,9.34-10.6,10.41-6.22,1.87-5.85-6.82-5.11-10.59,1.25-6.33,9.85-25.8,18.39-20.5,6.57,4.08.4,16.02-2.68,20.67"/>
    <path class="cls-1" d="M20.24,40.54c-1.66,2.41-5.51,1.34-7.62.17-6.67-3.69-17.96-17.13-9.72-24.05,9.13-7.67,22.36,16.57,17.34,23.88"/>
  </g>
</svg>