<?xml version="1.0" encoding="UTF-8"?>
<svg id="Calque_2" data-name="Calque 2" xmlns="http://www.w3.org/2000/svg" viewBox="0 0 77.81 46.06">
  <defs>
    <style>
      .cls-1 {
        fill: #f08bac;
      }
    </style>
  </defs>
  <g id="Calque_1-2" data-name="Calque 1">
    <path class="cls-1" d="M66.42,39.87c.79,3.37-.54,6.84-4.54,6.09-1.45-.27-4.74-5.35-6.2-6.78-7.53-7.43-16.93-8.36-25.97-2.74-2.9,1.8-8.54,8.15-10.72,8.85-4.58,1.47-5.25-1.62-4.21-5.36,5.65-20.27,46.5-22.13,51.64-.06"/>
    <path class="cls-1" d="M77.48,23.59c1.17,5.02-.81,10.17-6.76,9.06-2.15-.4-7.06-7.96-9.22-10.09-11.2-11.06-25.19-12.45-38.65-4.08-4.32,2.68-12.71,12.13-15.95,13.17C.09,33.85-.92,29.24.63,23.68c8.41-30.17,69.19-32.93,76.85-.1"/>
  </g>
</svg>