<?xml version="1.0" encoding="UTF-8"?>
<svg id="Calque_2" data-name="Calque 2" xmlns="http://www.w3.org/2000/svg" viewBox="0 0 52.73 61.24">
  <defs>
    <style>
      .cls-1 {
        fill: #f7a93c;
      }
    </style>
  </defs>
  <g id="Calque_1-2" data-name="Calque 1">
    <path class="cls-1" d="M30.5,25.54c.43.58,7.55-8.68,8.18-9.37,2.19-2.36,7.78-8.43,11.02-5,2.24,2.37.42,5.66-1.08,7.92-3.37,5.09-8.96,7.88-13.45,11.79,5.13,1.92,13.5,3.31,16.66,8.25,1.36,2.13,1.34,5-1.37,5.88-5.46,1.77-12.86-4.12-17.29-6.77,1.19,5.25,4.32,12.22,4.37,17.56.04,4.49-3.79,7.39-7.23,3.86-4.49-4.61-4.13-17.35-4.17-23.42-4.63,3.7-8.88,10.06-14.27,12.65-3.1,1.49-6.96,1.18-6.43-3.09.73-5.94,10.28-11.39,15.02-14.08C15.2,28.52.86,23.33.06,16.35c-.17-1.51-.02-3.12,1.36-4.01,2.88-1.85,7.03.94,9.45,2.56,4.32,2.88,7.83,6.9,12.26,9.64-.93-5.93-3.95-16.34-1.74-21.98,1.33-3.4,5.07-3.31,6.83-.33,3.39,5.73,1.85,16.84,2.27,23.32"/>
  </g>
</svg>