<?xml version="1.0" encoding="UTF-8"?>
<svg id="Calque_2" data-name="Calque 2" xmlns="http://www.w3.org/2000/svg" viewBox="0 0 72 66.58">
  <defs>
    <style>
      .cls-1 {
        fill: #89b54f;
      }
    </style>
  </defs>
  <g id="Calque_1-2" data-name="Calque 1">
    <path class="cls-1" d="M38.3,16.23c3.52-4.83,7.22-13.36,14.16-13.88,14.99-1.12,2.27,23.38-2.61,28.32,4.28-1.88,7.57-3.22,12.42-2.87,10.95.78,13.09,10.4,4.17,16.28-7.88,5.19-21.89,4.5-27.81,11.49-3.31,3.91-3.68,12.45-10.9,10.81-5.22-1.19-4.21-7.85-5.45-11.89C18.57,42.42,1.91,36.09.29,27.36c-1.28-6.87,1.68-13.08,9.37-11.09,6.42,1.66,10.23,6.66,14.19,11.51-.64-6.64-4.4-21.6,1.71-26.32,7.96-6.14,13.81,8.55,12.75,14.76"/>
  </g>
</svg>