<?xml version="1.0" encoding="UTF-8"?>
<svg id="Calque_2" data-name="Calque 2" xmlns="http://www.w3.org/2000/svg" viewBox="0 0 67.02 67.44">
  <defs>
    <style>
      .cls-1 {
        fill: #fdcc4e;
      }
    </style>
  </defs>
  <g id="Calque_1-2" data-name="Calque 1">
    <path class="cls-1" d="M36.44,25.73c5.27-5.99,16.2-17.05,24.93-14.87,2.91.72,4.76,2.65,4.54,5.79-.45,6.41-13.59,13.28-18.66,16.22-1.65,1.25,1.49,1.85,2.76,2.6,4.51,2.64,15.25,9.65,16.62,14.79,1.82,6.88-3.02,9.38-8.94,6.98-6.93-2.81-13.64-10.52-19.29-15.31-1.19,6.56-1.46,14.37-4.33,20.46-1.87,3.97-5.3,6.62-9.59,4-7.06-4.31-.87-21.07,2.13-26.91-5.97,1.26-22.33,6.92-25.89-.36-5.36-10.96,20.75-11.93,26.38-10.44-2.21-6.7-9.83-14.37-11.06-21.07-1.82-9.85,7.01-9.34,11.76-2.92,4.42,5.98,7.16,13.83,8.64,21.06"/>
  </g>
</svg>