<?xml version="1.0" encoding="UTF-8"?>
<svg id="Calque_2" data-name="Calque 2" xmlns="http://www.w3.org/2000/svg" viewBox="0 0 58.81 60.07">
  <defs>
    <style>
      .cls-1 {
        fill: #69c2c2;
      }
    </style>
  </defs>
  <g id="Calque_1-2" data-name="Calque 1">
    <path class="cls-1" d="M20.41.11c2.94.53,5.75,6.68,6.69,9.27,2.35,6.46,3,13.45,3.95,20.23l5.72-11.45c1.87-3.21,5.53-8.15,9.87-6.11,3.82,1.79,2.19,8.25,1.14,11.34-1.83,5.39-5.15,10.3-8.22,15.04,4.55-1.66,13.83-9.1,18.26-4.12,2.06,2.32.47,6.04-1.23,8.08-4.29,5.11-11.64,6.7-16.41,12.02-1.23,1.37-3.45,5.35-5.04,5.6-1.95.3-8.02-.34-9.39-1.82-.86-.93-1.39-5.17-1.99-6.83-2.39-6.64-6.86-10.08-11.87-14.44C7.38,32.98-1.07,26.98.11,20.1c.68-3.99,5.18-3.74,8.13-2.5,4.13,1.74,7.02,6,10.03,9.13.25.26,1.21,1.36,1.53,1.05-1.88-4.21-3.57-9.13-4.42-13.67C14.59,9.88,13.18-1.2,20.41.11"/>
  </g>
</svg>