<?xml version="1.0" encoding="UTF-8"?>
<svg id="Calque_2" data-name="Calque 2" xmlns="http://www.w3.org/2000/svg" viewBox="0 0 63.44 64.87">
  <defs>
    <style>
      .cls-1 {
        fill: #507dbb;
      }
    </style>
  </defs>
  <g id="Calque_1-2" data-name="Calque 1">
    <path class="cls-1" d="M18.64,61.33C-2.19,49.34-6.76,24.17,11.05,7.09,13.89,4.37,21.23-.65,25.21.07c3.77.69,9.08,4.63,6.72,8.88-1.07,1.93-11.12,5.73-14.25,9.35-12.4,14.33-.54,35.31,18.29,33.58,13.3-1.22,20.98-16.96,8.23-21.44-7.82-2.76-5.42,9.64-10.07,11.64-7.86,3.38-12.27-6.35-9.62-13.08,8.35-21.17,40.45-10.38,38.88,12.36-1.39,20.03-28.91,29.09-44.74,19.98"/>
  </g>
</svg>