<?xml version="1.0" encoding="UTF-8"?>
<svg id="Calque_2" data-name="Calque 2" xmlns="http://www.w3.org/2000/svg" viewBox="0 0 50.4 63.3">
  <defs>
    <style>
      .cls-1 {
        fill: #ef7d5b;
      }
    </style>
  </defs>
  <g id="Calque_1-2" data-name="Calque 1">
    <path class="cls-1" d="M20.8.17c5.29-.91,9.09,1.92,8.86,7.45-.32,7.98-11.07,18.11-11.85,26.78-.05.54.04,1.49.58,1.48.64-.02,7.04-8.36,8.26-9.64,4.24-4.48,13.93-14.12,20.21-8.26,3.86,3.61,2.74,9.79-.24,13.54-3.99,5-11.33,6.45-15.57,10.61-1.33,1.3-2.37,2.68.17,2.97,3.16.36,6.59-.34,9.92.18,13.63,2.14,12.32,23.25-4.86,16.8-7.63-2.87-12.58-8.39-21.59-9.19-3-.27-11.84.67-13.72-.51-3.53-2.22,3.42-6.46,4.7-8.53,2.85-4.58.76-9.76.52-14.6C5.71,19.3,8.76,2.24,20.8.17"/>
  </g>
</svg>