<?xml version="1.0" encoding="UTF-8"?>
<svg id="Calque_2" data-name="Calque 2" xmlns="http://www.w3.org/2000/svg" viewBox="0 0 50.53 55.86">
  <defs>
    <style>
      .cls-1 {
        fill: #fdcc4e;
      }
    </style>
  </defs>
  <g id="Calque_1-2" data-name="Calque 1">
    <path class="cls-1" d="M18.68,14.42c.46-3.39,6.52-17.02,11.22-13.99,2.77,1.79,1.45,18.52,1.19,22.18,2.67-.88,15.7-7.36,17.52-5.81.81.69.84,1.78.41,2.71-.58,1.24-6.1,5.92-7.53,7.53-.44.49-3.19,3.71-2.87,3.99,3.62-.33,13.75,4.28,11.63,8.76-2,4.21-13.36-.52-16.96-.15-1.8,3.55-2.37,15.73-7.34,16.21-2.98.29-4.58-4.77-5.27-7.09-.43-1.45-1.11-7.21-2.27-7.47-.71-.16-10.81,4.67-13.45,5.06-5.68.84-6.14-2.69-3.11-6.66,3.01-3.94,8.29-6.47,11.93-9.8.26-1.21-9.78-9-9.28-11.46.67-3.33,12.33,3.46,14.17,3.31.22-2.3-.3-5.08,0-7.31"/>
  </g>
</svg>