<?xml version="1.0" encoding="UTF-8"?>
<svg id="Calque_2" data-name="Calque 2" xmlns="http://www.w3.org/2000/svg" viewBox="0 0 221.02 127.92">
  <defs>
    <style>
      .cls-1 {
        fill: #fff;
      }
    </style>
  </defs>
  <g id="Calque_1-2" data-name="Calque 1">
    <path class="cls-1" d="M68.21,74.6c-.82,2.44-1.98,4.45-3.48,6.06-1.5,1.61-3.14,2.41-4.93,2.41-2.17,0-3.97-1.01-5.38-3.03-1.42-2.02-2.06-4.18-1.91-6.5.15-1.42.8-3.37,1.96-5.83,1.16-2.47,2.58-4.62,4.26-6.45,1.68-1.83,3.34-2.75,4.99-2.75s3.21,1.05,4.48,3.14c.82,1.34,1.23,3.25,1.23,5.72s-.41,4.8-1.23,7.23M84.48,43.21c-2.76-4.08-6.08-7.11-9.93-9.09-3.85-1.98-7.9-2.96-12.16-2.96s-8.13.89-12.06,2.69c-3.92,1.79-7.42,4.43-10.49,7.9-3.07,3.48-5.34,7.65-6.83,12.5-1.28,4.94-1.91,10.28-1.91,16.03,0,10.17,2.24,19.1,6.73,26.8,4.49,7.7,12.07,12.11,22.77,13.23.52.07,1.34.11,2.46.11,5.83,0,10.86-2.13,15.08-6.39,4.22-4.26,7.4-9.72,9.53-16.37,2.14-6.65,3.19-13.42,3.19-20.29,0-3.14-.22-6.17-.67-9.09-1.05-5.98-2.96-11.01-5.72-15.08"/>
    <path class="cls-1" d="M102.6,40.43c-.29,0-.59.04-.9.13-1.6.46-2.91,1.6-3.93,3.41-1.02,1.82-1.75,3.93-2.19,6.33-.44,2.4-.66,4.81-.66,7.21,0,1.4.08,2.68.23,3.82.16,1.14.35,2,.58,2.58.35.83.78,1.45,1.31,1.86.53.42,1.09.62,1.69.62.66,0,1.3-.25,1.91-.75.61-.5,1.11-1.21,1.48-2.14.37-.93.56-1.98.56-3.15.06-.35.09-.77.09-1.29l-.05-2.66c0-2,.12-3.58.37-4.74.24-1.16.74-1.64,1.48-1.44.26.12.5.39.73.83.23.44.43.97.62,1.57.18.6.31,1,.36,1.2.74,2.23,1.67,3.87,2.79,4.91,1.11,1.04,2.29,1.57,3.52,1.57,1.14,0,2.23-.39,3.28-1.16,1.04-.77,1.85-1.73,2.42-2.88.8-1.57,1.54-3.72,2.21-6.44.67-2.72,1-5.19,1-7.43,0-1.94-.31-3.49-.92-4.63-.61-1.14-1.62-1.71-3.02-1.71-1.26,0-2.21.38-2.85,1.13-.65.76-1.07,1.66-1.27,2.7-.2,1.05-.36,2.43-.47,4.14-.14,1.83-.33,3.17-.56,4.01-.23.85-.7,1.32-1.41,1.44-.49-.03-.93-.33-1.33-.9-.4-.57-.93-1.46-1.59-2.66-.91-1.77-1.77-3.13-2.57-4.08-.8-.95-1.77-1.42-2.92-1.42"/>
    <path class="cls-1" d="M125.65,51.1c.42,0,.84-.04,1.25-.12.01,0,.03,0,.04,0,.08,0,.15.04.18.12.04.08,0,.18-.07.23-4.02,2.81-6.06,6.02-6.06,9.54.22,1.8.99,3.16,2.29,4.02,1.32.88,3,1.32,4.98,1.32,1.77,0,3.57-.33,5.36-.97,1.79-.65,3.25-1.5,4.33-2.54,1.24-1.18,2.17-2.38,2.77-3.57.6-1.19.9-2.29.9-3.28s-.28-1.82-.85-2.44c-.57-.62-1.31-.92-2.26-.92-.44,0-.87.06-1.28.16-.8.22-1.78.73-2.92,1.52-1.16.8-2.54,1.83-4.09,3.04-.08.06-.2.05-.27-.03-.07-.08-.06-.2.02-.27,1.98-1.7,3.79-3.49,5.39-5.32,1.56-1.8,2.35-3.31,2.35-4.49,0-.6-.17-1.01-.52-1.26-.74-.53-2.09-.49-3.55-.08-.77.22-1.71.53-2.79.92-.23.08-.63.23-1.21.43-.1.04-.21-.02-.24-.11s0-.21.1-.25c.93-.39,2.19-1.11,3.75-2.13,1.56-1.02,2.96-2.14,4.15-3.32,1.17-1.16,1.77-2.23,1.77-3.17,0-.32-.04-.49-.07-.57-.29-.87-1.04-1.29-2.27-1.29-1.4,0-3.14.51-5.17,1.52-2.05,1.02-3.96,2.3-5.66,3.81-1.7,1.5-2.8,2.94-3.27,4.27-.19.6-.29,1.25-.29,1.91,0,1.04.28,1.84.85,2.44.56.59,1.35.88,2.35.88"/>
    <path class="cls-1" d="M146.22,63.51c1.53,1.82,3.61,2.74,6.2,2.74l.72-.05c2.68-.19,4.99-1.17,6.85-2.89,1.87-1.73,3.29-3.97,4.22-6.66.93-2.7,1.4-5.6,1.4-8.62s-.5-6.17-1.49-8.9c-.33-.93-.82-1.65-1.48-2.12-1.23-.9-2.71-.92-3.91-.2-.57.34-1,.81-1.3,1.4-.33.7-.57,1.44-.69,2.2-.13.79-.24,1.79-.32,2.96-.03.26-.04.84-.04,1.74-.09,3.33-.32,6.2-.69,8.55-.39,2.43-1.28,3.66-2.64,3.66-1.84,0-2.77-2.06-2.77-6.12,0-.73.03-1.47.09-2.2.05-.73.08-1.22.08-1.44.03-.62.11-1.42.22-2.38.2-1.52.3-2.8.3-3.8,0-1.72-.39-3.05-1.16-3.95-.71-.79-1.63-1.17-2.81-1.17-1.09,0-2.01.33-2.75.98-.82.71-1.38,2.3-1.68,4.73-.3,2.47-.45,4.76-.45,6.8-.03,2.67.26,5.36.85,8,.59,2.63,1.68,4.9,3.22,6.74"/>
    <path class="cls-1" d="M176.63,43.34c.54-.66,1.18-.99,1.89-.99.45,0,.84.16,1.15.46.31.31.47.74.47,1.27,0,.79-.36,1.68-1.11,2.73,0,0,0,0,0,0-.5.68-1.02,1.12-1.55,1.31-.13.02-.25.03-.35.03-.26,0-.45-.07-.61-.19-.44-.32-.67-.98-.67-1.96,0-1.12.27-2.02.79-2.67M175.41,60.6c0-.45-.02-.82-.04-1.05,0-.08.03-.15.09-.19.07-.04.15-.04.21,0,.39.27.77.6,1.19,1.03.39.41.77.84,1.13,1.28.84,1.04,1.62,1.84,2.33,2.37.68.51,1.54.77,2.54.77.76,0,1.42-.19,1.97-.57.56-.38,1.01-.88,1.34-1.48.41-.72.62-1.48.62-2.27,0-1.34-.63-2.59-1.87-3.72-1.27-1.16-2.86-2.14-4.71-2.93-.07-.03-.12-.1-.12-.18s.05-.15.12-.18c1.32-.56,2.49-1.36,3.48-2.38.99-1.02,1.73-2.26,2.21-3.68.33-1,.5-2.1.5-3.24,0-1.26-.21-2.49-.61-3.65-.4-1.15-1-2.1-1.77-2.82-1.1-.99-2.4-1.49-3.86-1.49-1,0-1.95.21-2.84.62-.64.28-1.31.66-1.99,1.14-.04.03-.1.04-.15.03-.05,0-.1-.04-.12-.09-.27-.43-.62-.77-1.05-1.01-.88-.5-1.91-.49-2.9.06-.52.29-1.02.74-1.49,1.34-1.03,1.34-1.82,3.32-2.32,5.88-.51,2.59-.77,5.42-.77,8.42,0,2.45.17,4.72.49,6.77.32,2.04.76,3.57,1.29,4.55.36.63.82,1.17,1.38,1.59h0c.56.42,1.14.62,1.79.62.78,0,1.5-.27,2.15-.81.65-.55,1.13-1.24,1.4-2.06.25-.75.38-1.67.38-2.73"/>
    <path class="cls-1" d="M201.61,52.75c-.32.95-.78,1.76-1.37,2.39-.61.65-1.29.98-2.03.98-.9,0-1.64-.42-2.22-1.24-.57-.81-.83-1.68-.76-2.61.06-.57.31-1.32.77-2.3.45-.95,1.01-1.8,1.66-2.52.68-.74,1.37-1.12,2.05-1.12.73,0,1.36.44,1.88,1.3.33.54.5,1.31.5,2.29s-.16,1.88-.48,2.83M207.49,40.78c-1.03-1.52-2.29-2.67-3.73-3.42-2.83-1.45-6.12-1.47-9.1-.1-1.47.67-2.8,1.67-3.95,2.98-1.15,1.3-2.01,2.89-2.58,4.71-.48,1.85-.72,3.89-.72,6.08,0,3.84.86,7.26,2.55,10.16,1.68,2.88,4.56,4.55,8.57,4.97.2.03.5.04.92.04,2.17,0,4.07-.8,5.64-2.39,1.59-1.61,2.8-3.69,3.6-6.19.8-2.51,1.21-5.1,1.21-7.71,0-1.2-.08-2.36-.25-3.45-.39-2.24-1.12-4.16-2.16-5.69"/>
    <path class="cls-1" d="M104.61,84.21c-.74-.77-1.3-1.42-1.68-1.95-.36-.51-.54-1.03-.54-1.56,0-.76.45-1.51,1.34-2.21.32-.24.72-.46,1.18-.64l.58-.23c.16-.06.27-.11.33-.13.87-.27,1.56-.72,2.07-1.35.51-.63.77-1.34.77-2.1,0-.58-.16-1.13-.48-1.64-.32-.51-.79-.95-1.42-1.31-.57-.33-1.26-.5-2.07-.5-1.06,0-2.16.31-3.27.92-1.1.61-2.11,1.43-2.99,2.45-.88,1.01-1.52,2.12-1.9,3.28-.29.88-.44,1.72-.44,2.51,0,.94.19,1.78.56,2.49.37.7.9,1.49,1.59,2.34.65.86,1.15,1.61,1.49,2.23.33.63.54,1.35.62,2.13.03.66-.09,1.29-.35,1.89-.26.6-.62,1.09-1.09,1.48-.35.3-.77.54-1.25.72-.5.18-.79.29-.88.32-.84.29-1.52.59-2.03.9-.53.32-.96.82-1.26,1.48-.16.35-.23.76-.23,1.28,0,.62.14,1.23.4,1.8h0c.27.57.66,1.02,1.14,1.32,1.23.85,2.6,1.28,4.06,1.28,1.55,0,3.05-.44,4.48-1.32,1.42-.87,2.6-2.06,3.5-3.54.9-1.48,1.36-3.09,1.36-4.78,0-2.33-.9-4.55-2.66-6.6-.35-.43-.66-.76-.91-.96"/>
    <path class="cls-1" d="M126.09,87.25c-.44,0-.88.05-1.28.16-.8.22-1.78.73-2.92,1.52-1.17.81-2.55,1.83-4.09,3.04-.08.06-.2.05-.27-.03-.07-.08-.05-.2.02-.27,1.98-1.7,3.79-3.49,5.39-5.32,1.56-1.8,2.35-3.31,2.35-4.49,0-.6-.17-1.01-.52-1.26-.75-.53-2.09-.49-3.55-.08-.77.22-1.71.53-2.79.92-.23.08-.63.23-1.21.43-.1.04-.21-.02-.24-.11-.04-.1,0-.21.1-.25.93-.39,2.19-1.11,3.75-2.13,1.56-1.03,2.96-2.14,4.15-3.32,1.17-1.16,1.77-2.23,1.77-3.17,0-.32-.04-.49-.07-.57-.29-.87-1.04-1.29-2.27-1.29-1.39,0-3.13.51-5.17,1.52-2.05,1.02-3.96,2.3-5.67,3.81-1.7,1.5-2.8,2.94-3.27,4.27-.19.6-.29,1.25-.29,1.91,0,1.04.28,1.84.85,2.44.56.58,1.35.88,2.35.88.42,0,.84-.04,1.25-.13.01,0,.02,0,.04,0,.08,0,.15.05.18.12.04.08,0,.18-.07.23-4.02,2.81-6.06,6.02-6.06,9.54.22,1.8.99,3.16,2.29,4.02,1.32.88,2.99,1.32,4.98,1.32,1.77,0,3.57-.33,5.36-.97,1.79-.65,3.25-1.5,4.33-2.54,1.24-1.18,2.17-2.38,2.77-3.57.6-1.19.9-2.29.9-3.28s-.28-1.82-.85-2.44c-.57-.62-1.31-.92-2.26-.92"/>
    <path class="cls-1" d="M155.96,77.18c0-1.95-.31-3.49-.92-4.63-.62-1.14-1.62-1.71-3.02-1.71-1.26,0-2.21.38-2.85,1.14-.65.76-1.07,1.66-1.27,2.7-.2,1.05-.36,2.43-.47,4.14-.14,1.83-.33,3.17-.56,4.01-.23.85-.7,1.32-1.41,1.44-.49-.03-.93-.33-1.33-.9-.4-.57-.93-1.46-1.59-2.66-.91-1.77-1.77-3.13-2.57-4.07-.8-.95-1.77-1.42-2.92-1.42-.29,0-.59.04-.9.13-1.6.46-2.91,1.6-3.93,3.41-1.02,1.82-1.75,3.93-2.19,6.33-.27,1.49-.45,2.97-.56,4.46-.02.34-.05.67-.07,1.01,0,.06,0,.13,0,.19-.02.51-.03,1.02-.03,1.53,0,0,0,.01,0,.02,0,1.4.08,2.67.23,3.82.16,1.15.35,2.01.58,2.58.35.83.78,1.45,1.31,1.86.53.42,1.09.62,1.69.62.66,0,1.29-.25,1.91-.75.62-.5,1.11-1.22,1.48-2.14.37-.93.56-1.98.56-3.15.06-.35.09-.77.09-1.29l-.04-2.66c0-2,.12-3.58.37-4.74.24-1.16.74-1.64,1.48-1.44.25.11.5.39.73.83.23.44.43.97.62,1.57.18.6.31,1,.36,1.2.74,2.23,1.67,3.87,2.79,4.91,1.11,1.04,2.29,1.57,3.52,1.57,1.14,0,2.24-.38,3.28-1.16,1.04-.78,1.85-1.73,2.42-2.88.8-1.57,1.54-3.72,2.21-6.44.67-2.72,1.01-5.19,1.01-7.42"/>
    <path class="cls-1" d="M164.45,78.5c.33-.24.72-.46,1.18-.64l.57-.23c.16-.06.28-.11.34-.14.86-.27,1.56-.72,2.07-1.35.51-.63.77-1.34.77-2.1,0-.58-.16-1.13-.48-1.65-.32-.51-.79-.95-1.42-1.31-.57-.33-1.26-.5-2.07-.5-1.06,0-2.16.31-3.27.93-1.1.6-2.1,1.43-2.99,2.45-.89,1.01-1.53,2.12-1.9,3.28-.29.87-.44,1.72-.44,2.51,0,.94.19,1.78.56,2.49.37.7.9,1.49,1.58,2.34.67.87,1.15,1.6,1.49,2.23.33.63.54,1.35.62,2.13.03.66-.09,1.29-.35,1.89-.26.6-.62,1.09-1.09,1.48-.35.3-.77.54-1.25.72-.49.18-.78.29-.88.32-.84.29-1.52.59-2.03.9-.53.32-.96.82-1.26,1.48-.15.35-.23.76-.23,1.28,0,.62.14,1.23.4,1.8t0,0c.27.57.66,1.02,1.14,1.32,1.23.85,2.6,1.28,4.06,1.28,1.55,0,3.05-.44,4.48-1.32,1.42-.87,2.6-2.06,3.5-3.54.9-1.48,1.36-3.09,1.36-4.78,0-2.33-.9-4.55-2.66-6.6-.35-.44-.66-.77-.91-.96-.75-.78-1.3-1.42-1.68-1.95-.36-.51-.54-1.03-.54-1.56,0-.76.45-1.51,1.34-2.21"/>
    <path class="cls-1" d="M32.46,35.4c.42-.35.69-.82.82-1.39.13-.58.07-1.17-.18-1.78-.18-.44-.68-1.26-1.49-2.45-.81-1.19-1.7-2.36-2.68-3.52-1.53-1.82-2.96-3.19-4.3-4.12-1.34-.93-2.41-1.08-3.22-.44-.94.75-1.03,2.05-.28,3.91.75,1.85,1.96,3.76,3.61,5.74.87,1.03,1.75,1.94,2.66,2.73.9.79,1.7,1.35,2.38,1.67.51.21,1,.28,1.46.2.46-.07.87-.25,1.22-.55"/>
    <path class="cls-1" d="M95,35.4c.35.29.76.48,1.22.55.46.07.95,0,1.46-.2.68-.32,1.48-.88,2.38-1.67.9-.79,1.79-1.7,2.66-2.73,1.65-1.97,2.86-3.89,3.61-5.74.75-1.85.66-3.16-.28-3.91-.81-.64-1.88-.49-3.22.44-1.34.93-2.77,2.3-4.3,4.12-.98,1.16-1.87,2.34-2.68,3.53-.81,1.19-1.31,2-1.49,2.45-.25.61-.31,1.21-.18,1.78.13.58.41,1.04.82,1.39"/>
    <path class="cls-1" d="M12.58,64.03c1.2.02,2.17-.06,2.9-.25.52-.17.94-.43,1.25-.78.31-.35.5-.75.58-1.2.1-.54,0-1.07-.26-1.6-.27-.53-.7-.94-1.28-1.25-.43-.22-1.33-.53-2.71-.92-1.38-.39-2.82-.72-4.32-.98-2.34-.41-4.32-.54-5.94-.39-1.62.15-2.54.73-2.75,1.74-.24,1.18.53,2.24,2.29,3.17,1.77.94,3.92,1.63,6.45,2.07,1.33.23,2.59.36,3.79.39"/>
    <path class="cls-1" d="M21.44,90.69c-.54-.23-1.14-.27-1.79-.13-.47.11-1.36.45-2.67,1.04-1.31.59-2.62,1.26-3.94,2.02-2.06,1.19-3.66,2.36-4.8,3.52-1.15,1.16-1.48,2.19-.99,3.1.58,1.05,1.84,1.37,3.8.96,1.96-.42,4.05-1.27,6.28-2.56,1.17-.67,2.22-1.39,3.15-2.14.94-.75,1.62-1.44,2.06-2.06.29-.47.44-.93.45-1.4.01-.47-.1-.9-.33-1.3-.27-.47-.68-.82-1.23-1.05"/>
    <path class="cls-1" d="M47.11,112.03c-.29-.37-.65-.63-1.08-.78-.51-.19-1.05-.19-1.62-.02-.56.17-1.05.52-1.45,1.05-.29.38-.75,1.22-1.37,2.51-.62,1.3-1.2,2.65-1.71,4.08-.81,2.23-1.28,4.16-1.42,5.78-.14,1.62.27,2.63,1.23,3.01,1.12.44,2.29-.14,3.52-1.71,1.23-1.58,2.28-3.58,3.16-5.99.46-1.27.8-2.49,1.04-3.67.23-1.18.32-2.14.26-2.9-.08-.54-.26-1-.56-1.36"/>
    <path class="cls-1" d="M80.77,114.15c-.58-1.05-1.14-1.85-1.67-2.39-.41-.37-.84-.6-1.3-.69-.46-.09-.9-.06-1.33.1-.51.19-.93.53-1.25,1.03-.32.5-.47,1.08-.44,1.73.02.48.21,1.41.57,2.81.35,1.39.79,2.8,1.31,4.23.81,2.23,1.69,4.01,2.63,5.34.94,1.33,1.9,1.84,2.88,1.51,1.14-.39,1.67-1.58,1.6-3.58-.07-2-.55-4.21-1.43-6.62-.46-1.27-.98-2.42-1.56-3.48"/>
    <path class="cls-1" d="M51.59,26.17c.96,0,2.07-.48,3.36-1.44,1.11-1.12,2.64-3.28,4.55-6.49,1.76-3.04,2.79-4.8,3.13-5.29-.16.32-.12,1.6.12,3.85.23,2.24.72,4.28,1.44,6.11.72,1.85,1.47,2.84,2.27,3.01.98.32,2.13.08,3.5-.72,1.35-.8,2.27-1.76,2.75-2.88.31-1.28.49-2.16.49-2.64,0-1.12-.25-2.17-.72-3.13-.98-2.71-2.17-5.92-3.61-9.6-1.43-3.68-2.32-5.68-2.64-6-.65-.64-1.29-.97-1.92-.97-.49,0-.8.09-.96.24-1.93.32-4.38,2.88-7.33,7.68-2.97,4.81-5.33,9.37-7.09,13.69-.31,1.29-.19,2.36.37,3.24.55.88,1.31,1.32,2.29,1.32"/>
    <path class="cls-1" d="M205.51,93.22c-1.85-.78-3.98.17-5.83,1.19-1.17.65-2.42,1.47-3.55,2.23-.65.44-2.56-.12-.99-1.79.72-.77,4.75-1.89,6.67-2.95,1.67-.92,2.94-1.79,3.87-2.68.64-.61,1.12-1.22,1.44-1.85.45-.88.61-1.81.45-2.7-.19-1.09-.85-1.94-1.83-2.35-1.64-.69-3.52.15-5.14,1.06-.49.28-1,.58-1.51.91.16-.82.27-1.57.33-2.23.09-1.09.05-1.97-.14-2.7-.42-1.63-1.48-2.21-2.08-2.42-.75-.26-1.95-.34-3.38.74-.66.5-1.34,1.23-2.03,2.17-.67.92-1.33,2.03-1.95,3.25-.81-.96-1.53-1.75-2.17-2.37-1.18-1.14-2.6-2.27-4.22-1.97-1.07.2-1.89.96-2.19,2.04-.24.84-.17,1.85.22,3.19.28.97.74,2.09,1.31,3.23,1.12,2.24,3.96,4.38,4.87,6.25.71,1.46.84,3.1-.44,1.75-1.25-1.32-2.23-2.52-3.18-3.42-1.01-.97-1.9-1.67-2.71-2.15-1.2-.71-2.31-.96-3.37-.77-1.44.25-2.55,1.3-3.04,2.86-.34,1.08-.22,2.25.35,3.48.35.75.87,1.54,1.59,2.41.83.99,5.99,5.98,6.88,6.81.62.58.49,5.45,3.09,8.66,2.11,2.6,4.32,2.04,4.83,1.9,5.04-1.38,2.17-7.69,3.06-8.04,1.91-.76,7.71-3.11,10.69-5.93.73-.69,1.27-1.38,1.64-2.1.51-.99.69-2.05.52-3.05-.21-1.23-.96-2.2-2.07-2.66"/>
    <path class="cls-1" d="M219.52,21.22c-.61-.14-1.25-.02-1.9.36-.32.19-.68.45-1.09.81-.65.58-1.37,1.32-2.12,2.11-.55.58-1.12,1.18-1.64,1.67-.02-.2-.03-.42-.05-.62-.05-.66-.1-1.34-.2-1.9-.06-.36-.14-.64-.23-.88-.2-.51-.53-.88-.98-1.09-.66-.31-1.43-.24-2.02.18-.4.28-.66.68-.8,1.22-.08.29-.12.62-.15,1.03-.04.67,0,1.52.09,2.52.19,1.93.6,4.15,1.07,5.81.25.86.51,1.56.78,2.08.18.35.37.62.57.85.48.52,1.01.68,1.37.72.21.02.45.03.73,0,.5-.06,1.1-.25,1.74-.71.5-.36.98-.85,1.48-1.51.8-1.05,1.47-2.32,1.96-3.24l.04-.08c.48-.9,1.18-2.5,1.8-4.07.3-.77.55-1.47.72-2.01.31-.98.34-1.36.28-1.68-.21-1.16-1.1-1.48-1.47-1.57"/>
  </g>
</svg>