<?xml version="1.0" encoding="UTF-8"?>
<svg id="Calque_2" data-name="Calque 2" xmlns="http://www.w3.org/2000/svg" viewBox="0 0 253.53 236.09">
  <defs>
    <style>
      .cls-1 {
        fill: #ffca07;
      }

      .cls-2 {
        fill: #ed88a8;
      }

      .cls-3 {
        fill: #e9736d;
      }

      .cls-4 {
        fill: #fff2df;
      }

      .cls-5 {
        fill: #4461a2;
      }

      .cls-6 {
        fill: #7dc7d2;
      }
    </style>
  </defs>
  <g id="Calque_1-2" data-name="Calque 1">
    <g>
      <path class="cls-4" d="M112.06.58c57.53-4.7,122.87,19.07,138.25,79.93,22.05,87.24-73.78,123.01-144.25,112.96-12.73,12.15-26.93,23.06-42.11,32.02-5.45,3.21-31.7,20.23-28.86,3.02.82-4.98,11.41-20.1,14.23-27.07,2.31-5.72,7.89-22.28,7.57-27.73-.17-2.87-12.7-12.32-15.8-15.78C-13.12,97.35,33.92,6.97,112.06.58"/>
      <path class="cls-1" d="M78.29,116.64c-.53,2.84-1.51,5.26-2.92,7.28-1.41,2.02-3.11,3.17-5.1,3.45-2.41.34-4.57-.51-6.46-2.52-1.9-2.02-2.95-4.32-3.13-6.92-.06-1.61.36-3.87,1.27-6.79.9-2.93,2.15-5.53,3.73-7.83,1.58-2.3,3.28-3.57,5.12-3.83,1.91-.27,3.73.66,5.47,2.79,1.12,1.36,1.88,3.42,2.26,6.17.37,2.66.29,5.4-.24,8.22M91.45,79.22c-3.71-4.1-7.86-6.95-12.45-8.55-4.59-1.6-9.24-2.06-13.98-1.4-4.56.64-8.89,2.26-12.97,4.87-4.08,2.6-7.55,6.08-10.42,10.42-2.86,4.34-4.74,9.33-5.64,14.96-.65,5.69-.51,11.72.39,18.11,1.59,11.3,5.48,20.87,11.66,28.73,6.19,7.86,15.31,11.57,27.36,11.15.59,0,1.51-.09,2.75-.26,6.48-.91,11.73-4.06,15.76-9.45,4.02-5.39,6.71-11.95,8.03-19.68,1.33-7.73,1.45-15.41.38-23.05-.49-3.49-1.21-6.82-2.16-10-2.1-6.48-5.01-11.77-8.71-15.86"/>
      <path class="cls-5" d="M111.16,73.31c-.32.04-.65.14-.98.28-1.71.76-2.98,2.23-3.83,4.41-.85,2.18-1.33,4.63-1.45,7.37-.12,2.74.01,5.45.39,8.12.22,1.56.5,2.96.86,4.2.35,1.25.71,2.17,1.05,2.77.51.87,1.09,1.49,1.75,1.87.66.38,1.31.52,1.98.43.73-.1,1.4-.48,2.01-1.13.6-.65,1.04-1.52,1.31-2.61.27-1.09.31-2.29.13-3.59,0-.39-.02-.87-.1-1.45l-.47-2.95c-.31-2.22-.42-4-.33-5.33.09-1.32.56-1.93,1.42-1.83.3.09.62.36.94.81.32.46.63,1.01.93,1.64.3.64.5,1.07.59,1.28,1.18,2.36,2.46,4.04,3.87,5.02,1.4.99,2.79,1.38,4.16,1.19,1.27-.18,2.42-.78,3.47-1.8,1.04-1.02,1.79-2.21,2.24-3.58.64-1.87,1.13-4.37,1.45-7.5.32-3.12.31-5.93-.04-8.41-.3-2.16-.89-3.83-1.75-5.01-.86-1.17-2.07-1.65-3.63-1.43-1.4.2-2.4.76-2.99,1.71-.6.94-.93,2.01-.99,3.2-.06,1.2-.02,2.75.12,4.68.13,2.06.13,3.58,0,4.55-.12.97-.57,1.58-1.35,1.82-.55.04-1.08-.22-1.62-.79-.54-.58-1.26-1.48-2.18-2.71-1.29-1.83-2.46-3.2-3.5-4.13-1.04-.93-2.19-1.3-3.47-1.12"/>
      <path class="cls-5" d="M138.43,81.56c.47-.07.93-.18,1.37-.34.01,0,.03,0,.04,0,.08-.01.17.03.22.1.05.09.04.2-.04.27-4.03,3.75-5.79,7.63-5.24,11.55.53,1.96,1.6,3.35,3.18,4.11,1.6.77,3.54,1,5.74.69,1.97-.28,3.92-.92,5.8-1.92,1.89-1,3.37-2.18,4.41-3.49,1.19-1.5,2.04-2.98,2.52-4.4.48-1.41.64-2.68.49-3.79-.16-1.13-.59-1.97-1.33-2.58-.73-.6-1.6-.82-2.65-.67-.49.07-.96.2-1.4.38-.85.37-1.86,1.09-3.01,2.14-1.17,1.08-2.53,2.43-4.07,4.02-.08.08-.22.09-.3,0-.09-.08-.09-.22-.02-.3,1.94-2.2,3.67-4.47,5.15-6.75,1.46-2.25,2.1-4.05,1.92-5.35-.09-.66-.35-1.1-.77-1.32-.91-.47-2.4-.22-3.96.47-.82.36-1.81.85-2.96,1.46-.24.13-.67.35-1.27.67-.1.05-.23.01-.29-.09-.06-.1-.02-.23.08-.29.97-.58,2.26-1.58,3.83-2.95,1.58-1.38,2.95-2.84,4.1-4.34,1.12-1.47,1.62-2.75,1.47-3.8-.05-.36-.12-.54-.17-.62-.46-.92-1.35-1.27-2.72-1.08-1.55.22-3.4,1.06-5.51,2.5-2.12,1.45-4.04,3.17-5.7,5.12-1.66,1.93-2.66,3.7-2.97,5.26-.12.7-.13,1.43-.02,2.16.16,1.16.6,2.01,1.32,2.58.71.56,1.64.77,2.75.61"/>
      <path class="cls-5" d="M163.24,92.13c1.98,1.78,4.44,2.48,7.31,2.08l.8-.16c2.95-.64,5.36-2.07,7.17-4.28,1.8-2.21,3.03-4.92,3.65-8.06.61-3.14.68-6.44.21-9.8-.49-3.52-1.52-6.77-3.05-9.66-.51-.98-1.17-1.7-1.97-2.12-1.51-.8-3.16-.6-4.37.38-.58.46-.99,1.05-1.22,1.76-.26.83-.4,1.69-.42,2.55-.02.9.02,2.03.11,3.34,0,.29.08.94.23,1.94.42,3.71.62,6.95.57,9.61-.05,2.76-.85,4.27-2.36,4.48-2.04.29-3.4-1.85-4.03-6.36-.11-.81-.2-1.64-.25-2.46-.05-.82-.1-1.37-.13-1.62-.06-.7-.1-1.6-.13-2.68-.02-1.72-.1-3.15-.26-4.27-.27-1.91-.91-3.32-1.9-4.21-.91-.77-1.99-1.05-3.31-.87-1.21.17-2.19.68-2.9,1.52-.8.92-1.18,2.77-1.12,5.51.06,2.79.24,5.36.56,7.63.39,2.97,1.13,5.92,2.2,8.76,1.07,2.83,2.63,5.18,4.63,6.99"/>
      <path class="cls-5" d="M193.87,64.97c.5-.82,1.15-1.29,1.94-1.4.5-.07.96.04,1.35.34.39.29.63.75.72,1.34.12.88-.14,1.92-.81,3.21,0,0,0,0,0,0-.45.84-.96,1.41-1.52,1.7-.14.04-.27.08-.39.09-.28.04-.51,0-.71-.12-.54-.29-.9-.98-1.05-2.07-.17-1.25-.02-2.29.46-3.1M195.21,84.35c-.07-.5-.14-.91-.21-1.16-.02-.08,0-.17.07-.22.07-.05.16-.06.23-.03.47.24.96.55,1.48.96.5.39.99.81,1.45,1.24,1.1,1.02,2.09,1.79,2.96,2.27.83.46,1.83.62,2.95.46.84-.12,1.55-.43,2.1-.94.56-.51.98-1.13,1.25-1.85.34-.86.46-1.74.33-2.62-.21-1.49-1.1-2.78-2.66-3.84-1.59-1.09-3.51-1.93-5.69-2.52-.08-.02-.15-.09-.16-.18-.01-.09.03-.17.1-.22,1.38-.83,2.55-1.9,3.49-3.19.94-1.28,1.57-2.78,1.88-4.43.22-1.17.23-2.41.05-3.69-.2-1.4-.62-2.74-1.25-3.96-.63-1.22-1.44-2.18-2.41-2.85-1.38-.93-2.9-1.28-4.52-1.05-1.11.16-2.14.54-3.06,1.14-.67.41-1.35.94-2.03,1.58-.04.04-.1.06-.16.06-.06,0-.11-.03-.15-.08-.37-.44-.81-.76-1.32-.95-1.06-.41-2.2-.24-3.21.52-.53.4-1.02.98-1.44,1.72-.94,1.65-1.5,3.97-1.66,6.9-.16,2.95,0,6.14.46,9.47.38,2.72.92,5.22,1.61,7.45.68,2.21,1.4,3.85,2.14,4.86.5.64,1.1,1.17,1.79,1.55.68.38,1.37.52,2.09.41.87-.12,1.63-.54,2.26-1.24.64-.71,1.06-1.55,1.23-2.51.16-.87.16-1.91,0-3.09"/>
      <path class="cls-5" d="M223.1,71.53c-.21,1.11-.59,2.07-1.15,2.87-.57.82-1.28,1.29-2.1,1.41-.99.14-1.89-.21-2.66-1.03-.76-.81-1.18-1.74-1.26-2.78-.03-.65.14-1.52.49-2.68.35-1.13.84-2.16,1.45-3.06.64-.93,1.35-1.45,2.11-1.56.81-.11,1.58.27,2.29,1.15.45.55.76,1.38.91,2.47.14,1.04.11,2.12-.09,3.22M227.77,57.31c-1.39-1.53-2.96-2.61-4.67-3.21-3.37-1.17-7.02-.68-10.13,1.31-1.53.97-2.84,2.29-3.92,3.92-1.07,1.62-1.79,3.52-2.13,5.64-.24,2.12-.19,4.44.15,6.87.6,4.26,2.09,7.93,4.42,10.89,2.31,2.93,5.77,4.34,10.29,4.18.22,0,.57-.03,1.03-.1,2.41-.34,4.39-1.53,5.89-3.53,1.51-2.03,2.54-4.54,3.03-7.44.5-2.91.55-5.86.14-8.76-.19-1.33-.46-2.61-.82-3.79-.79-2.43-1.9-4.45-3.29-5.98"/>
      <path class="cls-6" d="M120.23,121.64c-.94-.73-1.67-1.38-2.17-1.91-.48-.51-.77-1.06-.85-1.65-.12-.85.27-1.74,1.15-2.66.32-.32.73-.62,1.21-.89l.61-.35c.16-.09.28-.16.34-.2.92-.44,1.62-1.05,2.09-1.83.47-.78.65-1.61.53-2.45-.09-.64-.35-1.23-.79-1.75-.43-.52-1.03-.94-1.78-1.23-.68-.28-1.48-.36-2.38-.23-1.18.17-2.35.68-3.49,1.54-1.13.85-2.12,1.92-2.94,3.19-.82,1.26-1.36,2.59-1.6,3.95-.19,1.02-.22,1.98-.1,2.86.15,1.05.49,1.95,1.01,2.68.52.72,1.24,1.51,2.13,2.36.86.85,1.53,1.6,2,2.24.47.65.81,1.41,1.02,2.27.13.73.1,1.45-.09,2.15-.19.7-.52,1.31-.98,1.81-.35.39-.78.72-1.28.99-.52.28-.83.45-.92.49-.89.45-1.6.9-2.11,1.32-.54.44-.94,1.06-1.17,1.84-.12.41-.14.89-.06,1.46.1.69.34,1.34.73,1.94h0c.39.6.89,1.03,1.47,1.29,1.5.75,3.09,1.02,4.71.79,1.72-.24,3.32-.97,4.77-2.16,1.44-1.19,2.56-2.69,3.33-4.48.77-1.79,1.03-3.65.76-5.52-.36-2.58-1.71-4.91-3.98-6.92-.46-.43-.85-.75-1.16-.92"/>
      <path class="cls-6" d="M144.58,121.66c-.49.07-.96.2-1.4.38-.85.37-1.86,1.09-3.01,2.14-1.17,1.08-2.54,2.43-4.07,4.01-.08.08-.22.09-.3,0-.09-.08-.09-.21-.02-.3,1.93-2.19,3.67-4.46,5.15-6.75,1.46-2.25,2.1-4.05,1.92-5.35-.09-.67-.35-1.1-.77-1.32-.91-.48-2.4-.22-3.96.47-.82.36-1.82.86-2.96,1.46-.24.13-.67.35-1.27.67-.11.05-.23.02-.29-.09-.06-.1-.02-.23.08-.29.97-.58,2.26-1.58,3.83-2.95,1.58-1.38,2.96-2.84,4.1-4.34,1.12-1.47,1.61-2.75,1.47-3.8-.05-.36-.12-.54-.17-.62-.46-.92-1.35-1.27-2.72-1.08-1.55.22-3.4,1.06-5.51,2.5-2.12,1.45-4.04,3.17-5.7,5.12-1.65,1.93-2.65,3.7-2.97,5.26-.12.7-.13,1.43-.02,2.17.16,1.16.6,2,1.32,2.58.71.56,1.64.77,2.75.61.47-.07.93-.18,1.37-.33.01,0,.03,0,.04-.01.09-.01.17.03.22.1.05.09.04.2-.04.27-4.03,3.75-5.79,7.63-5.24,11.55.53,1.96,1.6,3.35,3.18,4.11,1.6.77,3.53,1,5.74.69,1.97-.28,3.92-.92,5.81-1.92,1.89-1,3.37-2.18,4.41-3.49,1.19-1.5,2.04-2.98,2.52-4.4.48-1.41.65-2.69.49-3.79-.16-1.13-.59-1.97-1.33-2.58-.73-.6-1.6-.82-2.66-.67"/>
      <path class="cls-6" d="M176.19,105.81c-.3-2.16-.89-3.83-1.75-5.01-.86-1.17-2.07-1.65-3.63-1.43-1.4.2-2.4.76-2.99,1.71-.6.94-.93,2.01-.99,3.2-.06,1.2-.02,2.75.12,4.68.13,2.06.13,3.57,0,4.55-.12.97-.57,1.58-1.35,1.82-.55.05-1.08-.22-1.62-.79-.54-.57-1.26-1.48-2.18-2.71-1.29-1.83-2.46-3.2-3.5-4.13-1.04-.93-2.19-1.3-3.47-1.12-.32.04-.65.14-.98.28-1.71.76-2.98,2.23-3.83,4.4-.85,2.18-1.33,4.64-1.45,7.37-.07,1.69-.04,3.37.08,5.04.03.38.05.76.08,1.13,0,.07.02.14.02.21.06.57.12,1.14.2,1.71,0,0,0,.01,0,.02.22,1.56.5,2.96.86,4.21.35,1.25.71,2.17,1.05,2.77.51.87,1.09,1.49,1.75,1.87.66.38,1.31.52,1.98.43.73-.1,1.4-.48,2.01-1.13.6-.65,1.04-1.52,1.31-2.61.27-1.09.31-2.29.13-3.59,0-.39-.02-.88-.1-1.45l-.47-2.95c-.31-2.22-.42-4-.33-5.33.09-1.32.56-1.93,1.42-1.83.3.09.62.36.94.81.32.46.63,1.01.93,1.65.3.64.5,1.07.59,1.28,1.18,2.36,2.46,4.04,3.87,5.02,1.4.99,2.79,1.38,4.16,1.19,1.27-.18,2.42-.78,3.47-1.8,1.04-1.02,1.79-2.21,2.24-3.58.64-1.87,1.13-4.37,1.45-7.5.32-3.12.31-5.93-.04-8.41"/>
      <path class="cls-6" d="M185.83,105.94c.32-.32.73-.62,1.21-.89l.6-.34c.17-.1.29-.17.35-.2.92-.43,1.62-1.05,2.09-1.83.47-.78.65-1.6.53-2.45-.09-.64-.35-1.23-.79-1.75-.43-.52-1.03-.94-1.78-1.23-.68-.28-1.48-.36-2.38-.23-1.18.16-2.35.68-3.49,1.54-1.12.84-2.12,1.92-2.94,3.19-.83,1.26-1.36,2.59-1.6,3.94-.19,1.02-.22,1.98-.1,2.86.15,1.04.48,1.95,1.01,2.68.52.72,1.24,1.52,2.13,2.35.88.87,1.53,1.6,2,2.24.47.64.81,1.41,1.02,2.27.13.73.1,1.45-.09,2.15-.19.7-.52,1.31-.98,1.81-.35.39-.78.72-1.28.99-.52.28-.83.45-.92.49-.89.45-1.6.9-2.12,1.31-.54.44-.94,1.06-1.17,1.84-.12.41-.14.88-.05,1.46.1.69.34,1.35.73,1.94t0,0c.39.6.89,1.03,1.47,1.29,1.5.75,3.08,1.02,4.71.79,1.72-.24,3.32-.97,4.77-2.16,1.44-1.19,2.56-2.69,3.33-4.48.77-1.79,1.03-3.65.76-5.52-.36-2.58-1.7-4.91-3.98-6.92-.46-.43-.86-.75-1.16-.92-.95-.75-1.66-1.37-2.17-1.91-.48-.51-.77-1.06-.85-1.65-.12-.85.27-1.74,1.14-2.66"/>
      <path class="cls-1" d="M32.44,78.66c.41-.46.64-1.02.7-1.68.06-.66-.11-1.31-.48-1.95-.27-.46-.95-1.29-2.04-2.48-1.09-1.19-2.26-2.36-3.52-3.5-1.98-1.78-3.79-3.08-5.42-3.91-1.63-.83-2.85-.82-3.65.02-.93.98-.82,2.44.3,4.38,1.13,1.94,2.76,3.88,4.91,5.81,1.12,1.01,2.25,1.88,3.38,2.62,1.13.74,2.1,1.23,2.91,1.48.6.15,1.15.15,1.65,0,.5-.15.93-.41,1.27-.8"/>
      <path class="cls-1" d="M101.93,68.9c.43.27.92.41,1.44.41.53,0,1.06-.14,1.59-.45.71-.47,1.5-1.21,2.39-2.23.88-1.02,1.72-2.17,2.53-3.45,1.53-2.45,2.57-4.76,3.12-6.94.54-2.17.24-3.61-.92-4.3-1-.58-2.17-.26-3.51.99-1.34,1.24-2.72,2.99-4.14,5.25-.9,1.45-1.71,2.89-2.42,4.34-.71,1.45-1.14,2.43-1.28,2.95-.18.72-.16,1.39.08,2.01.24.62.61,1.1,1.13,1.42"/>
      <path class="cls-1" d="M14.82,113.58c1.34-.16,2.4-.41,3.18-.73.55-.27.98-.62,1.27-1.07.29-.44.44-.91.46-1.43.02-.61-.16-1.19-.54-1.73-.38-.54-.92-.94-1.62-1.18-.51-.18-1.56-.38-3.16-.59-1.6-.22-3.24-.36-4.95-.42-2.66-.09-4.88.07-6.66.49-1.78.41-2.71,1.2-2.78,2.36-.08,1.35.94,2.4,3.05,3.17,2.11.76,4.61,1.19,7.49,1.3,1.51.05,2.93,0,4.27-.17"/>
      <path class="cls-1" d="M28.83,141.83c-.64-.17-1.31-.12-2,.13-.5.19-1.44.71-2.8,1.58s-2.72,1.81-4.06,2.86c-2.1,1.64-3.7,3.2-4.79,4.66-1.1,1.46-1.3,2.66-.62,3.6.8,1.08,2.26,1.23,4.37.47,2.11-.77,4.3-2.05,6.58-3.82,1.19-.93,2.24-1.89,3.17-2.87.92-.98,1.58-1.85,1.97-2.61.25-.56.35-1.11.28-1.63-.06-.52-.25-.99-.56-1.39-.38-.48-.89-.81-1.53-.98"/>
      <path class="cls-1" d="M60.69,161.53c-.38-.36-.82-.6-1.33-.7-.6-.13-1.2-.05-1.8.23-.6.28-1.08.75-1.45,1.39-.26.47-.64,1.47-1.13,3.01-.49,1.54-.92,3.14-1.27,4.8-.55,2.61-.78,4.82-.67,6.65.1,1.83.72,2.88,1.84,3.15,1.31.31,2.53-.51,3.65-2.45,1.12-1.95,1.98-4.33,2.58-7.16.31-1.48.51-2.89.58-4.23.07-1.35.02-2.43-.17-3.26-.17-.59-.45-1.07-.83-1.43"/>
      <path class="cls-1" d="M98.41,158.63c-.81-1.08-1.55-1.87-2.22-2.39-.51-.34-1.03-.53-1.56-.56-.52-.03-1.01.07-1.47.31-.54.29-.95.74-1.23,1.34-.28.6-.35,1.27-.22,2,.1.53.45,1.54,1.07,3.03.61,1.49,1.32,2.99,2.11,4.5,1.25,2.35,2.51,4.19,3.76,5.52,1.25,1.34,2.4,1.74,3.43,1.23,1.21-.61,1.61-2.01,1.22-4.22-.39-2.21-1.27-4.59-2.62-7.14-.71-1.34-1.47-2.54-2.28-3.62"/>
      <path class="cls-1" d="M52.25,65.43c1.06-.15,2.23-.86,3.51-2.12,1.06-1.42,2.42-4.06,4.04-7.92,1.48-3.65,2.35-5.77,2.65-6.36-.12.38.12,1.8.73,4.26.61,2.45,1.47,4.64,2.56,6.57,1.09,1.94,2.07,2.93,2.99,2.99,1.14.2,2.38-.25,3.77-1.35,1.37-1.1,2.24-2.31,2.61-3.63.15-1.47.21-2.47.13-3.01-.18-1.25-.62-2.37-1.29-3.36-1.51-2.86-3.33-6.24-5.52-10.1-2.16-3.87-3.47-5.94-3.87-6.25-.82-.62-1.59-.87-2.28-.78-.54.08-.88.22-1.02.42-2.1.66-4.41,3.89-6.94,9.68-2.55,5.8-4.46,11.24-5.74,16.32-.15,1.48.15,2.66.92,3.55.74.89,1.66,1.26,2.75,1.11"/>
      <path class="cls-3" d="M233.76,115.89c-2.18-.58-4.4.81-6.29,2.24-1.2.91-2.46,2.01-3.59,3.04-.65.59-2.86.27-1.38-1.84.68-.97,4.98-2.85,6.95-4.32,1.72-1.28,2.99-2.45,3.88-3.58.62-.78,1.05-1.53,1.32-2.29.37-1.04.4-2.11.08-3.07-.38-1.18-1.25-2.02-2.4-2.32-1.93-.51-3.89.72-5.55,1.98-.51.38-1.02.81-1.53,1.24.05-.94.06-1.78.02-2.53-.07-1.23-.26-2.2-.58-2.98-.72-1.74-2-2.23-2.69-2.36-.88-.17-2.23-.07-3.64,1.35-.66.66-1.3,1.58-1.92,2.73-.6,1.13-1.16,2.47-1.66,3.92-1.04-.94-1.97-1.71-2.78-2.3-1.49-1.08-3.25-2.11-5-1.53-1.15.38-1.94,1.36-2.12,2.61-.14.97.1,2.09.74,3.51.47,1.03,1.15,2.2,1.96,3.38,1.6,2.32,5.08,4.25,6.39,6.18,1.02,1.51,1.41,3.32-.22,2.01-1.59-1.27-2.87-2.45-4.07-3.31-1.27-.92-2.37-1.56-3.35-1.96-1.45-.6-2.71-.71-3.86-.33-1.57.51-2.64,1.84-2.94,3.66-.21,1.25.11,2.53.93,3.81.51.78,1.21,1.57,2.14,2.43,1.07.97,7.58,5.71,8.71,6.49.79.55,1.4,5.98,4.79,9.14,2.75,2.56,5.12,1.59,5.67,1.35,5.39-2.32,1.21-8.88,2.14-9.42,2-1.14,8.09-4.66,10.95-8.26.7-.89,1.19-1.73,1.49-2.59.41-1.18.45-2.38.1-3.48-.43-1.33-1.42-2.29-2.71-2.64"/>
      <path class="cls-2" d="M238.08,33.7c-.7-.06-1.39.18-2.05.7-.33.26-.68.61-1.08,1.07-.64.74-1.31,1.68-2.03,2.68-.53.73-1.07,1.48-1.56,2.11-.05-.22-.1-.46-.15-.68-.16-.72-.32-1.47-.52-2.08-.12-.39-.25-.7-.39-.95-.3-.54-.73-.9-1.26-1.06-.78-.24-1.63-.04-2.22.51-.4.37-.62.86-.7,1.48-.04.33-.04.71,0,1.17.06.75.23,1.69.49,2.78.51,2.11,1.31,4.52,2.1,6.29.41.92.81,1.66,1.19,2.19.25.36.51.64.77.85.61.5,1.22.59,1.63.58.23,0,.51-.04.81-.12.55-.15,1.18-.45,1.82-1.06.5-.48.96-1.1,1.41-1.91.72-1.29,1.27-2.8,1.67-3.91l.04-.1c.39-1.07.92-2.96,1.36-4.8.21-.91.38-1.72.49-2.35.19-1.13.16-1.56.05-1.91-.41-1.26-1.45-1.48-1.88-1.51"/>
    </g>
  </g>
</svg>