<?xml version="1.0" encoding="UTF-8"?>
<svg id="Calque_2" data-name="Calque 2" xmlns="http://www.w3.org/2000/svg" viewBox="0 0 64.35 44.36">
  <defs>
    <style>
      .cls-1 {
        fill: #507dbb;
      }
    </style>
  </defs>
  <g id="Calque_1-2" data-name="Calque 1">
    <path class="cls-1" d="M32.73,36.61c7.59-4.96,13.56-15.58,22.42-18.58,5.99-2.02,10.11,1.11,9.03,7.51-.87,5.15-7.42,10.65-11.63,13.32-13.98,8.83-25.89,6.52-38.39-3.28C8.63,31.25-3.82,19.05,1.14,11.4c5.49-8.47,15.09,2.8,17.33,8.65,1.43,3.75,1.44,8.86,4.57,11.47.14-7.57-3.21-25.07,3.82-30.05,3.94-2.79,9.67-1.42,12.2,2.57,5.54,8.72-6.19,23.47-6.34,32.57"/>
  </g>
</svg>