<?xml version="1.0" encoding="UTF-8"?>
<svg id="Calque_2" data-name="Calque 2" xmlns="http://www.w3.org/2000/svg" viewBox="0 0 63 72">
  <defs>
    <style>
      .cls-1 {
        fill: #89b54f;
      }

      .cls-2 {
        fill: #507dbb;
      }
    </style>
  </defs>
  <g id="Calque_1-2" data-name="Calque 1">
    <path class="cls-1" d="M41.52,0c5.16.36,4.97,7.06,4.23,10.79-3.04,15.12-12.78,28.19-25.59,36.38-2.9,1.86-13.32,7.43-16.31,7.69-3.13.27-5.09-2.93-2.96-5.47.98-1.17,4.29-2.38,5.79-3.37,10.53-6.95,19.32-13.9,23.9-26.21,1.75-4.7,3.74-15.67,7.58-18.57.79-.6,2.35-1.31,3.35-1.24"/>
    <path class="cls-2" d="M55.83,28.78c5.57-.77,8.84,3.05,6.3,8.29-1.77,3.67-11.73,6.99-15.42,11.02-6.61,7.21-7,19.58-17.81,23.1-5.46,1.78-20.23,1.08-19.89-6.88.21-5.03,6.6-1.97,9.78-1.75,11.27.8,14.11-11.25,18.99-18.9,3.8-5.95,10.65-13.85,18.05-14.88"/>
  </g>
</svg>