<?xml version="1.0" encoding="UTF-8"?>
<svg id="Calque_2" data-name="Calque 2" xmlns="http://www.w3.org/2000/svg" viewBox="0 0 67.23 50.79">
  <defs>
    <style>
      .cls-1 {
        fill: #507dbb;
      }
    </style>
  </defs>
  <g id="Calque_1-2" data-name="Calque 1">
    <path class="cls-1" d="M19.42,21.44c.14.06.87-.04.9-.08.18-.23-1.24-4.8-1.4-5.72C17.32,6.67,19.76-.05,30.01,0c9.55.05,8.78,11.06,9.4,17.57.02.27-.04.97.44.89.44-.07,3.18-6.62,4.05-7.89,1.68-2.47,4.48-5.36,7.48-6.1,5.07-1.25,9.23.98,9.22,6.55-.02,8.88-11.05,15.5-15.47,22.28-3.88,5.95,1.59,6.05,5.8,3.62,3.63-2.09,10.41-9.74,14.73-5.04,4.05,4.4-.61,10.81-4.28,13.66-6.51,5.07-16.01,6.69-23.78,3.91-8.72-3.11-13.55-10.9-20.91-15.78C11.32,30.11,1.01,27.44.06,20.03c-.46-3.6,1.93-7.15,5.55-7.64,4.99-.67,9.92,4.02,12.87,7.52.3.35.86,1.49.94,1.53"/>
  </g>
</svg>