<?xml version="1.0" encoding="UTF-8"?>
<svg id="Calque_2" data-name="Calque 2" xmlns="http://www.w3.org/2000/svg" viewBox="0 0 93.02 44.36">
  <defs>
    <style>
      .cls-1 {
        fill: #fdcc4e;
      }
    </style>
  </defs>
  <g id="Calque_1-2" data-name="Calque 1">
    <path class="cls-1" d="M18.28,41.61C11.95,36.04,6.39,20.61.59,13.8c-2.38-6.18,2.98-8.17,6.94-3.85,4.27,4.65,13.57,19.97,16.21,25.89,2.26,5.06-1.21,9.51-5.46,5.77"/>
    <path class="cls-1" d="M88.47,8.52c3.72-1.13,5.27,1.47,4.23,4.86-1.08,3.53-7.52,12.85-9.73,16.89-1.33,2.42-6.03,13.42-7.76,13.94-2.55.77-4.79-1.57-4.94-4.01-.28-4.5,14.22-30.47,18.2-31.68"/>
    <path class="cls-1" d="M48.87,1.12c.58.59,1.29,3.51,1.39,4.49.62,6.19.73,21.18.01,27.26-.7,5.93-6.49,6.3-7.39-.07-.8-5.69-.65-21.29-.06-27.19.28-2.85,2.71-7.84,6.05-4.49"/>
  </g>
</svg>