<?xml version="1.0" encoding="UTF-8"?>
<svg id="Calque_2" data-name="Calque 2" xmlns="http://www.w3.org/2000/svg" viewBox="0 0 75.11 64.77">
  <defs>
    <style>
      .cls-1 {
        fill: #69c2c2;
      }
    </style>
  </defs>
  <g id="Calque_1-2" data-name="Calque 1">
    <path class="cls-1" d="M43.74,33.78c-2.63-3.7-7.88-6.29-6.77-11.24,2.21-9.8,18.37-15.33,25.9-8.82,2.58,2.23,6.02,8.65,9.85,6.84,5.35-2.53.45-10.7-2.34-13.49-9.05-9.06-24.63-9.22-34.58-1.55-6.9,5.32-10.31,10.73-11.08,19.36C13.52,24.43,2.32,29.92.22,41.82c-1.3,7.39,3.3,17.88,9.79,21.71,2.88,1.71,6.26,1.97,8.19-1.27,1.2-2.02-4.01-8.17-5.18-10.79-3.13-7.01-2.19-15.89,6.01-18.66,6.15-2.08,5.84,2.87,7.92,6.55,2.75,4.89,10.16,12.91,16.21,8.33,4.4-3.33,3.43-9.9.58-13.91M33.1,37.02c-2.03-2.84.92-2.71,2.74-.93.53.52,2.24,3.61,2.22,4-.15,2.29-4.59-2.55-4.96-3.07"/>
  </g>
</svg>